<?xml version="1.0" standalone="no"?>
<!DOCTYPE svg PUBLIC "-//W3C//DTD SVG 1.1//EN" "http://www.w3.org/Graphics/SVG/1.1/DTD/svg11.dtd" >
<svg xmlns="http://www.w3.org/2000/svg" xmlns:xlink="http://www.w3.org/1999/xlink" version="1.1">
<metadata>
Created by FontForge 20170731 at Thu Nov  8 19:42:38 2018
 By Aleksey,,,
Copyright \(c\) 2015 by Fontfabric LLC. All rights reserved.
</metadata>
<defs>
<font id="MullerDemo-ExtraBold" horiz-adv-x="375" >
  <font-face 
    font-family="Muller Demo ExtraBold"
    font-weight="800"
    font-stretch="normal"
    units-per-em="1000"
    panose-1="0 0 0 0 0 0 0 0 0 0"
    ascent="780"
    descent="-220"
    x-height="480"
    cap-height="700"
    bbox="-266 -235 1324 978"
    underline-thickness="50"
    underline-position="-225"
    unicode-range="U+0020-25CA"
  />
<missing-glyph horiz-adv-x="208" 
 />
    <glyph glyph-name="f_f" unicode="ff" horiz-adv-x="747" 
d="M755 576q-31 19 -74 19q-32 0 -52.5 -14.5t-20.5 -46.5v-54h128v-140h-128v-340h-170v340h-165v-340h-170v340h-79v140h79v16q0 106 62.5 157.5t157.5 51.5q85 0 158 -31q53 61 157 61q63 0 117 -19v-140zM438 480v42v28q-28 20 -74 20q-43 0 -67 -19.5t-24 -55.5v-15
h165z" />
    <glyph glyph-name="f_f_i" unicode="ffi" horiz-adv-x="991" 
d="M103 0v340h-79v140h79v16q0 106 62.5 157.5t157.5 51.5q85 0 173 -33q64 63 188 63q83 0 178 -29v-139q-70 28 -141 28q-51 0 -82 -20t-31 -61v-34h331v-480h-170v340h-161v-340h-170v340h-165v-340h-170zM273 480h165v35q0 14 2 38q-39 17 -82 17q-40 0 -62.5 -19.5
t-22.5 -55.5v-15z" />
    <glyph glyph-name="f_f_l" unicode="ffl" horiz-adv-x="1001" 
d="M644 725q85 0 160 -31l145 22v-716h-170v567q-44 18 -84 18q-39 0 -63 -18t-24 -56v-31h118v-140h-118v-340h-170v340h-165v-340h-170v340h-79v140h79v16q0 106 62.5 157.5t157.5 51.5q87 0 173 -34q55 54 148 54zM438 515q0 14 2 38q-39 17 -82 17q-40 0 -62.5 -19.5
t-22.5 -55.5v-15h165v35z" />
    <glyph glyph-name=".notdef" horiz-adv-x="208" 
 />
    <glyph glyph-name=".null" horiz-adv-x="0" 
 />
    <glyph glyph-name="nonmarkingreturn" horiz-adv-x="333" 
 />
    <glyph glyph-name="space" unicode=" " horiz-adv-x="208" 
 />
    <glyph glyph-name="exclam" unicode="!" horiz-adv-x="294" 
d="M67 260l-10 440h180l-10 -440h-160zM249 84q0 -49 -29 -74t-73 -25t-73 25t-29 74q0 48 29 73t73 25t73 -25t29 -73z" />
    <glyph glyph-name="quotedbl" unicode="&#x22;" horiz-adv-x="373" 
d="M71 0v700h232v-700h-232zM123 574q0 -26 18.5 -44t46.5 -18q26 0 44.5 16t18.5 46q0 29 -19 45t-45 17q-26 0 -45 -16t-19 -46zM188 534q-19 -1 -31.5 10t-11.5 30q0 20 13 30t30 10q41 -4 41 -40q0 -20 -12 -30t-29 -10zM247 477h-121v-26l53 -39l-53 -37v-26h121v22
h-87l53 39v4l-53 41h87v22zM226 243h-28v65h-21v-65h-28v67h-23v-90h121v90h-21v-67zM247 77v48q0 30 -18 45.5t-43 14.5q-25 0 -42.5 -15.5t-17.5 -44.5v-48h121zM148 125q-1 34 38 38q16 0 28 -9.5t12 -28.5v-26h-78v26z" />
    <glyph glyph-name="numbersign" unicode="#" horiz-adv-x="373" 
d="M71 0v700h232v-700h-232zM123 574q0 -26 18.5 -44t46.5 -18q26 0 44.5 16t18.5 46q0 29 -19 45t-45 17q-26 0 -45 -16t-19 -46zM188 534q-19 -1 -31.5 10t-11.5 30q0 20 13 30t30 10q41 -4 41 -40q0 -20 -12 -30t-29 -10zM247 477h-121v-26l53 -39l-53 -37v-26h121v22
h-87l53 39v4l-53 41h87v22zM226 243h-28v65h-21v-65h-28v67h-23v-90h121v90h-21v-67zM247 77v48q0 30 -18 45.5t-43 14.5q-25 0 -42.5 -15.5t-17.5 -44.5v-48h121zM148 125q-1 34 38 38q16 0 28 -9.5t12 -28.5v-26h-78v26z" />
    <glyph glyph-name="dollar" unicode="$" horiz-adv-x="373" 
d="M71 0v700h232v-700h-232zM123 574q0 -26 18.5 -44t46.5 -18q26 0 44.5 16t18.5 46q0 29 -19 45t-45 17q-26 0 -45 -16t-19 -46zM188 534q-19 -1 -31.5 10t-11.5 30q0 20 13 30t30 10q41 -4 41 -40q0 -20 -12 -30t-29 -10zM247 477h-121v-26l53 -39l-53 -37v-26h121v22
h-87l53 39v4l-53 41h87v22zM226 243h-28v65h-21v-65h-28v67h-23v-90h121v90h-21v-67zM247 77v48q0 30 -18 45.5t-43 14.5q-25 0 -42.5 -15.5t-17.5 -44.5v-48h121zM148 125q-1 34 38 38q16 0 28 -9.5t12 -28.5v-26h-78v26z" />
    <glyph glyph-name="percent" unicode="%" horiz-adv-x="373" 
d="M71 0v700h232v-700h-232zM123 574q0 -26 18.5 -44t46.5 -18q26 0 44.5 16t18.5 46q0 29 -19 45t-45 17q-26 0 -45 -16t-19 -46zM188 534q-19 -1 -31.5 10t-11.5 30q0 20 13 30t30 10q41 -4 41 -40q0 -20 -12 -30t-29 -10zM247 477h-121v-26l53 -39l-53 -37v-26h121v22
h-87l53 39v4l-53 41h87v22zM226 243h-28v65h-21v-65h-28v67h-23v-90h121v90h-21v-67zM247 77v48q0 30 -18 45.5t-43 14.5q-25 0 -42.5 -15.5t-17.5 -44.5v-48h121zM148 125q-1 34 38 38q16 0 28 -9.5t12 -28.5v-26h-78v26z" />
    <glyph glyph-name="ampersand" unicode="&#x26;" horiz-adv-x="373" 
d="M71 0v700h232v-700h-232zM123 574q0 -26 18.5 -44t46.5 -18q26 0 44.5 16t18.5 46q0 29 -19 45t-45 17q-26 0 -45 -16t-19 -46zM188 534q-19 -1 -31.5 10t-11.5 30q0 20 13 30t30 10q41 -4 41 -40q0 -20 -12 -30t-29 -10zM247 477h-121v-26l53 -39l-53 -37v-26h121v22
h-87l53 39v4l-53 41h87v22zM226 243h-28v65h-21v-65h-28v67h-23v-90h121v90h-21v-67zM247 77v48q0 30 -18 45.5t-43 14.5q-25 0 -42.5 -15.5t-17.5 -44.5v-48h121zM148 125q-1 34 38 38q16 0 28 -9.5t12 -28.5v-26h-78v26z" />
    <glyph glyph-name="quotesingle" unicode="'" horiz-adv-x="373" 
d="M71 0v700h232v-700h-232zM123 574q0 -26 18.5 -44t46.5 -18q26 0 44.5 16t18.5 46q0 29 -19 45t-45 17q-26 0 -45 -16t-19 -46zM188 534q-19 -1 -31.5 10t-11.5 30q0 20 13 30t30 10q41 -4 41 -40q0 -20 -12 -30t-29 -10zM247 477h-121v-26l53 -39l-53 -37v-26h121v22
h-87l53 39v4l-53 41h87v22zM226 243h-28v65h-21v-65h-28v67h-23v-90h121v90h-21v-67zM247 77v48q0 30 -18 45.5t-43 14.5q-25 0 -42.5 -15.5t-17.5 -44.5v-48h121zM148 125q-1 34 38 38q16 0 28 -9.5t12 -28.5v-26h-78v26z" />
    <glyph glyph-name="parenleft" unicode="(" horiz-adv-x="333" 
d="M316 811q-113 -219 -113 -461t113 -461h-130q-70 97 -111.5 219.5t-41.5 241.5t41.5 241.5t111.5 219.5h130z" />
    <glyph glyph-name="parenright" unicode=")" horiz-adv-x="332" 
d="M146 811q70 -97 111.5 -219.5t41.5 -241.5t-41.5 -241.5t-111.5 -219.5h-130q113 219 113 461t-113 461h130z" />
    <glyph glyph-name="asterisk" unicode="*" horiz-adv-x="373" 
d="M71 0v700h232v-700h-232zM123 574q0 -26 18.5 -44t46.5 -18q26 0 44.5 16t18.5 46q0 29 -19 45t-45 17q-26 0 -45 -16t-19 -46zM188 534q-19 -1 -31.5 10t-11.5 30q0 20 13 30t30 10q41 -4 41 -40q0 -20 -12 -30t-29 -10zM247 477h-121v-26l53 -39l-53 -37v-26h121v22
h-87l53 39v4l-53 41h87v22zM226 243h-28v65h-21v-65h-28v67h-23v-90h121v90h-21v-67zM247 77v48q0 30 -18 45.5t-43 14.5q-25 0 -42.5 -15.5t-17.5 -44.5v-48h121zM148 125q-1 34 38 38q16 0 28 -9.5t12 -28.5v-26h-78v26z" />
    <glyph glyph-name="plus" unicode="+" horiz-adv-x="373" 
d="M71 0v700h232v-700h-232zM123 574q0 -26 18.5 -44t46.5 -18q26 0 44.5 16t18.5 46q0 29 -19 45t-45 17q-26 0 -45 -16t-19 -46zM188 534q-19 -1 -31.5 10t-11.5 30q0 20 13 30t30 10q41 -4 41 -40q0 -20 -12 -30t-29 -10zM247 477h-121v-26l53 -39l-53 -37v-26h121v22
h-87l53 39v4l-53 41h87v22zM226 243h-28v65h-21v-65h-28v67h-23v-90h121v90h-21v-67zM247 77v48q0 30 -18 45.5t-43 14.5q-25 0 -42.5 -15.5t-17.5 -44.5v-48h121zM148 125q-1 34 38 38q16 0 28 -9.5t12 -28.5v-26h-78v26z" />
    <glyph glyph-name="comma" unicode="," horiz-adv-x="281" 
d="M-1 -143l68 290h180l-110 -290h-138z" />
    <glyph glyph-name="hyphen" unicode="-" horiz-adv-x="484" 
d="M432 311v-140h-380v140h380z" />
    <glyph glyph-name="period" unicode="." horiz-adv-x="273" 
d="M238 84q0 -49 -29 -74t-73 -25t-73 25t-29 74q0 48 29 73t73 25t73 -25t29 -73z" />
    <glyph glyph-name="slash" unicode="/" horiz-adv-x="373" 
d="M71 0v700h232v-700h-232zM123 574q0 -26 18.5 -44t46.5 -18q26 0 44.5 16t18.5 46q0 29 -19 45t-45 17q-26 0 -45 -16t-19 -46zM188 534q-19 -1 -31.5 10t-11.5 30q0 20 13 30t30 10q41 -4 41 -40q0 -20 -12 -30t-29 -10zM247 477h-121v-26l53 -39l-53 -37v-26h121v22
h-87l53 39v4l-53 41h87v22zM226 243h-28v65h-21v-65h-28v67h-23v-90h121v90h-21v-67zM247 77v48q0 30 -18 45.5t-43 14.5q-25 0 -42.5 -15.5t-17.5 -44.5v-48h121zM148 125q-1 34 38 38q16 0 28 -9.5t12 -28.5v-26h-78v26z" />
    <glyph glyph-name="zero" unicode="0" horiz-adv-x="708" 
d="M39 340q0 156 78.5 255.5t236.5 99.5t236.5 -99.5t78.5 -255.5t-78.5 -255.5t-236.5 -99.5t-236.5 99.5t-78.5 255.5zM484 340q0 195 -130 195t-130 -195t130 -195t130 195z" />
    <glyph glyph-name="one" unicode="1" horiz-adv-x="478" 
d="M350 680v-525h106v-155h-406v155h120v342l-120 -45v165l165 63h135z" />
    <glyph glyph-name="two" unicode="2" horiz-adv-x="608" 
d="M60 620q106 75 243 75q111 0 184 -52t73 -159q0 -41 -15 -77t-44 -65t-56 -49.5t-65 -43.5q-106 -64 -121 -79q-9 -9 -9 -15h315v-155h-527v81q0 45 14 84t30 63.5t51 53t52.5 39.5t59.5 36l15 9q8 5 34.5 19.5t34.5 20t22.5 17.5t19 24t4.5 27q0 30 -24.5 45.5
t-64.5 15.5q-118 0 -226 -85v170z" />
    <glyph glyph-name="three" unicode="3" horiz-adv-x="604" 
d="M538 506q0 -108 -105 -144q60 -19 96.5 -62.5t36.5 -113.5q0 -54 -24 -94t-65.5 -62.5t-90.5 -33.5t-105 -11q-119 0 -235 46v170q101 -58 220 -56q54 1 89 18.5t35 52.5q0 56 -93 56h-116l1 155l94 -1q87 -2 87 51q0 58 -105 58q-102 0 -200 -66v170q98 56 225 56
q114 0 184.5 -47.5t70.5 -141.5z" />
    <glyph glyph-name="four" unicode="4" horiz-adv-x="666" 
d="M542 680v-420h90v-150h-90v-110h-175v110h-345v150l340 420h180zM367 459l-161 -199h161v199z" />
    <glyph glyph-name="five" unicode="5" horiz-adv-x="598" 
d="M533 681v-155l-279 1l-7 -100q37 6 73 6q111 0 177 -53t66 -163q0 -61 -25.5 -107t-68.5 -72.5t-95.5 -39.5t-111.5 -13q-122 0 -219 46v170q80 -56 199 -56q61 0 98.5 19t37.5 57q0 76 -146 77q-88 0 -168 -28l24 411h445z" />
    <glyph glyph-name="six" unicode="6" horiz-adv-x="661" 
d="M226 412q77 37 162 37q101 0 170.5 -59t69.5 -165q0 -115 -77.5 -177.5t-191.5 -62.5q-168 0 -243.5 92.5t-75.5 268.5q0 90 27 158.5t74 109.5t104.5 61t124.5 20q103 0 200 -43v-160q-76 53 -170 53q-148 0 -174 -133zM224 270q9 -80 39 -110t81 -30q42 0 70.5 22
t28.5 64q0 43 -32 63t-82 20q-52 0 -105 -29z" />
    <glyph glyph-name="seven" unicode="7" horiz-adv-x="582" 
d="M565 681v-125l-276 -556h-200l261 526h-325v155h540z" />
    <glyph glyph-name="eight" unicode="8" horiz-adv-x="664" 
d="M62 500q0 79 68 137t202 58q128 0 199 -58.5t71 -136.5q0 -85 -83 -148q108 -55 108 -162q0 -86 -73 -145.5t-222 -59.5t-222 59.5t-73 145.5q0 51 28.5 95t72.5 70q-76 54 -76 145zM426 491q-1 28 -27 46t-76 18q-39 0 -62.5 -16.5t-23.5 -39.5q0 -31 25.5 -48.5
t79.5 -35.5q7 -2 24.5 -7.5t27.5 -8.5q34 48 32 92zM352 266q-17 7 -53 19l-51 17q-29 -42 -27 -89q2 -38 32.5 -63t92.5 -25q42 0 69 17t27 44q0 29 -22 45.5t-68 34.5z" />
    <glyph glyph-name="nine" unicode="9" horiz-adv-x="661" 
d="M33 455q0 115 77.5 177.5t191.5 62.5q168 0 243.5 -92.5t75.5 -268.5q0 -90 -27 -158.5t-74 -109.5t-104.5 -61t-124.5 -20q-103 0 -200 43v160q76 -53 170 -53q148 0 174 133q-77 -37 -162 -37q-101 0 -170.5 59t-69.5 165zM317 550q-42 0 -70.5 -22t-28.5 -64
q0 -43 32 -63t82 -20q52 0 105 29q-9 80 -39 110t-81 30z" />
    <glyph glyph-name="colon" unicode=":" horiz-adv-x="373" 
d="M71 0v700h232v-700h-232zM123 574q0 -26 18.5 -44t46.5 -18q26 0 44.5 16t18.5 46q0 29 -19 45t-45 17q-26 0 -45 -16t-19 -46zM188 534q-19 -1 -31.5 10t-11.5 30q0 20 13 30t30 10q41 -4 41 -40q0 -20 -12 -30t-29 -10zM247 477h-121v-26l53 -39l-53 -37v-26h121v22
h-87l53 39v4l-53 41h87v22zM226 243h-28v65h-21v-65h-28v67h-23v-90h121v90h-21v-67zM247 77v48q0 30 -18 45.5t-43 14.5q-25 0 -42.5 -15.5t-17.5 -44.5v-48h121zM148 125q-1 34 38 38q16 0 28 -9.5t12 -28.5v-26h-78v26z" />
    <glyph glyph-name="semicolon" unicode=";" horiz-adv-x="373" 
d="M71 0v700h232v-700h-232zM123 574q0 -26 18.5 -44t46.5 -18q26 0 44.5 16t18.5 46q0 29 -19 45t-45 17q-26 0 -45 -16t-19 -46zM188 534q-19 -1 -31.5 10t-11.5 30q0 20 13 30t30 10q41 -4 41 -40q0 -20 -12 -30t-29 -10zM247 477h-121v-26l53 -39l-53 -37v-26h121v22
h-87l53 39v4l-53 41h87v22zM226 243h-28v65h-21v-65h-28v67h-23v-90h121v90h-21v-67zM247 77v48q0 30 -18 45.5t-43 14.5q-25 0 -42.5 -15.5t-17.5 -44.5v-48h121zM148 125q-1 34 38 38q16 0 28 -9.5t12 -28.5v-26h-78v26z" />
    <glyph glyph-name="less" unicode="&#x3c;" horiz-adv-x="373" 
d="M71 0v700h232v-700h-232zM123 574q0 -26 18.5 -44t46.5 -18q26 0 44.5 16t18.5 46q0 29 -19 45t-45 17q-26 0 -45 -16t-19 -46zM188 534q-19 -1 -31.5 10t-11.5 30q0 20 13 30t30 10q41 -4 41 -40q0 -20 -12 -30t-29 -10zM247 477h-121v-26l53 -39l-53 -37v-26h121v22
h-87l53 39v4l-53 41h87v22zM226 243h-28v65h-21v-65h-28v67h-23v-90h121v90h-21v-67zM247 77v48q0 30 -18 45.5t-43 14.5q-25 0 -42.5 -15.5t-17.5 -44.5v-48h121zM148 125q-1 34 38 38q16 0 28 -9.5t12 -28.5v-26h-78v26z" />
    <glyph glyph-name="equal" unicode="=" horiz-adv-x="373" 
d="M71 0v700h232v-700h-232zM123 574q0 -26 18.5 -44t46.5 -18q26 0 44.5 16t18.5 46q0 29 -19 45t-45 17q-26 0 -45 -16t-19 -46zM188 534q-19 -1 -31.5 10t-11.5 30q0 20 13 30t30 10q41 -4 41 -40q0 -20 -12 -30t-29 -10zM247 477h-121v-26l53 -39l-53 -37v-26h121v22
h-87l53 39v4l-53 41h87v22zM226 243h-28v65h-21v-65h-28v67h-23v-90h121v90h-21v-67zM247 77v48q0 30 -18 45.5t-43 14.5q-25 0 -42.5 -15.5t-17.5 -44.5v-48h121zM148 125q-1 34 38 38q16 0 28 -9.5t12 -28.5v-26h-78v26z" />
    <glyph glyph-name="greater" unicode="&#x3e;" horiz-adv-x="373" 
d="M71 0v700h232v-700h-232zM123 574q0 -26 18.5 -44t46.5 -18q26 0 44.5 16t18.5 46q0 29 -19 45t-45 17q-26 0 -45 -16t-19 -46zM188 534q-19 -1 -31.5 10t-11.5 30q0 20 13 30t30 10q41 -4 41 -40q0 -20 -12 -30t-29 -10zM247 477h-121v-26l53 -39l-53 -37v-26h121v22
h-87l53 39v4l-53 41h87v22zM226 243h-28v65h-21v-65h-28v67h-23v-90h121v90h-21v-67zM247 77v48q0 30 -18 45.5t-43 14.5q-25 0 -42.5 -15.5t-17.5 -44.5v-48h121zM148 125q-1 34 38 38q16 0 28 -9.5t12 -28.5v-26h-78v26z" />
    <glyph glyph-name="question" unicode="?" horiz-adv-x="503" 
d="M145 242q0 34 15 67.5t36 58.5t42.5 46.5t36.5 42t15 35.5q0 63 -92 63q-82 0 -163 -47v160q92 47 194 47q106 0 176 -42.5t70 -135.5q0 -38 -17.5 -74.5t-42.5 -65t-50 -54.5t-42.5 -52t-17.5 -49h-160zM328 84q0 -49 -29 -74t-73 -25t-73 25t-29 74q0 48 29 73t73 25
t73 -25t29 -73z" />
    <glyph glyph-name="at" unicode="@" horiz-adv-x="373" 
d="M71 0v700h232v-700h-232zM123 574q0 -26 18.5 -44t46.5 -18q26 0 44.5 16t18.5 46q0 29 -19 45t-45 17q-26 0 -45 -16t-19 -46zM188 534q-19 -1 -31.5 10t-11.5 30q0 20 13 30t30 10q41 -4 41 -40q0 -20 -12 -30t-29 -10zM247 477h-121v-26l53 -39l-53 -37v-26h121v22
h-87l53 39v4l-53 41h87v22zM226 243h-28v65h-21v-65h-28v67h-23v-90h121v90h-21v-67zM247 77v48q0 30 -18 45.5t-43 14.5q-25 0 -42.5 -15.5t-17.5 -44.5v-48h121zM148 125q-1 34 38 38q16 0 28 -9.5t12 -28.5v-26h-78v26z" />
    <glyph glyph-name="A" unicode="A" horiz-adv-x="752" 
d="M1 0l275 700h200l275 -700h-190l-40 110h-290l-40 -110h-190zM286 260h180l-72 202q-12 34 -18 71q-6 -37 -18 -71z" />
    <glyph glyph-name="B" unicode="B" horiz-adv-x="684" 
d="M382 700q118 0 181.5 -44t63.5 -133q0 -115 -104 -152q132 -39 132 -173q0 -57 -25 -97.5t-68.5 -61.5t-90 -30t-101.5 -9h-304v700h316zM442 490q0 30 -20.5 47.5t-56.5 17.5h-114v-129l114 -1q36 0 56.5 17.5t20.5 47.5zM469 218q0 73 -93 73h-126v-146h126q93 0 93 73
z" />
    <glyph glyph-name="C" unicode="C" horiz-adv-x="655" 
d="M32 340q0 95 32 169t87 118t121 66t139 22q110 0 203 -44v-175q-68 57 -171 57q-92 0 -156.5 -53.5t-64.5 -159.5q0 -95 64 -143.5t155 -48.5q115 0 178 61v-180q-93 -44 -204 -44q-75 0 -141.5 21t-121.5 62.5t-87.5 111.5t-32.5 160z" />
    <glyph glyph-name="D" unicode="D" horiz-adv-x="744" 
d="M345 700q181 0 273.5 -95t92.5 -255t-92.5 -255t-273.5 -95h-279v700h279zM521 350q0 190 -176 190h-94v-380h94q176 0 176 190z" />
    <glyph glyph-name="E" unicode="E" horiz-adv-x="617" 
d="M570 700v-160h-319v-107h289v-159h-289v-114h325v-160h-510v700h504z" />
    <glyph glyph-name="F" unicode="F" horiz-adv-x="604" 
d="M571 700v-165h-320v-121h291v-165h-291v-249h-185v700h505z" />
    <glyph glyph-name="G" unicode="G" horiz-adv-x="699" 
d="M32 350q0 94 32.5 166.5t88 114.5t122.5 63t143 21q113 0 217 -44v-175q-81 56 -193 56q-93 0 -156.5 -50.5t-63.5 -151.5q0 -61 20.5 -104.5t54 -64t65.5 -29t67 -8.5q28 0 48 5v236h175v-353q-113 -47 -232 -47q-77 0 -145 22t-123 65t-87.5 114.5t-32.5 163.5z" />
    <glyph glyph-name="H" unicode="H" horiz-adv-x="762" 
d="M696 700v-700h-185v267h-260v-267h-185v700h185v-268h260v268h185z" />
    <glyph glyph-name="I" unicode="I" horiz-adv-x="317" 
d="M251 700v-700h-185v700h185z" />
    <glyph glyph-name="J" unicode="J" horiz-adv-x="518" 
d="M457 700v-482q0 -63 -21 -109.5t-58 -72.5t-82.5 -38.5t-99.5 -12.5q-90 0 -181 33v170q61 -33 134 -33q123 0 123 88v292h-175v165h360z" />
    <glyph glyph-name="K" unicode="K" horiz-adv-x="706" 
d="M66 0v700h185v-265h88l159 265h205l-220 -341l230 -359h-205l-170 270h-87v-270h-185z" />
    <glyph glyph-name="L" unicode="L" horiz-adv-x="584" 
d="M251 700v-535h320v-165h-505v700h185z" />
    <glyph glyph-name="M" unicode="M" horiz-adv-x="908" 
d="M842 700v-700h-185v372l-150 -230h-106l-150 231v-373h-185v700h175l213 -328l213 328h175z" />
    <glyph glyph-name="N" unicode="N" horiz-adv-x="762" 
d="M66 0v700h175l274 -402q-4 44 -4 116v286h185v-700h-175l-274 401q4 -44 4 -115v-286h-185z" />
    <glyph glyph-name="O" unicode="O" horiz-adv-x="812" 
d="M31 350q0 155 98 260t277 105t277 -105t98 -260t-98 -260t-277 -105t-277 105t-98 260zM591 350q0 87 -48.5 141t-136.5 54t-136.5 -54t-48.5 -141t48.5 -141t136.5 -54t136.5 54t48.5 141z" />
    <glyph glyph-name="P" unicode="P" horiz-adv-x="668" 
d="M343 700q305 0 305 -240q0 -238 -305 -240h-92v-220h-185v700h277zM458 460q0 80 -106 80h-101v-160h101q106 0 106 80z" />
    <glyph glyph-name="Q" unicode="Q" horiz-adv-x="812" 
d="M655 -57l-76 76q-74 -34 -173 -34q-179 0 -277 105t-98 260t98 260t277 105t277 -105t98 -260q0 -132 -70 -226l70 -70zM221 350q0 -87 48.5 -141t136.5 -54q13 0 35 2l-63 63l119 118l78 -78q16 43 16 90q0 87 -48.5 142t-136.5 55t-136.5 -55t-48.5 -142z" />
    <glyph glyph-name="R" unicode="R" horiz-adv-x="711" 
d="M66 0v700h295q57 0 105.5 -11.5t91 -37t66.5 -73.5t24 -114q0 -156 -134 -210l193 -254h-209l-167 228h-80v-228h-185zM251 378h118q41 0 65 21t24 60t-24 60t-65 21h-118v-162z" />
    <glyph glyph-name="S" unicode="S" horiz-adv-x="621" 
d="M41 509q0 100 74.5 153t189.5 53q137 0 235 -56v-170q-90 68 -220 66q-89 -1 -89 -45q0 -21 27 -37.5t67.5 -28t87.5 -31t87.5 -43.5t67.5 -68.5t27 -102.5q0 -214 -280 -214q-153 0 -269 64v175q115 -79 255 -79q56 0 80 10.5t24 36.5q0 27 -37.5 47t-91 37.5t-107 41.5
t-91 73t-37.5 118z" />
    <glyph glyph-name="T" unicode="T" horiz-adv-x="606" 
d="M593 700v-165h-197v-535h-185v535h-198v165h580z" />
    <glyph glyph-name="U" unicode="U" horiz-adv-x="748" 
d="M689 700v-433q0 -76 -27 -132.5t-73 -88t-100 -46.5t-115 -15t-115 15t-100 46.5t-73 88t-27 132.5v433h185v-423q0 -127 130 -127t130 127v423h185z" />
    <glyph glyph-name="V" unicode="V" horiz-adv-x="722" 
d="M266 0l-263 700h200l158 -480l158 480h200l-263 -700h-190z" />
    <glyph glyph-name="W" unicode="W" horiz-adv-x="1078" 
d="M1072 700l-214 -700h-200l-119 433l-119 -433h-200l-214 700h200l119 -492l133 492h162l133 -492l119 492h200z" />
    <glyph glyph-name="X" unicode="X" horiz-adv-x="694" 
d="M-11 0l240 364l-225 336h216l127 -206l127 206h216l-225 -336l240 -364h-216l-142 235l-142 -235h-216z" />
    <glyph glyph-name="Y" unicode="Y" horiz-adv-x="728" 
d="M272 0v239l-273 461h210l155 -289l155 289h210l-273 -461v-239h-184z" />
    <glyph glyph-name="Z" unicode="Z" horiz-adv-x="627" 
d="M30 0v125l304 410h-286v165h536v-125l-305 -410h314v-165h-563z" />
    <glyph glyph-name="bracketleft" unicode="[" horiz-adv-x="373" 
d="M71 0v700h232v-700h-232zM123 574q0 -26 18.5 -44t46.5 -18q26 0 44.5 16t18.5 46q0 29 -19 45t-45 17q-26 0 -45 -16t-19 -46zM188 534q-19 -1 -31.5 10t-11.5 30q0 20 13 30t30 10q41 -4 41 -40q0 -20 -12 -30t-29 -10zM247 477h-121v-26l53 -39l-53 -37v-26h121v22
h-87l53 39v4l-53 41h87v22zM226 243h-28v65h-21v-65h-28v67h-23v-90h121v90h-21v-67zM247 77v48q0 30 -18 45.5t-43 14.5q-25 0 -42.5 -15.5t-17.5 -44.5v-48h121zM148 125q-1 34 38 38q16 0 28 -9.5t12 -28.5v-26h-78v26z" />
    <glyph glyph-name="backslash" unicode="\" horiz-adv-x="373" 
d="M71 0v700h232v-700h-232zM123 574q0 -26 18.5 -44t46.5 -18q26 0 44.5 16t18.5 46q0 29 -19 45t-45 17q-26 0 -45 -16t-19 -46zM188 534q-19 -1 -31.5 10t-11.5 30q0 20 13 30t30 10q41 -4 41 -40q0 -20 -12 -30t-29 -10zM247 477h-121v-26l53 -39l-53 -37v-26h121v22
h-87l53 39v4l-53 41h87v22zM226 243h-28v65h-21v-65h-28v67h-23v-90h121v90h-21v-67zM247 77v48q0 30 -18 45.5t-43 14.5q-25 0 -42.5 -15.5t-17.5 -44.5v-48h121zM148 125q-1 34 38 38q16 0 28 -9.5t12 -28.5v-26h-78v26z" />
    <glyph glyph-name="bracketright" unicode="]" horiz-adv-x="373" 
d="M71 0v700h232v-700h-232zM123 574q0 -26 18.5 -44t46.5 -18q26 0 44.5 16t18.5 46q0 29 -19 45t-45 17q-26 0 -45 -16t-19 -46zM188 534q-19 -1 -31.5 10t-11.5 30q0 20 13 30t30 10q41 -4 41 -40q0 -20 -12 -30t-29 -10zM247 477h-121v-26l53 -39l-53 -37v-26h121v22
h-87l53 39v4l-53 41h87v22zM226 243h-28v65h-21v-65h-28v67h-23v-90h121v90h-21v-67zM247 77v48q0 30 -18 45.5t-43 14.5q-25 0 -42.5 -15.5t-17.5 -44.5v-48h121zM148 125q-1 34 38 38q16 0 28 -9.5t12 -28.5v-26h-78v26z" />
    <glyph glyph-name="asciicircum" unicode="^" horiz-adv-x="373" 
d="M71 0v700h232v-700h-232zM123 574q0 -26 18.5 -44t46.5 -18q26 0 44.5 16t18.5 46q0 29 -19 45t-45 17q-26 0 -45 -16t-19 -46zM188 534q-19 -1 -31.5 10t-11.5 30q0 20 13 30t30 10q41 -4 41 -40q0 -20 -12 -30t-29 -10zM247 477h-121v-26l53 -39l-53 -37v-26h121v22
h-87l53 39v4l-53 41h87v22zM226 243h-28v65h-21v-65h-28v67h-23v-90h121v90h-21v-67zM247 77v48q0 30 -18 45.5t-43 14.5q-25 0 -42.5 -15.5t-17.5 -44.5v-48h121zM148 125q-1 34 38 38q16 0 28 -9.5t12 -28.5v-26h-78v26z" />
    <glyph glyph-name="underscore" unicode="_" horiz-adv-x="373" 
d="M71 0v700h232v-700h-232zM123 574q0 -26 18.5 -44t46.5 -18q26 0 44.5 16t18.5 46q0 29 -19 45t-45 17q-26 0 -45 -16t-19 -46zM188 534q-19 -1 -31.5 10t-11.5 30q0 20 13 30t30 10q41 -4 41 -40q0 -20 -12 -30t-29 -10zM247 477h-121v-26l53 -39l-53 -37v-26h121v22
h-87l53 39v4l-53 41h87v22zM226 243h-28v65h-21v-65h-28v67h-23v-90h121v90h-21v-67zM247 77v48q0 30 -18 45.5t-43 14.5q-25 0 -42.5 -15.5t-17.5 -44.5v-48h121zM148 125q-1 34 38 38q16 0 28 -9.5t12 -28.5v-26h-78v26z" />
    <glyph glyph-name="grave" unicode="`" horiz-adv-x="290" 
d="M-106 914h500v-165h-500v165zM305 880q-19 0 -32 -13.5t-13 -33.5t11.5 -33.5t33.5 -13.5q23 0 35 13.5t12 33.5q0 21 -13.5 34t-33.5 13zM-49 787h31q47 0 47 44q0 19 -12.5 31.5t-34.5 12.5h-31v-88zM70 802v21h46v16h-46v20h46v16h-62v-88h62v15h-46zM235 787v88h-21
l-26 -36l-26 36h-21v-88h17v66l30 -39l31 40v-67h16zM275 833q0 13 8 22.5t22 9.5q15 0 23 -9.5t8 -22.5q0 -32 -31 -32q-14 0 -22 10t-8 22zM-34 859h16q31 0 31 -28q0 -29 -31 -29h-16v57z" />
    <glyph glyph-name="a" unicode="a" horiz-adv-x="567" 
d="M505 137q0 -30 33 -30q10 0 19 3v-105q-38 -15 -86 -15q-80 0 -114 53q-74 -58 -167 -58q-71 0 -119 40t-48 108q0 43 19 75.5t50.5 49.5t66 25t72.5 8q54 0 104 -11v17q0 27 -25.5 43.5t-74.5 16.5q-76 0 -168 -37v143q98 32 187 32q123 0 187 -51t64 -173v-134z
M198 147q0 -20 16 -33.5t42 -13.5q45 0 79 25v65q-27 9 -61 9q-76 0 -76 -52z" />
    <glyph glyph-name="b" unicode="b" horiz-adv-x="624" 
d="M221 700v-259q52 54 143 54q58 0 104 -22t73 -59t41 -81.5t14 -92.5t-14 -92.5t-41 -81.5t-73 -59t-104 -22q-60 0 -101.5 23t-61.5 57v-65h-150v700h170zM421 240q0 47 -26.5 81t-76.5 34q-33 0 -59 -17.5t-38 -42.5v-110q12 -25 38 -42.5t59 -17.5q50 0 76.5 34
t26.5 81z" />
    <glyph glyph-name="c" unicode="c" horiz-adv-x="490" 
d="M27 230q0 132 81.5 199t195.5 67q79 0 148 -33v-145q-57 33 -122 33q-56 0 -92 -27t-36 -84q0 -54 36 -82t89 -28q74 0 130 32v-145q-77 -32 -165 -32q-110 0 -187.5 62.5t-77.5 182.5z" />
    <glyph glyph-name="d" unicode="d" horiz-adv-x="623" 
d="M572 700v-700h-150v65q-20 -34 -61.5 -57t-101.5 -23q-58 0 -104 22t-73 59t-41 81.5t-14 92.5t14 92.5t41 81.5t73 59t104 22q91 0 143 -54v259h170zM402 295q-12 25 -38 42.5t-59 17.5q-50 0 -76.5 -34t-26.5 -81t26.5 -81t76.5 -34q33 0 59 17.5t38 42.5v110z" />
    <glyph glyph-name="e" unicode="e" horiz-adv-x="548" 
d="M27 240q0 67 24 118.5t63 80t81 42.5t84 14q60 0 107 -18t74.5 -48t44.5 -69.5t16.5 -83t-8.5 -87.5h-314q27 -74 153 -74q77 0 138 23v-126q-76 -27 -178 -27q-123 0 -204 67.5t-81 187.5zM358 291q5 24 -12.5 52.5t-62.5 28.5q-36 0 -61 -22t-25 -59h161z" />
    <glyph glyph-name="f" unicode="f" horiz-adv-x="412" 
d="M103 0v340h-79v140h79v41q0 54 17.5 93.5t47 60.5t63 30.5t72.5 9.5q63 0 117 -19v-140q-31 19 -74 19q-32 0 -52.5 -14.5t-20.5 -46.5v-34h128v-140h-128v-340h-170z" />
    <glyph glyph-name="g" unicode="g" horiz-adv-x="623" 
d="M27 240q0 48 14 92.5t41 81.5t73 59t104 22q60 0 101.5 -23t61.5 -57v65h150v-460q0 -69 -23.5 -120.5t-64.5 -79.5t-90 -41.5t-106 -13.5q-114 0 -207 45v145q81 -50 184 -50q137 0 137 105v29q-52 -54 -143 -54q-58 0 -104 22t-73 59t-41 81.5t-14 92.5zM402 295
q-12 25 -38 42.5t-59 17.5q-50 0 -76.5 -34t-26.5 -81t26.5 -81t76.5 -34q33 0 59 17.5t38 42.5v110z" />
    <glyph glyph-name="h" unicode="h" horiz-adv-x="592" 
d="M221 700v-256q57 51 133 51q94 0 143 -55.5t49 -141.5v-298h-170v275q0 37 -20 56t-53 19q-49 0 -82 -42v-308h-170v700h170z" />
    <glyph glyph-name="i" unicode="i" horiz-adv-x="274" 
d="M234 642q0 -47 -27.5 -70.5t-69.5 -23.5t-69.5 23.5t-27.5 70.5q0 46 28 69.5t69 23.5q42 0 69.5 -23.5t27.5 -69.5zM52 0v480h170v-480h-170z" />
    <glyph glyph-name="j" unicode="j" horiz-adv-x="274" 
d="M234 642q0 -47 -27.5 -70.5t-69.5 -23.5t-69.5 23.5t-27.5 70.5q0 46 28 69.5t69 23.5q42 0 69.5 -23.5t27.5 -69.5zM222 -57q0 -92 -51.5 -135t-133.5 -43q-57 0 -92 15v142q24 -8 49 -8q26 0 42 15.5t16 45.5v505h170v-537z" />
    <glyph glyph-name="k" unicode="k" horiz-adv-x="561" 
d="M375 0l-118 182h-36v-182h-170v700h170v-388h38l105 168h190l-156 -236l166 -244h-189z" />
    <glyph glyph-name="l" unicode="l" horiz-adv-x="274" 
d="M222 730v-730h-170v730h170z" />
    <glyph glyph-name="m" unicode="m" horiz-adv-x="867" 
d="M51 0v480h150v-51q22 26 61.5 46t86.5 20q96 0 142 -66q71 66 153 66q51 0 88 -18.5t55 -49t26 -60t8 -59.5v-308h-170v293q0 27 -15.5 42t-39.5 15q-39 0 -70 -31v-11v-308h-170v293q0 27 -15.5 42t-39.5 15q-47 0 -80 -42v-308h-170z" />
    <glyph glyph-name="n" unicode="n" horiz-adv-x="592" 
d="M201 425q65 70 153 70q94 0 143 -55.5t49 -141.5v-298h-170v275q0 37 -20 56t-53 19q-49 0 -82 -42v-308h-170v480h150v-55z" />
    <glyph glyph-name="o" unicode="o" horiz-adv-x="594" 
d="M27 240q0 122 77.5 188.5t192.5 66.5t192.5 -66.5t77.5 -188.5t-77.5 -188.5t-192.5 -66.5t-192.5 66.5t-77.5 188.5zM392 240q0 45 -23 75t-72 30t-72 -30t-23 -75t23 -75t72 -30t72 30t23 75z" />
    <glyph glyph-name="p" unicode="p" horiz-adv-x="624" 
d="M201 415q20 34 61.5 57t101.5 23q58 0 104 -22t73 -59t41 -81.5t14 -92.5t-14 -92.5t-41 -81.5t-73 -59t-104 -22q-91 0 -143 54v-259h-170v700h150v-65zM421 240q0 47 -26.5 81t-76.5 34q-33 0 -59 -17.5t-38 -42.5v-110q12 -25 38 -42.5t59 -17.5q50 0 76.5 34t26.5 81
z" />
    <glyph glyph-name="q" unicode="q" horiz-adv-x="623" 
d="M27 240q0 48 14 92.5t41 81.5t73 59t104 22q60 0 101.5 -23t61.5 -57v65h150v-700h-170v259q-52 -54 -143 -54q-58 0 -104 22t-73 59t-41 81.5t-14 92.5zM402 295q-12 25 -38 42.5t-59 17.5q-50 0 -76.5 -34t-26.5 -81t26.5 -81t76.5 -34q33 0 59 17.5t38 42.5v110z" />
    <glyph glyph-name="r" unicode="r" horiz-adv-x="404" 
d="M201 415q61 89 188 75v-165q-51 11 -98.5 -3.5t-69.5 -48.5v-273h-170v480h150v-65z" />
    <glyph glyph-name="s" unicode="s" horiz-adv-x="486" 
d="M34 342q0 81 59 117t150 36q94 0 181 -41v-135q-32 22 -79.5 36.5t-89.5 14.5q-46 0 -46 -24q0 -18 26 -29.5t63 -21.5t74 -24.5t63 -47.5t26 -83q0 -155 -229 -155q-116 0 -193 44v135q77 -51 184 -51q63 0 63 24q0 17 -26 28.5t-63 21.5t-74 25.5t-63 48.5t-26 81z" />
    <glyph glyph-name="t" unicode="t" horiz-adv-x="422" 
d="M259 655v-175h130v-140h-130v-156q0 -59 63 -59q42 0 77 12v-132q-58 -20 -130 -20q-79 0 -129.5 38.5t-50.5 126.5v190h-76v140h76v135z" />
    <glyph glyph-name="u" unicode="u" horiz-adv-x="592" 
d="M541 480v-480h-150v55q-65 -70 -153 -70q-94 0 -143 55.5t-49 141.5v298h170v-275q0 -37 20 -56t53 -19q49 0 82 42v308h170z" />
    <glyph glyph-name="v" unicode="v" horiz-adv-x="572" 
d="M566 480l-190 -480h-180l-190 480h180l100 -303l100 303h180z" />
    <glyph glyph-name="w" unicode="w" horiz-adv-x="828" 
d="M819 480l-149 -480h-180l-76 281l-76 -281h-180l-149 480h182l68 -295l73 295h164l73 -295l68 295h182z" />
    <glyph glyph-name="x" unicode="x" horiz-adv-x="552" 
d="M547 480l-172 -241l181 -239h-192l-88 124l-88 -124h-192l181 239l-172 241h192l79 -126l79 126h192z" />
    <glyph glyph-name="y" unicode="y" horiz-adv-x="577" 
d="M395 480h175l-201 -530q-70 -183 -220 -183q-36 0 -88 13v140q34 -8 65 -8q66 0 100 76l-226 492h180l117 -286z" />
    <glyph glyph-name="z" unicode="z" horiz-adv-x="492" 
d="M448 480v-100l-194 -240h208v-140h-433v100l195 240h-181v140h405z" />
    <glyph glyph-name="braceleft" unicode="{" horiz-adv-x="373" 
d="M71 0v700h232v-700h-232zM123 574q0 -26 18.5 -44t46.5 -18q26 0 44.5 16t18.5 46q0 29 -19 45t-45 17q-26 0 -45 -16t-19 -46zM188 534q-19 -1 -31.5 10t-11.5 30q0 20 13 30t30 10q41 -4 41 -40q0 -20 -12 -30t-29 -10zM247 477h-121v-26l53 -39l-53 -37v-26h121v22
h-87l53 39v4l-53 41h87v22zM226 243h-28v65h-21v-65h-28v67h-23v-90h121v90h-21v-67zM247 77v48q0 30 -18 45.5t-43 14.5q-25 0 -42.5 -15.5t-17.5 -44.5v-48h121zM148 125q-1 34 38 38q16 0 28 -9.5t12 -28.5v-26h-78v26z" />
    <glyph glyph-name="bar" unicode="|" horiz-adv-x="373" 
d="M71 0v700h232v-700h-232zM123 574q0 -26 18.5 -44t46.5 -18q26 0 44.5 16t18.5 46q0 29 -19 45t-45 17q-26 0 -45 -16t-19 -46zM188 534q-19 -1 -31.5 10t-11.5 30q0 20 13 30t30 10q41 -4 41 -40q0 -20 -12 -30t-29 -10zM247 477h-121v-26l53 -39l-53 -37v-26h121v22
h-87l53 39v4l-53 41h87v22zM226 243h-28v65h-21v-65h-28v67h-23v-90h121v90h-21v-67zM247 77v48q0 30 -18 45.5t-43 14.5q-25 0 -42.5 -15.5t-17.5 -44.5v-48h121zM148 125q-1 34 38 38q16 0 28 -9.5t12 -28.5v-26h-78v26z" />
    <glyph glyph-name="braceright" unicode="}" horiz-adv-x="373" 
d="M71 0v700h232v-700h-232zM123 574q0 -26 18.5 -44t46.5 -18q26 0 44.5 16t18.5 46q0 29 -19 45t-45 17q-26 0 -45 -16t-19 -46zM188 534q-19 -1 -31.5 10t-11.5 30q0 20 13 30t30 10q41 -4 41 -40q0 -20 -12 -30t-29 -10zM247 477h-121v-26l53 -39l-53 -37v-26h121v22
h-87l53 39v4l-53 41h87v22zM226 243h-28v65h-21v-65h-28v67h-23v-90h121v90h-21v-67zM247 77v48q0 30 -18 45.5t-43 14.5q-25 0 -42.5 -15.5t-17.5 -44.5v-48h121zM148 125q-1 34 38 38q16 0 28 -9.5t12 -28.5v-26h-78v26z" />
    <glyph glyph-name="asciitilde" unicode="~" horiz-adv-x="373" 
d="M71 0v700h232v-700h-232zM123 574q0 -26 18.5 -44t46.5 -18q26 0 44.5 16t18.5 46q0 29 -19 45t-45 17q-26 0 -45 -16t-19 -46zM188 534q-19 -1 -31.5 10t-11.5 30q0 20 13 30t30 10q41 -4 41 -40q0 -20 -12 -30t-29 -10zM247 477h-121v-26l53 -39l-53 -37v-26h121v22
h-87l53 39v4l-53 41h87v22zM226 243h-28v65h-21v-65h-28v67h-23v-90h121v90h-21v-67zM247 77v48q0 30 -18 45.5t-43 14.5q-25 0 -42.5 -15.5t-17.5 -44.5v-48h121zM148 125q-1 34 38 38q16 0 28 -9.5t12 -28.5v-26h-78v26z" />
    <glyph glyph-name="exclamdown" unicode="&#xa1;" horiz-adv-x="373" 
d="M71 0v700h232v-700h-232zM123 574q0 -26 18.5 -44t46.5 -18q26 0 44.5 16t18.5 46q0 29 -19 45t-45 17q-26 0 -45 -16t-19 -46zM188 534q-19 -1 -31.5 10t-11.5 30q0 20 13 30t30 10q41 -4 41 -40q0 -20 -12 -30t-29 -10zM247 477h-121v-26l53 -39l-53 -37v-26h121v22
h-87l53 39v4l-53 41h87v22zM226 243h-28v65h-21v-65h-28v67h-23v-90h121v90h-21v-67zM247 77v48q0 30 -18 45.5t-43 14.5q-25 0 -42.5 -15.5t-17.5 -44.5v-48h121zM148 125q-1 34 38 38q16 0 28 -9.5t12 -28.5v-26h-78v26z" />
    <glyph glyph-name="cent" unicode="&#xa2;" horiz-adv-x="373" 
d="M71 0v700h232v-700h-232zM123 574q0 -26 18.5 -44t46.5 -18q26 0 44.5 16t18.5 46q0 29 -19 45t-45 17q-26 0 -45 -16t-19 -46zM188 534q-19 -1 -31.5 10t-11.5 30q0 20 13 30t30 10q41 -4 41 -40q0 -20 -12 -30t-29 -10zM247 477h-121v-26l53 -39l-53 -37v-26h121v22
h-87l53 39v4l-53 41h87v22zM226 243h-28v65h-21v-65h-28v67h-23v-90h121v90h-21v-67zM247 77v48q0 30 -18 45.5t-43 14.5q-25 0 -42.5 -15.5t-17.5 -44.5v-48h121zM148 125q-1 34 38 38q16 0 28 -9.5t12 -28.5v-26h-78v26z" />
    <glyph glyph-name="sterling" unicode="&#xa3;" horiz-adv-x="373" 
d="M71 0v700h232v-700h-232zM123 574q0 -26 18.5 -44t46.5 -18q26 0 44.5 16t18.5 46q0 29 -19 45t-45 17q-26 0 -45 -16t-19 -46zM188 534q-19 -1 -31.5 10t-11.5 30q0 20 13 30t30 10q41 -4 41 -40q0 -20 -12 -30t-29 -10zM247 477h-121v-26l53 -39l-53 -37v-26h121v22
h-87l53 39v4l-53 41h87v22zM226 243h-28v65h-21v-65h-28v67h-23v-90h121v90h-21v-67zM247 77v48q0 30 -18 45.5t-43 14.5q-25 0 -42.5 -15.5t-17.5 -44.5v-48h121zM148 125q-1 34 38 38q16 0 28 -9.5t12 -28.5v-26h-78v26z" />
    <glyph glyph-name="currency" unicode="&#xa4;" horiz-adv-x="371" 
d="M71 0v700h232v-700h-232zM123 574q0 -26 18.5 -44t46.5 -18q26 0 44.5 16t18.5 46q0 29 -19 45t-45 17q-26 0 -45 -16t-19 -46zM188 534q-19 -1 -31.5 10t-11.5 30q0 20 13 30t30 10q41 -4 41 -40q0 -20 -12 -30t-29 -10zM247 477h-121v-26l53 -39l-53 -37v-26h121v22
h-87l53 39v4l-53 41h87v22zM226 243h-28v65h-21v-65h-28v67h-23v-90h121v90h-21v-67zM247 77v48q0 30 -18 45.5t-43 14.5q-25 0 -42.5 -15.5t-17.5 -44.5v-48h121zM148 125q-1 34 38 38q16 0 28 -9.5t12 -28.5v-26h-78v26z" />
    <glyph glyph-name="yen" unicode="&#xa5;" 
d="M71 0v700h232v-700h-232zM123 574q0 -26 18.5 -44t46.5 -18q26 0 44.5 16t18.5 46q0 29 -19 45t-45 17q-26 0 -45 -16t-19 -46zM188 534q-19 -1 -31.5 10t-11.5 30q0 20 13 30t30 10q41 -4 41 -40q0 -20 -12 -30t-29 -10zM247 477h-121v-26l53 -39l-53 -37v-26h121v22
h-87l53 39v4l-53 41h87v22zM226 243h-28v65h-21v-65h-28v67h-23v-90h121v90h-21v-67zM247 77v48q0 30 -18 45.5t-43 14.5q-25 0 -42.5 -15.5t-17.5 -44.5v-48h121zM148 125q-1 34 38 38q16 0 28 -9.5t12 -28.5v-26h-78v26z" />
    <glyph glyph-name="brokenbar" unicode="&#xa6;" horiz-adv-x="373" 
d="M71 0v700h232v-700h-232zM123 574q0 -26 18.5 -44t46.5 -18q26 0 44.5 16t18.5 46q0 29 -19 45t-45 17q-26 0 -45 -16t-19 -46zM188 534q-19 -1 -31.5 10t-11.5 30q0 20 13 30t30 10q41 -4 41 -40q0 -20 -12 -30t-29 -10zM247 477h-121v-26l53 -39l-53 -37v-26h121v22
h-87l53 39v4l-53 41h87v22zM226 243h-28v65h-21v-65h-28v67h-23v-90h121v90h-21v-67zM247 77v48q0 30 -18 45.5t-43 14.5q-25 0 -42.5 -15.5t-17.5 -44.5v-48h121zM148 125q-1 34 38 38q16 0 28 -9.5t12 -28.5v-26h-78v26z" />
    <glyph glyph-name="section" unicode="&#xa7;" 
d="M71 0v700h232v-700h-232zM123 574q0 -26 18.5 -44t46.5 -18q26 0 44.5 16t18.5 46q0 29 -19 45t-45 17q-26 0 -45 -16t-19 -46zM188 534q-19 -1 -31.5 10t-11.5 30q0 20 13 30t30 10q41 -4 41 -40q0 -20 -12 -30t-29 -10zM247 477h-121v-26l53 -39l-53 -37v-26h121v22
h-87l53 39v4l-53 41h87v22zM226 243h-28v65h-21v-65h-28v67h-23v-90h121v90h-21v-67zM247 77v48q0 30 -18 45.5t-43 14.5q-25 0 -42.5 -15.5t-17.5 -44.5v-48h121zM148 125q-1 34 38 38q16 0 28 -9.5t12 -28.5v-26h-78v26z" />
    <glyph glyph-name="dieresis" unicode="&#xa8;" horiz-adv-x="370" 
d="M439 914v-165h-500v165h500zM350 880q-19 0 -32 -13.5t-13 -33.5t11.5 -33.5t33.5 -13.5q23 0 35 13.5t12 33.5q0 21 -13.5 34t-33.5 13zM-4 787h31q47 0 47 44q0 19 -12.5 31.5t-34.5 12.5h-31v-88zM115 802v21h46v16h-46v20h46v16h-62v-88h62v15h-46zM280 787v88h-21
l-26 -36l-26 36h-21v-88h17v66l30 -39l31 40v-67h16zM320 833q0 13 8 22.5t22 9.5q15 0 23 -9.5t8 -22.5q0 -32 -31 -32q-14 0 -22 10t-8 22zM27 859q31 0 31 -28q0 -29 -31 -29h-16v57h16z" />
    <glyph glyph-name="copyright" unicode="&#xa9;" 
d="M71 0v700h232v-700h-232zM123 574q0 -26 18.5 -44t46.5 -18q26 0 44.5 16t18.5 46q0 29 -19 45t-45 17q-26 0 -45 -16t-19 -46zM188 534q-19 -1 -31.5 10t-11.5 30q0 20 13 30t30 10q41 -4 41 -40q0 -20 -12 -30t-29 -10zM247 477h-121v-26l53 -39l-53 -37v-26h121v22
h-87l53 39v4l-53 41h87v22zM226 243h-28v65h-21v-65h-28v67h-23v-90h121v90h-21v-67zM247 77v48q0 30 -18 45.5t-43 14.5q-25 0 -42.5 -15.5t-17.5 -44.5v-48h121zM148 125q-1 34 38 38q16 0 28 -9.5t12 -28.5v-26h-78v26z" />
    <glyph glyph-name="guillemotleft" unicode="&#xab;" horiz-adv-x="373" 
d="M71 0v700h232v-700h-232zM123 574q0 -26 18.5 -44t46.5 -18q26 0 44.5 16t18.5 46q0 29 -19 45t-45 17q-26 0 -45 -16t-19 -46zM188 534q-19 -1 -31.5 10t-11.5 30q0 20 13 30t30 10q41 -4 41 -40q0 -20 -12 -30t-29 -10zM247 477h-121v-26l53 -39l-53 -37v-26h121v22
h-87l53 39v4l-53 41h87v22zM226 243h-28v65h-21v-65h-28v67h-23v-90h121v90h-21v-67zM247 77v48q0 30 -18 45.5t-43 14.5q-25 0 -42.5 -15.5t-17.5 -44.5v-48h121zM148 125q-1 34 38 38q16 0 28 -9.5t12 -28.5v-26h-78v26z" />
    <glyph glyph-name="logicalnot" unicode="&#xac;" horiz-adv-x="377" 
d="M71 0v700h232v-700h-232zM123 574q0 -26 18.5 -44t46.5 -18q26 0 44.5 16t18.5 46q0 29 -19 45t-45 17q-26 0 -45 -16t-19 -46zM188 534q-19 -1 -31.5 10t-11.5 30q0 20 13 30t30 10q41 -4 41 -40q0 -20 -12 -30t-29 -10zM247 477h-121v-26l53 -39l-53 -37v-26h121v22
h-87l53 39v4l-53 41h87v22zM226 243h-28v65h-21v-65h-28v67h-23v-90h121v90h-21v-67zM247 77v48q0 30 -18 45.5t-43 14.5q-25 0 -42.5 -15.5t-17.5 -44.5v-48h121zM148 125q-1 34 38 38q16 0 28 -9.5t12 -28.5v-26h-78v26z" />
    <glyph glyph-name="registered" unicode="&#xae;" horiz-adv-x="373" 
d="M71 700h232v-700h-232v700zM123 574q0 -26 18.5 -44t46.5 -18q26 0 44.5 16t18.5 46q0 29 -19 45t-45 17q-26 0 -45 -16t-19 -46zM188 534q-19 -1 -31.5 10t-11.5 30q0 20 13 30t30 10q41 -4 41 -40q0 -20 -12 -30t-29 -10zM247 477h-121v-26l53 -39l-53 -37v-26h121v22
h-87l53 39v4l-53 41h87v22zM226 243h-28v65h-21v-65h-28v67h-23v-90h121v90h-21v-67zM247 77v48q0 30 -18 45.5t-43 14.5q-25 0 -42.5 -15.5t-17.5 -44.5v-48h121zM148 125q-1 34 38 38q16 0 28 -9.5t12 -28.5v-26h-78v26z" />
    <glyph glyph-name="macron" unicode="&#xaf;" horiz-adv-x="360" 
d="M-61 914h500v-165h-500v165zM350 880q-19 0 -32 -13.5t-13 -33.5t11.5 -33.5t33.5 -13.5q23 0 35 13.5t12 33.5q0 21 -13.5 34t-33.5 13zM-4 787h31q47 0 47 44q0 19 -12.5 31.5t-34.5 12.5h-31v-88zM115 802v21h46v16h-46v20h46v16h-62v-88h62v15h-46zM280 787v88h-21
l-26 -36l-26 36h-21v-88h17v66l30 -39l31 40v-67h16zM320 833q0 13 8 22.5t22 9.5q15 0 23 -9.5t8 -22.5q0 -32 -31 -32q-14 0 -22 10t-8 22zM11 859h16q31 0 31 -28q0 -29 -31 -29h-16v57z" />
    <glyph glyph-name="degree" unicode="&#xb0;" horiz-adv-x="430" 
d="M-42 914h500v-165h-500v165zM369 880q-19 0 -32 -13.5t-13 -33.5t11.5 -33.5t33.5 -13.5q23 0 35 13.5t12 33.5q0 21 -13.5 34t-33.5 13zM15 787h31q47 0 47 44q0 19 -12.5 31.5t-34.5 12.5h-31v-88zM134 802v21h46v16h-46v20h46v16h-62v-88h62v15h-46zM299 787v88h-21
l-26 -36l-26 36h-21v-88h17v66l30 -39l31 40v-67h16zM339 833q0 13 8 22.5t22 9.5q15 0 23 -9.5t8 -22.5q0 -32 -31 -32q-14 0 -22 10t-8 22zM30 859h16q31 0 31 -28q0 -29 -31 -29h-16v57z" />
    <glyph glyph-name="plusminus" unicode="&#xb1;" horiz-adv-x="373" 
d="M71 0v700h232v-700h-232zM123 574q0 -26 18.5 -44t46.5 -18q26 0 44.5 16t18.5 46q0 29 -19 45t-45 17q-26 0 -45 -16t-19 -46zM188 534q-19 -1 -31.5 10t-11.5 30q0 20 13 30t30 10q41 -4 41 -40q0 -20 -12 -30t-29 -10zM247 477h-121v-26l53 -39l-53 -37v-26h121v22
h-87l53 39v4l-53 41h87v22zM226 243h-28v65h-21v-65h-28v67h-23v-90h121v90h-21v-67zM247 77v48q0 30 -18 45.5t-43 14.5q-25 0 -42.5 -15.5t-17.5 -44.5v-48h121zM148 125q-1 34 38 38q16 0 28 -9.5t12 -28.5v-26h-78v26z" />
    <glyph glyph-name="two.sups" unicode="&#xb2;" 
d="M71 0v700h232v-700h-232zM123 574q0 -26 18.5 -44t46.5 -18q26 0 44.5 16t18.5 46q0 29 -19 45t-45 17q-26 0 -45 -16t-19 -46zM188 534q-19 -1 -31.5 10t-11.5 30q0 20 13 30t30 10q41 -4 41 -40q0 -20 -12 -30t-29 -10zM247 477h-121v-26l53 -39l-53 -37v-26h121v22
h-87l53 39v4l-53 41h87v22zM226 243h-28v65h-21v-65h-28v67h-23v-90h121v90h-21v-67zM247 77v48q0 30 -18 45.5t-43 14.5q-25 0 -42.5 -15.5t-17.5 -44.5v-48h121zM148 125q-1 34 38 38q16 0 28 -9.5t12 -28.5v-26h-78v26z" />
    <glyph glyph-name="three.sups" unicode="&#xb3;" 
d="M71 0v700h232v-700h-232zM123 574q0 -26 18.5 -44t46.5 -18q26 0 44.5 16t18.5 46q0 29 -19 45t-45 17q-26 0 -45 -16t-19 -46zM188 534q-19 -1 -31.5 10t-11.5 30q0 20 13 30t30 10q41 -4 41 -40q0 -20 -12 -30t-29 -10zM247 477h-121v-26l53 -39l-53 -37v-26h121v22
h-87l53 39v4l-53 41h87v22zM226 243h-28v65h-21v-65h-28v67h-23v-90h121v90h-21v-67zM247 77v48q0 30 -18 45.5t-43 14.5q-25 0 -42.5 -15.5t-17.5 -44.5v-48h121zM148 125q-1 34 38 38q16 0 28 -9.5t12 -28.5v-26h-78v26z" />
    <glyph glyph-name="acute" unicode="&#xb4;" horiz-adv-x="270" 
d="M-134 914h500v-165h-500v165zM277 880q-19 0 -32 -13.5t-13 -33.5t11.5 -33.5t33.5 -13.5q23 0 35 13.5t12 33.5q0 21 -13.5 34t-33.5 13zM-77 787h31q47 0 47 44q0 19 -12.5 31.5t-34.5 12.5h-31v-88zM42 802v21h46v16h-46v20h46v16h-62v-88h62v15h-46zM207 787v88h-21
l-26 -36l-26 36h-21v-88h17v66l30 -39l31 40v-67h16zM247 833q0 13 8 22.5t22 9.5q15 0 23 -9.5t8 -22.5q0 -32 -31 -32q-14 0 -22 10t-8 22zM-62 859h16q31 0 31 -28q0 -29 -31 -29h-16v57z" />
    <glyph glyph-name="paragraph" unicode="&#xb6;" 
d="M71 0v700h232v-700h-232zM123 574q0 -26 18.5 -44t46.5 -18q26 0 44.5 16t18.5 46q0 29 -19 45t-45 17q-26 0 -45 -16t-19 -46zM188 534q-19 -1 -31.5 10t-11.5 30q0 20 13 30t30 10q41 -4 41 -40q0 -20 -12 -30t-29 -10zM247 477h-121v-26l53 -39l-53 -37v-26h121v22
h-87l53 39v4l-53 41h87v22zM226 243h-28v65h-21v-65h-28v67h-23v-90h121v90h-21v-67zM247 77v48q0 30 -18 45.5t-43 14.5q-25 0 -42.5 -15.5t-17.5 -44.5v-48h121zM148 125q-1 34 38 38q16 0 28 -9.5t12 -28.5v-26h-78v26z" />
    <glyph glyph-name="periodcentered" unicode="&#xb7;" 
d="M71 0v700h232v-700h-232zM123 574q0 -26 18.5 -44t46.5 -18q26 0 44.5 16t18.5 46q0 29 -19 45t-45 17q-26 0 -45 -16t-19 -46zM188 534q-19 -1 -31.5 10t-11.5 30q0 20 13 30t30 10q41 -4 41 -40q0 -20 -12 -30t-29 -10zM247 477h-121v-26l53 -39l-53 -37v-26h121v22
h-87l53 39v4l-53 41h87v22zM226 243h-28v65h-21v-65h-28v67h-23v-90h121v90h-21v-67zM247 77v48q0 30 -18 45.5t-43 14.5q-25 0 -42.5 -15.5t-17.5 -44.5v-48h121zM148 125q-1 34 38 38q16 0 28 -9.5t12 -28.5v-26h-78v26z" />
    <glyph glyph-name="cedilla" unicode="&#xb8;" horiz-adv-x="225" 
d="M-147 -27h500v-165h-500v165zM264 -61q-19 0 -32 -13.5t-13 -33.5t11.5 -33.5t33.5 -13.5q23 0 35 13.5t12 33.5q0 21 -13.5 34t-33.5 13zM-90 -154h31q47 0 47 44q0 19 -12.5 31.5t-34.5 12.5h-31v-88zM29 -139v21h46v16h-46v20h46v16h-62v-88h62v15h-46zM194 -154v88
h-21l-26 -36l-26 36h-21v-88h17v66l30 -39l31 40v-67h16zM234 -108q0 13 8 22.5t22 9.5q15 0 23 -9.5t8 -22.5q0 -32 -31 -32q-14 0 -22 10t-8 22zM-75 -82h16q31 0 31 -28q0 -29 -31 -29h-16v57z" />
    <glyph glyph-name="one.sups" unicode="&#xb9;" 
d="M71 0v700h232v-700h-232zM123 574q0 -26 18.5 -44t46.5 -18q26 0 44.5 16t18.5 46q0 29 -19 45t-45 17q-26 0 -45 -16t-19 -46zM188 534q-19 -1 -31.5 10t-11.5 30q0 20 13 30t30 10q41 -4 41 -40q0 -20 -12 -30t-29 -10zM247 477h-121v-26l53 -39l-53 -37v-26h121v22
h-87l53 39v4l-53 41h87v22zM226 243h-28v65h-21v-65h-28v67h-23v-90h121v90h-21v-67zM247 77v48q0 30 -18 45.5t-43 14.5q-25 0 -42.5 -15.5t-17.5 -44.5v-48h121zM148 125q-1 34 38 38q16 0 28 -9.5t12 -28.5v-26h-78v26z" />
    <glyph glyph-name="guillemotright" unicode="&#xbb;" 
d="M71 0v700h232v-700h-232zM123 574q0 -26 18.5 -44t46.5 -18q26 0 44.5 16t18.5 46q0 29 -19 45t-45 17q-26 0 -45 -16t-19 -46zM188 534q-19 -1 -31.5 10t-11.5 30q0 20 13 30t30 10q41 -4 41 -40q0 -20 -12 -30t-29 -10zM247 477h-121v-26l53 -39l-53 -37v-26h121v22
h-87l53 39v4l-53 41h87v22zM226 243h-28v65h-21v-65h-28v67h-23v-90h121v90h-21v-67zM247 77v48q0 30 -18 45.5t-43 14.5q-25 0 -42.5 -15.5t-17.5 -44.5v-48h121zM148 125q-1 34 38 38q16 0 28 -9.5t12 -28.5v-26h-78v26z" />
    <glyph glyph-name="onequarter" unicode="&#xbc;" 
d="M71 0v700h232v-700h-232zM123 574q0 -26 18.5 -44t46.5 -18q26 0 44.5 16t18.5 46q0 29 -19 45t-45 17q-26 0 -45 -16t-19 -46zM188 534q-19 -1 -31.5 10t-11.5 30q0 20 13 30t30 10q41 -4 41 -40q0 -20 -12 -30t-29 -10zM247 477h-121v-26l53 -39l-53 -37v-26h121v22
h-87l53 39v4l-53 41h87v22zM226 243h-28v65h-21v-65h-28v67h-23v-90h121v90h-21v-67zM247 77v48q0 30 -18 45.5t-43 14.5q-25 0 -42.5 -15.5t-17.5 -44.5v-48h121zM148 125q-1 34 38 38q16 0 28 -9.5t12 -28.5v-26h-78v26z" />
    <glyph glyph-name="onehalf" unicode="&#xbd;" 
d="M71 0v700h232v-700h-232zM123 574q0 -26 18.5 -44t46.5 -18q26 0 44.5 16t18.5 46q0 29 -19 45t-45 17q-26 0 -45 -16t-19 -46zM188 534q-19 -1 -31.5 10t-11.5 30q0 20 13 30t30 10q41 -4 41 -40q0 -20 -12 -30t-29 -10zM247 477h-121v-26l53 -39l-53 -37v-26h121v22
h-87l53 39v4l-53 41h87v22zM226 243h-28v65h-21v-65h-28v67h-23v-90h121v90h-21v-67zM247 77v48q0 30 -18 45.5t-43 14.5q-25 0 -42.5 -15.5t-17.5 -44.5v-48h121zM148 125q-1 34 38 38q16 0 28 -9.5t12 -28.5v-26h-78v26z" />
    <glyph glyph-name="threequarters" unicode="&#xbe;" 
d="M71 0v700h232v-700h-232zM123 574q0 -26 18.5 -44t46.5 -18q26 0 44.5 16t18.5 46q0 29 -19 45t-45 17q-26 0 -45 -16t-19 -46zM188 534q-19 -1 -31.5 10t-11.5 30q0 20 13 30t30 10q41 -4 41 -40q0 -20 -12 -30t-29 -10zM247 477h-121v-26l53 -39l-53 -37v-26h121v22
h-87l53 39v4l-53 41h87v22zM226 243h-28v65h-21v-65h-28v67h-23v-90h121v90h-21v-67zM247 77v48q0 30 -18 45.5t-43 14.5q-25 0 -42.5 -15.5t-17.5 -44.5v-48h121zM148 125q-1 34 38 38q16 0 28 -9.5t12 -28.5v-26h-78v26z" />
    <glyph glyph-name="questiondown" unicode="&#xbf;" 
d="M71 0v700h232v-700h-232zM123 574q0 -26 18.5 -44t46.5 -18q26 0 44.5 16t18.5 46q0 29 -19 45t-45 17q-26 0 -45 -16t-19 -46zM188 534q-19 -1 -31.5 10t-11.5 30q0 20 13 30t30 10q41 -4 41 -40q0 -20 -12 -30t-29 -10zM247 477h-121v-26l53 -39l-53 -37v-26h121v22
h-87l53 39v4l-53 41h87v22zM226 243h-28v65h-21v-65h-28v67h-23v-90h121v90h-21v-67zM247 77v48q0 30 -18 45.5t-43 14.5q-25 0 -42.5 -15.5t-17.5 -44.5v-48h121zM148 125q-1 34 38 38q16 0 28 -9.5t12 -28.5v-26h-78v26z" />
    <glyph glyph-name="Agrave" unicode="&#xc0;" horiz-adv-x="752" 
d="M90 914h500v-165h-500v165zM501 880q-19 0 -32 -13.5t-13 -33.5t11.5 -33.5t33.5 -13.5q23 0 35 13.5t12 33.5q0 21 -13.5 34t-33.5 13zM147 787h31q47 0 47 44q0 19 -12.5 31.5t-34.5 12.5h-31v-88zM266 802v21h46v16h-46v20h46v16h-62v-88h62v15h-46zM431 787v88h-21
l-26 -36l-26 36h-21v-88h17v66l30 -39l31 40v-67h16zM471 833q0 13 8 22.5t22 9.5q15 0 23 -9.5t8 -22.5q0 -32 -31 -32q-14 0 -22 10t-8 22zM162 859h16q31 0 31 -28q0 -29 -31 -29h-16v57zM1 0l275 700h200l275 -700h-190l-40 110h-290l-40 -110h-190zM286 260h180
l-72 202q-12 34 -18 71q-6 -37 -18 -71z" />
    <glyph glyph-name="Aacute" unicode="&#xc1;" horiz-adv-x="752" 
d="M142 914h500v-165h-500v165zM553 880q-19 0 -32 -13.5t-13 -33.5t11.5 -33.5t33.5 -13.5q23 0 35 13.5t12 33.5q0 21 -13.5 34t-33.5 13zM199 787h31q47 0 47 44q0 19 -12.5 31.5t-34.5 12.5h-31v-88zM318 802v21h46v16h-46v20h46v16h-62v-88h62v15h-46zM483 787v88h-21
l-26 -36l-26 36h-21v-88h17v66l30 -39l31 40v-67h16zM523 833q0 13 8 22.5t22 9.5q15 0 23 -9.5t8 -22.5q0 -32 -31 -32q-14 0 -22 10t-8 22zM214 859h16q31 0 31 -28q0 -29 -31 -29h-16v57zM1 0l275 700h200l275 -700h-190l-40 110h-290l-40 -110h-190zM286 260h180
l-72 202q-12 34 -18 71q-6 -37 -18 -71z" />
    <glyph glyph-name="Acircumflex" unicode="&#xc2;" horiz-adv-x="752" 
d="M123 914h500v-165h-500v165zM534 880q-19 0 -32 -13.5t-13 -33.5t11.5 -33.5t33.5 -13.5q23 0 35 13.5t12 33.5q0 21 -13.5 34t-33.5 13zM180 787h31q47 0 47 44q0 19 -12.5 31.5t-34.5 12.5h-31v-88zM299 802v21h46v16h-46v20h46v16h-62v-88h62v15h-46zM464 787v88h-21
l-26 -36l-26 36h-21v-88h17v66l30 -39l31 40v-67h16zM504 833q0 13 8 22.5t22 9.5q15 0 23 -9.5t8 -22.5q0 -32 -31 -32q-14 0 -22 10t-8 22zM195 859h16q31 0 31 -28q0 -29 -31 -29h-16v57zM1 0l275 700h200l275 -700h-190l-40 110h-290l-40 -110h-190zM286 260h180
l-72 202q-12 34 -18 71q-6 -37 -18 -71z" />
    <glyph glyph-name="Atilde" unicode="&#xc3;" horiz-adv-x="752" 
d="M120 914h500v-165h-500v165zM531 880q-19 0 -32 -13.5t-13 -33.5t11.5 -33.5t33.5 -13.5q23 0 35 13.5t12 33.5q0 21 -13.5 34t-33.5 13zM177 787h31q47 0 47 44q0 19 -12.5 31.5t-34.5 12.5h-31v-88zM296 802v21h46v16h-46v20h46v16h-62v-88h62v15h-46zM461 787v88h-21
l-26 -36l-26 36h-21v-88h17v66l30 -39l31 40v-67h16zM501 833q0 13 8 22.5t22 9.5q15 0 23 -9.5t8 -22.5q0 -32 -31 -32q-14 0 -22 10t-8 22zM192 859h16q31 0 31 -28q0 -29 -31 -29h-16v57zM1 0l275 700h200l275 -700h-190l-40 110h-290l-40 -110h-190zM286 260h180
l-72 202q-12 34 -18 71q-6 -37 -18 -71z" />
    <glyph glyph-name="Adieresis" unicode="&#xc4;" horiz-adv-x="752" 
d="M630 914v-165h-500v165h500zM541 880q-19 0 -32 -13.5t-13 -33.5t11.5 -33.5t33.5 -13.5q23 0 35 13.5t12 33.5q0 21 -13.5 34t-33.5 13zM187 787h31q47 0 47 44q0 19 -12.5 31.5t-34.5 12.5h-31v-88zM306 802v21h46v16h-46v20h46v16h-62v-88h62v15h-46zM471 787v88h-21
l-26 -36l-26 36h-21v-88h17v66l30 -39l31 40v-67h16zM511 833q0 13 8 22.5t22 9.5q15 0 23 -9.5t8 -22.5q0 -32 -31 -32q-14 0 -22 10t-8 22zM218 859q31 0 31 -28q0 -29 -31 -29h-16v57h16zM1 0l275 700h200l275 -700h-190l-40 110h-290l-40 -110h-190zM286 260h180
l-72 202q-12 34 -18 71q-6 -37 -18 -71z" />
    <glyph glyph-name="Aring" unicode="&#xc5;" horiz-adv-x="752" 
d="M140 914h500v-165h-500v165zM551 880q-19 0 -32 -13.5t-13 -33.5t11.5 -33.5t33.5 -13.5q23 0 35 13.5t12 33.5q0 21 -13.5 34t-33.5 13zM197 787h31q47 0 47 44q0 19 -12.5 31.5t-34.5 12.5h-31v-88zM316 802v21h46v16h-46v20h46v16h-62v-88h62v15h-46zM481 787v88h-21
l-26 -36l-26 36h-21v-88h17v66l30 -39l31 40v-67h16zM521 833q0 13 8 22.5t22 9.5q15 0 23 -9.5t8 -22.5q0 -32 -31 -32q-14 0 -22 10t-8 22zM212 859h16q31 0 31 -28q0 -29 -31 -29h-16v57zM1 0l275 700h200l275 -700h-190l-40 110h-290l-40 -110h-190zM286 260h180
l-72 202q-12 34 -18 71q-6 -37 -18 -71z" />
    <glyph glyph-name="AE" unicode="&#xc6;" horiz-adv-x="373" 
d="M71 0v700h232v-700h-232zM123 574q0 -26 18.5 -44t46.5 -18q26 0 44.5 16t18.5 46q0 29 -19 45t-45 17q-26 0 -45 -16t-19 -46zM188 534q-19 -1 -31.5 10t-11.5 30q0 20 13 30t30 10q41 -4 41 -40q0 -20 -12 -30t-29 -10zM247 477h-121v-26l53 -39l-53 -37v-26h121v22
h-87l53 39v4l-53 41h87v22zM226 243h-28v65h-21v-65h-28v67h-23v-90h121v90h-21v-67zM247 77v48q0 30 -18 45.5t-43 14.5q-25 0 -42.5 -15.5t-17.5 -44.5v-48h121zM148 125q-1 34 38 38q16 0 28 -9.5t12 -28.5v-26h-78v26z" />
    <glyph glyph-name="Ccedilla" unicode="&#xc7;" horiz-adv-x="655" 
d="M32 340q0 95 32 169t87 118t121 66t139 22q110 0 203 -44v-175q-68 57 -171 57q-92 0 -156.5 -53.5t-64.5 -159.5q0 -95 64 -143.5t155 -48.5q115 0 178 61v-180q-93 -44 -204 -44q-75 0 -141.5 21t-121.5 62.5t-87.5 111.5t-32.5 160z" />
    <glyph glyph-name="Egrave" unicode="&#xc8;" horiz-adv-x="617" 
d="M42 914h500v-165h-500v165zM453 880q-19 0 -32 -13.5t-13 -33.5t11.5 -33.5t33.5 -13.5q23 0 35 13.5t12 33.5q0 21 -13.5 34t-33.5 13zM99 787h31q47 0 47 44q0 19 -12.5 31.5t-34.5 12.5h-31v-88zM218 802v21h46v16h-46v20h46v16h-62v-88h62v15h-46zM383 787v88h-21
l-26 -36l-26 36h-21v-88h17v66l30 -39l31 40v-67h16zM423 833q0 13 8 22.5t22 9.5q15 0 23 -9.5t8 -22.5q0 -32 -31 -32q-14 0 -22 10t-8 22zM114 859h16q31 0 31 -28q0 -29 -31 -29h-16v57zM570 700v-160h-319v-107h289v-159h-289v-114h325v-160h-510v700h504z" />
    <glyph glyph-name="Eacute" unicode="&#xc9;" horiz-adv-x="617" 
d="M94 914h500v-165h-500v165zM505 880q-19 0 -32 -13.5t-13 -33.5t11.5 -33.5t33.5 -13.5q23 0 35 13.5t12 33.5q0 21 -13.5 34t-33.5 13zM151 787h31q47 0 47 44q0 19 -12.5 31.5t-34.5 12.5h-31v-88zM270 802v21h46v16h-46v20h46v16h-62v-88h62v15h-46zM435 787v88h-21
l-26 -36l-26 36h-21v-88h17v66l30 -39l31 40v-67h16zM475 833q0 13 8 22.5t22 9.5q15 0 23 -9.5t8 -22.5q0 -32 -31 -32q-14 0 -22 10t-8 22zM166 859h16q31 0 31 -28q0 -29 -31 -29h-16v57zM570 700v-160h-319v-107h289v-159h-289v-114h325v-160h-510v700h504z" />
    <glyph glyph-name="Ecircumflex" unicode="&#xca;" horiz-adv-x="617" 
d="M75 914h500v-165h-500v165zM486 880q-19 0 -32 -13.5t-13 -33.5t11.5 -33.5t33.5 -13.5q23 0 35 13.5t12 33.5q0 21 -13.5 34t-33.5 13zM132 787h31q47 0 47 44q0 19 -12.5 31.5t-34.5 12.5h-31v-88zM251 802v21h46v16h-46v20h46v16h-62v-88h62v15h-46zM416 787v88h-21
l-26 -36l-26 36h-21v-88h17v66l30 -39l31 40v-67h16zM456 833q0 13 8 22.5t22 9.5q15 0 23 -9.5t8 -22.5q0 -32 -31 -32q-14 0 -22 10t-8 22zM147 859h16q31 0 31 -28q0 -29 -31 -29h-16v57zM570 700v-160h-319v-107h289v-159h-289v-114h325v-160h-510v700h504z" />
    <glyph glyph-name="Edieresis" unicode="&#xcb;" horiz-adv-x="617" 
d="M582 914v-165h-500v165h500zM493 880q-19 0 -32 -13.5t-13 -33.5t11.5 -33.5t33.5 -13.5q23 0 35 13.5t12 33.5q0 21 -13.5 34t-33.5 13zM139 787h31q47 0 47 44q0 19 -12.5 31.5t-34.5 12.5h-31v-88zM258 802v21h46v16h-46v20h46v16h-62v-88h62v15h-46zM423 787v88h-21
l-26 -36l-26 36h-21v-88h17v66l30 -39l31 40v-67h16zM463 833q0 13 8 22.5t22 9.5q15 0 23 -9.5t8 -22.5q0 -32 -31 -32q-14 0 -22 10t-8 22zM170 859q31 0 31 -28q0 -29 -31 -29h-16v57h16zM570 700v-160h-319v-107h289v-159h-289v-114h325v-160h-510v700h504z" />
    <glyph glyph-name="Igrave" unicode="&#xcc;" horiz-adv-x="317" 
d="M-127 914h500v-165h-500v165zM284 880q-19 0 -32 -13.5t-13 -33.5t11.5 -33.5t33.5 -13.5q23 0 35 13.5t12 33.5q0 21 -13.5 34t-33.5 13zM-70 787h31q47 0 47 44q0 19 -12.5 31.5t-34.5 12.5h-31v-88zM49 802v21h46v16h-46v20h46v16h-62v-88h62v15h-46zM214 787v88h-21
l-26 -36l-26 36h-21v-88h17v66l30 -39l31 40v-67h16zM254 833q0 13 8 22.5t22 9.5q15 0 23 -9.5t8 -22.5q0 -32 -31 -32q-14 0 -22 10t-8 22zM-55 859h16q31 0 31 -28q0 -29 -31 -29h-16v57zM251 700v-700h-185v700h185z" />
    <glyph glyph-name="Iacute" unicode="&#xcd;" horiz-adv-x="317" 
d="M-75 914h500v-165h-500v165zM336 880q-19 0 -32 -13.5t-13 -33.5t11.5 -33.5t33.5 -13.5q23 0 35 13.5t12 33.5q0 21 -13.5 34t-33.5 13zM-18 787h31q47 0 47 44q0 19 -12.5 31.5t-34.5 12.5h-31v-88zM101 802v21h46v16h-46v20h46v16h-62v-88h62v15h-46zM266 787v88h-21
l-26 -36l-26 36h-21v-88h17v66l30 -39l31 40v-67h16zM306 833q0 13 8 22.5t22 9.5q15 0 23 -9.5t8 -22.5q0 -32 -31 -32q-14 0 -22 10t-8 22zM-3 859h16q31 0 31 -28q0 -29 -31 -29h-16v57zM251 700v-700h-185v700h185z" />
    <glyph glyph-name="Icircumflex" unicode="&#xce;" horiz-adv-x="317" 
d="M-94 914h500v-165h-500v165zM317 880q-19 0 -32 -13.5t-13 -33.5t11.5 -33.5t33.5 -13.5q23 0 35 13.5t12 33.5q0 21 -13.5 34t-33.5 13zM-37 787h31q47 0 47 44q0 19 -12.5 31.5t-34.5 12.5h-31v-88zM82 802v21h46v16h-46v20h46v16h-62v-88h62v15h-46zM247 787v88h-21
l-26 -36l-26 36h-21v-88h17v66l30 -39l31 40v-67h16zM287 833q0 13 8 22.5t22 9.5q15 0 23 -9.5t8 -22.5q0 -32 -31 -32q-14 0 -22 10t-8 22zM-22 859h16q31 0 31 -28q0 -29 -31 -29h-16v57zM251 700v-700h-185v700h185z" />
    <glyph glyph-name="Idieresis" unicode="&#xcf;" horiz-adv-x="317" 
d="M413 914v-165h-500v165h500zM324 880q-19 0 -32 -13.5t-13 -33.5t11.5 -33.5t33.5 -13.5q23 0 35 13.5t12 33.5q0 21 -13.5 34t-33.5 13zM-30 787h31q47 0 47 44q0 19 -12.5 31.5t-34.5 12.5h-31v-88zM89 802v21h46v16h-46v20h46v16h-62v-88h62v15h-46zM254 787v88h-21
l-26 -36l-26 36h-21v-88h17v66l30 -39l31 40v-67h16zM294 833q0 13 8 22.5t22 9.5q15 0 23 -9.5t8 -22.5q0 -32 -31 -32q-14 0 -22 10t-8 22zM1 859q31 0 31 -28q0 -29 -31 -29h-16v57h16zM251 700v-700h-185v700h185z" />
    <glyph glyph-name="Eth" unicode="&#xd0;" horiz-adv-x="760" 
d="M361 700q181 0 273.5 -95t92.5 -255t-92.5 -255t-273.5 -95h-279v700h279zM361 160q176 0 176 190t-176 190h-94v-380h94z" />
    <glyph glyph-name="Ntilde" unicode="&#xd1;" horiz-adv-x="762" 
d="M125 914h500v-165h-500v165zM536 880q-19 0 -32 -13.5t-13 -33.5t11.5 -33.5t33.5 -13.5q23 0 35 13.5t12 33.5q0 21 -13.5 34t-33.5 13zM182 787h31q47 0 47 44q0 19 -12.5 31.5t-34.5 12.5h-31v-88zM301 802v21h46v16h-46v20h46v16h-62v-88h62v15h-46zM466 787v88h-21
l-26 -36l-26 36h-21v-88h17v66l30 -39l31 40v-67h16zM506 833q0 13 8 22.5t22 9.5q15 0 23 -9.5t8 -22.5q0 -32 -31 -32q-14 0 -22 10t-8 22zM197 859h16q31 0 31 -28q0 -29 -31 -29h-16v57zM66 0v700h175l274 -402q-4 44 -4 116v286h185v-700h-175l-274 401q4 -44 4 -115
v-286h-185z" />
    <glyph glyph-name="Ograve" unicode="&#xd2;" horiz-adv-x="812" 
d="M120 914h500v-165h-500v165zM531 880q-19 0 -32 -13.5t-13 -33.5t11.5 -33.5t33.5 -13.5q23 0 35 13.5t12 33.5q0 21 -13.5 34t-33.5 13zM177 787h31q47 0 47 44q0 19 -12.5 31.5t-34.5 12.5h-31v-88zM296 802v21h46v16h-46v20h46v16h-62v-88h62v15h-46zM461 787v88h-21
l-26 -36l-26 36h-21v-88h17v66l30 -39l31 40v-67h16zM501 833q0 13 8 22.5t22 9.5q15 0 23 -9.5t8 -22.5q0 -32 -31 -32q-14 0 -22 10t-8 22zM192 859h16q31 0 31 -28q0 -29 -31 -29h-16v57zM31 350q0 155 98 260t277 105t277 -105t98 -260t-98 -260t-277 -105t-277 105
t-98 260zM591 350q0 87 -48.5 141t-136.5 54t-136.5 -54t-48.5 -141t48.5 -141t136.5 -54t136.5 54t48.5 141z" />
    <glyph glyph-name="Oacute" unicode="&#xd3;" horiz-adv-x="812" 
d="M172 914h500v-165h-500v165zM583 880q-19 0 -32 -13.5t-13 -33.5t11.5 -33.5t33.5 -13.5q23 0 35 13.5t12 33.5q0 21 -13.5 34t-33.5 13zM229 787h31q47 0 47 44q0 19 -12.5 31.5t-34.5 12.5h-31v-88zM348 802v21h46v16h-46v20h46v16h-62v-88h62v15h-46zM513 787v88h-21
l-26 -36l-26 36h-21v-88h17v66l30 -39l31 40v-67h16zM553 833q0 13 8 22.5t22 9.5q15 0 23 -9.5t8 -22.5q0 -32 -31 -32q-14 0 -22 10t-8 22zM244 859h16q31 0 31 -28q0 -29 -31 -29h-16v57zM31 350q0 155 98 260t277 105t277 -105t98 -260t-98 -260t-277 -105t-277 105
t-98 260zM591 350q0 87 -48.5 141t-136.5 54t-136.5 -54t-48.5 -141t48.5 -141t136.5 -54t136.5 54t48.5 141z" />
    <glyph glyph-name="Ocircumflex" unicode="&#xd4;" horiz-adv-x="812" 
d="M153 914h500v-165h-500v165zM564 880q-19 0 -32 -13.5t-13 -33.5t11.5 -33.5t33.5 -13.5q23 0 35 13.5t12 33.5q0 21 -13.5 34t-33.5 13zM210 787h31q47 0 47 44q0 19 -12.5 31.5t-34.5 12.5h-31v-88zM329 802v21h46v16h-46v20h46v16h-62v-88h62v15h-46zM494 787v88h-21
l-26 -36l-26 36h-21v-88h17v66l30 -39l31 40v-67h16zM534 833q0 13 8 22.5t22 9.5q15 0 23 -9.5t8 -22.5q0 -32 -31 -32q-14 0 -22 10t-8 22zM225 859h16q31 0 31 -28q0 -29 -31 -29h-16v57zM31 350q0 155 98 260t277 105t277 -105t98 -260t-98 -260t-277 -105t-277 105
t-98 260zM591 350q0 87 -48.5 141t-136.5 54t-136.5 -54t-48.5 -141t48.5 -141t136.5 -54t136.5 54t48.5 141z" />
    <glyph glyph-name="Otilde" unicode="&#xd5;" horiz-adv-x="812" 
d="M150 914h500v-165h-500v165zM561 880q-19 0 -32 -13.5t-13 -33.5t11.5 -33.5t33.5 -13.5q23 0 35 13.5t12 33.5q0 21 -13.5 34t-33.5 13zM207 787h31q47 0 47 44q0 19 -12.5 31.5t-34.5 12.5h-31v-88zM326 802v21h46v16h-46v20h46v16h-62v-88h62v15h-46zM491 787v88h-21
l-26 -36l-26 36h-21v-88h17v66l30 -39l31 40v-67h16zM531 833q0 13 8 22.5t22 9.5q15 0 23 -9.5t8 -22.5q0 -32 -31 -32q-14 0 -22 10t-8 22zM222 859h16q31 0 31 -28q0 -29 -31 -29h-16v57zM31 350q0 155 98 260t277 105t277 -105t98 -260t-98 -260t-277 -105t-277 105
t-98 260zM591 350q0 87 -48.5 141t-136.5 54t-136.5 -54t-48.5 -141t48.5 -141t136.5 -54t136.5 54t48.5 141z" />
    <glyph glyph-name="Odieresis" unicode="&#xd6;" horiz-adv-x="812" 
d="M660 914v-165h-500v165h500zM571 880q-19 0 -32 -13.5t-13 -33.5t11.5 -33.5t33.5 -13.5q23 0 35 13.5t12 33.5q0 21 -13.5 34t-33.5 13zM217 787h31q47 0 47 44q0 19 -12.5 31.5t-34.5 12.5h-31v-88zM336 802v21h46v16h-46v20h46v16h-62v-88h62v15h-46zM501 787v88h-21
l-26 -36l-26 36h-21v-88h17v66l30 -39l31 40v-67h16zM541 833q0 13 8 22.5t22 9.5q15 0 23 -9.5t8 -22.5q0 -32 -31 -32q-14 0 -22 10t-8 22zM248 859q31 0 31 -28q0 -29 -31 -29h-16v57h16zM31 350q0 155 98 260t277 105t277 -105t98 -260t-98 -260t-277 -105t-277 105
t-98 260zM591 350q0 87 -48.5 141t-136.5 54t-136.5 -54t-48.5 -141t48.5 -141t136.5 -54t136.5 54t48.5 141z" />
    <glyph glyph-name="multiply" unicode="&#xd7;" 
d="M71 0v700h232v-700h-232zM123 574q0 -26 18.5 -44t46.5 -18q26 0 44.5 16t18.5 46q0 29 -19 45t-45 17q-26 0 -45 -16t-19 -46zM188 534q-19 -1 -31.5 10t-11.5 30q0 20 13 30t30 10q41 -4 41 -40q0 -20 -12 -30t-29 -10zM247 477h-121v-26l53 -39l-53 -37v-26h121v22
h-87l53 39v4l-53 41h87v22zM226 243h-28v65h-21v-65h-28v67h-23v-90h121v90h-21v-67zM247 77v48q0 30 -18 45.5t-43 14.5q-25 0 -42.5 -15.5t-17.5 -44.5v-48h121zM148 125q-1 34 38 38q16 0 28 -9.5t12 -28.5v-26h-78v26z" />
    <glyph glyph-name="Oslash" unicode="&#xd8;" horiz-adv-x="812" 
d="M31 350q0 155 98 260t277 105t277 -105t98 -260t-98 -260t-277 -105t-277 105t-98 260zM591 350q0 87 -48.5 141t-136.5 54t-136.5 -54t-48.5 -141t48.5 -141t136.5 -54t136.5 54t48.5 141z" />
    <glyph glyph-name="Ugrave" unicode="&#xd9;" horiz-adv-x="748" 
d="M88 914h500v-165h-500v165zM499 880q-19 0 -32 -13.5t-13 -33.5t11.5 -33.5t33.5 -13.5q23 0 35 13.5t12 33.5q0 21 -13.5 34t-33.5 13zM145 787h31q47 0 47 44q0 19 -12.5 31.5t-34.5 12.5h-31v-88zM264 802v21h46v16h-46v20h46v16h-62v-88h62v15h-46zM429 787v88h-21
l-26 -36l-26 36h-21v-88h17v66l30 -39l31 40v-67h16zM469 833q0 13 8 22.5t22 9.5q15 0 23 -9.5t8 -22.5q0 -32 -31 -32q-14 0 -22 10t-8 22zM160 859h16q31 0 31 -28q0 -29 -31 -29h-16v57zM689 700v-433q0 -76 -27 -132.5t-73 -88t-100 -46.5t-115 -15t-115 15t-100 46.5
t-73 88t-27 132.5v433h185v-423q0 -127 130 -127t130 127v423h185z" />
    <glyph glyph-name="Uacute" unicode="&#xda;" horiz-adv-x="748" 
d="M140 914h500v-165h-500v165zM551 880q-19 0 -32 -13.5t-13 -33.5t11.5 -33.5t33.5 -13.5q23 0 35 13.5t12 33.5q0 21 -13.5 34t-33.5 13zM197 787h31q47 0 47 44q0 19 -12.5 31.5t-34.5 12.5h-31v-88zM316 802v21h46v16h-46v20h46v16h-62v-88h62v15h-46zM481 787v88h-21
l-26 -36l-26 36h-21v-88h17v66l30 -39l31 40v-67h16zM521 833q0 13 8 22.5t22 9.5q15 0 23 -9.5t8 -22.5q0 -32 -31 -32q-14 0 -22 10t-8 22zM212 859h16q31 0 31 -28q0 -29 -31 -29h-16v57zM689 700v-433q0 -76 -27 -132.5t-73 -88t-100 -46.5t-115 -15t-115 15t-100 46.5
t-73 88t-27 132.5v433h185v-423q0 -127 130 -127t130 127v423h185z" />
    <glyph glyph-name="Ucircumflex" unicode="&#xdb;" horiz-adv-x="748" 
d="M121 914h500v-165h-500v165zM532 880q-19 0 -32 -13.5t-13 -33.5t11.5 -33.5t33.5 -13.5q23 0 35 13.5t12 33.5q0 21 -13.5 34t-33.5 13zM178 787h31q47 0 47 44q0 19 -12.5 31.5t-34.5 12.5h-31v-88zM297 802v21h46v16h-46v20h46v16h-62v-88h62v15h-46zM462 787v88h-21
l-26 -36l-26 36h-21v-88h17v66l30 -39l31 40v-67h16zM502 833q0 13 8 22.5t22 9.5q15 0 23 -9.5t8 -22.5q0 -32 -31 -32q-14 0 -22 10t-8 22zM193 859h16q31 0 31 -28q0 -29 -31 -29h-16v57zM689 700v-433q0 -76 -27 -132.5t-73 -88t-100 -46.5t-115 -15t-115 15t-100 46.5
t-73 88t-27 132.5v433h185v-423q0 -127 130 -127t130 127v423h185z" />
    <glyph glyph-name="Udieresis" unicode="&#xdc;" horiz-adv-x="748" 
d="M628 914v-165h-500v165h500zM539 880q-19 0 -32 -13.5t-13 -33.5t11.5 -33.5t33.5 -13.5q23 0 35 13.5t12 33.5q0 21 -13.5 34t-33.5 13zM185 787h31q47 0 47 44q0 19 -12.5 31.5t-34.5 12.5h-31v-88zM304 802v21h46v16h-46v20h46v16h-62v-88h62v15h-46zM469 787v88h-21
l-26 -36l-26 36h-21v-88h17v66l30 -39l31 40v-67h16zM509 833q0 13 8 22.5t22 9.5q15 0 23 -9.5t8 -22.5q0 -32 -31 -32q-14 0 -22 10t-8 22zM216 859q31 0 31 -28q0 -29 -31 -29h-16v57h16zM689 700v-433q0 -76 -27 -132.5t-73 -88t-100 -46.5t-115 -15t-115 15t-100 46.5
t-73 88t-27 132.5v433h185v-423q0 -127 130 -127t130 127v423h185z" />
    <glyph glyph-name="Yacute" unicode="&#xdd;" horiz-adv-x="728" 
d="M128 914h500v-165h-500v165zM539 880q-19 0 -32 -13.5t-13 -33.5t11.5 -33.5t33.5 -13.5q23 0 35 13.5t12 33.5q0 21 -13.5 34t-33.5 13zM185 787h31q47 0 47 44q0 19 -12.5 31.5t-34.5 12.5h-31v-88zM304 802v21h46v16h-46v20h46v16h-62v-88h62v15h-46zM469 787v88h-21
l-26 -36l-26 36h-21v-88h17v66l30 -39l31 40v-67h16zM509 833q0 13 8 22.5t22 9.5q15 0 23 -9.5t8 -22.5q0 -32 -31 -32q-14 0 -22 10t-8 22zM200 859h16q31 0 31 -28q0 -29 -31 -29h-16v57zM272 0v239l-273 461h210l155 -289l155 289h210l-273 -461v-239h-184z" />
    <glyph glyph-name="Thorn" unicode="&#xde;" horiz-adv-x="668" 
d="M343 590q305 0 305 -240q0 -238 -305 -240h-92v-110h-185v700h185v-110h92zM352 270q106 0 106 80t-106 80h-101v-160h101z" />
    <glyph glyph-name="germandbls" unicode="&#xdf;" horiz-adv-x="588" 
d="M573 141q0 -76 -58.5 -116t-139.5 -40q-61 0 -114 24v130q42 -23 80 -23q26 0 41.5 10.5t15.5 29.5q0 17 -21 41t-47 46t-47 53.5t-21 60.5q0 38 36 85.5t36 85.5q0 57 -56 57q-26 0 -41.5 -15t-15.5 -41v-529h-170v486q0 110 58.5 169t168.5 60q107 1 161.5 -48
t54.5 -108q0 -37 -20.5 -71.5t-41 -61.5t-20.5 -45q0 -17 16.5 -36.5t40 -40t47.5 -43t40.5 -54.5t16.5 -66z" />
    <glyph glyph-name="agrave" unicode="&#xe0;" horiz-adv-x="567" 
d="M-24 704h500v-165h-500v165zM387 670q-19 0 -32 -13.5t-13 -33.5t11.5 -33.5t33.5 -13.5q23 0 35 13.5t12 33.5q0 21 -13.5 34t-33.5 13zM33 577h31q47 0 47 44q0 19 -12.5 31.5t-34.5 12.5h-31v-88zM152 592v21h46v16h-46v20h46v16h-62v-88h62v15h-46zM317 577v88h-21
l-26 -36l-26 36h-21v-88h17v66l30 -39l31 40v-67h16zM357 623q0 13 8 22.5t22 9.5q15 0 23 -9.5t8 -22.5q0 -32 -31 -32q-14 0 -22 10t-8 22zM48 649h16q31 0 31 -28q0 -29 -31 -29h-16v57zM505 137q0 -30 33 -30q10 0 19 3v-105q-38 -15 -86 -15q-80 0 -114 53
q-74 -58 -167 -58q-71 0 -119 40t-48 108q0 43 19 75.5t50.5 49.5t66 25t72.5 8q54 0 104 -11v17q0 27 -25.5 43.5t-74.5 16.5q-76 0 -168 -37v143q98 32 187 32q123 0 187 -51t64 -173v-134zM198 147q0 -20 16 -33.5t42 -13.5q45 0 79 25v65q-27 9 -61 9q-76 0 -76 -52z
" />
    <glyph glyph-name="aacute" unicode="&#xe1;" horiz-adv-x="567" 
d="M28 704h500v-165h-500v165zM439 670q-19 0 -32 -13.5t-13 -33.5t11.5 -33.5t33.5 -13.5q23 0 35 13.5t12 33.5q0 21 -13.5 34t-33.5 13zM85 577h31q47 0 47 44q0 19 -12.5 31.5t-34.5 12.5h-31v-88zM204 592v21h46v16h-46v20h46v16h-62v-88h62v15h-46zM369 577v88h-21
l-26 -36l-26 36h-21v-88h17v66l30 -39l31 40v-67h16zM409 623q0 13 8 22.5t22 9.5q15 0 23 -9.5t8 -22.5q0 -32 -31 -32q-14 0 -22 10t-8 22zM100 649h16q31 0 31 -28q0 -29 -31 -29h-16v57zM505 137q0 -30 33 -30q10 0 19 3v-105q-38 -15 -86 -15q-80 0 -114 53
q-74 -58 -167 -58q-71 0 -119 40t-48 108q0 43 19 75.5t50.5 49.5t66 25t72.5 8q54 0 104 -11v17q0 27 -25.5 43.5t-74.5 16.5q-76 0 -168 -37v143q98 32 187 32q123 0 187 -51t64 -173v-134zM198 147q0 -20 16 -33.5t42 -13.5q45 0 79 25v65q-27 9 -61 9q-76 0 -76 -52z
" />
    <glyph glyph-name="acircumflex" unicode="&#xe2;" horiz-adv-x="567" 
d="M9 704h500v-165h-500v165zM420 670q-19 0 -32 -13.5t-13 -33.5t11.5 -33.5t33.5 -13.5q23 0 35 13.5t12 33.5q0 21 -13.5 34t-33.5 13zM66 577h31q47 0 47 44q0 19 -12.5 31.5t-34.5 12.5h-31v-88zM185 592v21h46v16h-46v20h46v16h-62v-88h62v15h-46zM350 577v88h-21
l-26 -36l-26 36h-21v-88h17v66l30 -39l31 40v-67h16zM390 623q0 13 8 22.5t22 9.5q15 0 23 -9.5t8 -22.5q0 -32 -31 -32q-14 0 -22 10t-8 22zM81 649h16q31 0 31 -28q0 -29 -31 -29h-16v57zM505 137q0 -30 33 -30q10 0 19 3v-105q-38 -15 -86 -15q-80 0 -114 53
q-74 -58 -167 -58q-71 0 -119 40t-48 108q0 43 19 75.5t50.5 49.5t66 25t72.5 8q54 0 104 -11v17q0 27 -25.5 43.5t-74.5 16.5q-76 0 -168 -37v143q98 32 187 32q123 0 187 -51t64 -173v-134zM198 147q0 -20 16 -33.5t42 -13.5q45 0 79 25v65q-27 9 -61 9q-76 0 -76 -52z
" />
    <glyph glyph-name="atilde" unicode="&#xe3;" horiz-adv-x="567" 
d="M6 704h500v-165h-500v165zM417 670q-19 0 -32 -13.5t-13 -33.5t11.5 -33.5t33.5 -13.5q23 0 35 13.5t12 33.5q0 21 -13.5 34t-33.5 13zM63 577h31q47 0 47 44q0 19 -12.5 31.5t-34.5 12.5h-31v-88zM182 592v21h46v16h-46v20h46v16h-62v-88h62v15h-46zM347 577v88h-21
l-26 -36l-26 36h-21v-88h17v66l30 -39l31 40v-67h16zM387 623q0 13 8 22.5t22 9.5q15 0 23 -9.5t8 -22.5q0 -32 -31 -32q-14 0 -22 10t-8 22zM78 649h16q31 0 31 -28q0 -29 -31 -29h-16v57zM505 137q0 -30 33 -30q10 0 19 3v-105q-38 -15 -86 -15q-80 0 -114 53
q-74 -58 -167 -58q-71 0 -119 40t-48 108q0 43 19 75.5t50.5 49.5t66 25t72.5 8q54 0 104 -11v17q0 27 -25.5 43.5t-74.5 16.5q-76 0 -168 -37v143q98 32 187 32q123 0 187 -51t64 -173v-134zM198 147q0 -20 16 -33.5t42 -13.5q45 0 79 25v65q-27 9 -61 9q-76 0 -76 -52z
" />
    <glyph glyph-name="adieresis" unicode="&#xe4;" horiz-adv-x="567" 
d="M516 704v-165h-500v165h500zM427 670q-19 0 -32 -13.5t-13 -33.5t11.5 -33.5t33.5 -13.5q23 0 35 13.5t12 33.5q0 21 -13.5 34t-33.5 13zM73 577h31q47 0 47 44q0 19 -12.5 31.5t-34.5 12.5h-31v-88zM192 592v21h46v16h-46v20h46v16h-62v-88h62v15h-46zM357 577v88h-21
l-26 -36l-26 36h-21v-88h17v66l30 -39l31 40v-67h16zM397 623q0 13 8 22.5t22 9.5q15 0 23 -9.5t8 -22.5q0 -32 -31 -32q-14 0 -22 10t-8 22zM104 649q31 0 31 -28q0 -29 -31 -29h-16v57h16zM505 137q0 -30 33 -30q10 0 19 3v-105q-38 -15 -86 -15q-80 0 -114 53
q-74 -58 -167 -58q-71 0 -119 40t-48 108q0 43 19 75.5t50.5 49.5t66 25t72.5 8q54 0 104 -11v17q0 27 -25.5 43.5t-74.5 16.5q-76 0 -168 -37v143q98 32 187 32q123 0 187 -51t64 -173v-134zM198 147q0 -20 16 -33.5t42 -13.5q45 0 79 25v65q-27 9 -61 9q-76 0 -76 -52z
" />
    <glyph glyph-name="aring" unicode="&#xe5;" horiz-adv-x="567" 
d="M26 704h500v-165h-500v165zM437 670q-19 0 -32 -13.5t-13 -33.5t11.5 -33.5t33.5 -13.5q23 0 35 13.5t12 33.5q0 21 -13.5 34t-33.5 13zM83 577h31q47 0 47 44q0 19 -12.5 31.5t-34.5 12.5h-31v-88zM202 592v21h46v16h-46v20h46v16h-62v-88h62v15h-46zM367 577v88h-21
l-26 -36l-26 36h-21v-88h17v66l30 -39l31 40v-67h16zM407 623q0 13 8 22.5t22 9.5q15 0 23 -9.5t8 -22.5q0 -32 -31 -32q-14 0 -22 10t-8 22zM98 649h16q31 0 31 -28q0 -29 -31 -29h-16v57zM505 137q0 -30 33 -30q10 0 19 3v-105q-38 -15 -86 -15q-80 0 -114 53
q-74 -58 -167 -58q-71 0 -119 40t-48 108q0 43 19 75.5t50.5 49.5t66 25t72.5 8q54 0 104 -11v17q0 27 -25.5 43.5t-74.5 16.5q-76 0 -168 -37v143q98 32 187 32q123 0 187 -51t64 -173v-134zM198 147q0 -20 16 -33.5t42 -13.5q45 0 79 25v65q-27 9 -61 9q-76 0 -76 -52z
" />
    <glyph glyph-name="ae" unicode="&#xe6;" 
d="M71 0v700h232v-700h-232zM123 574q0 -26 18.5 -44t46.5 -18q26 0 44.5 16t18.5 46q0 29 -19 45t-45 17q-26 0 -45 -16t-19 -46zM188 534q-19 -1 -31.5 10t-11.5 30q0 20 13 30t30 10q41 -4 41 -40q0 -20 -12 -30t-29 -10zM247 477h-121v-26l53 -39l-53 -37v-26h121v22
h-87l53 39v4l-53 41h87v22zM226 243h-28v65h-21v-65h-28v67h-23v-90h121v90h-21v-67zM247 77v48q0 30 -18 45.5t-43 14.5q-25 0 -42.5 -15.5t-17.5 -44.5v-48h121zM148 125q-1 34 38 38q16 0 28 -9.5t12 -28.5v-26h-78v26z" />
    <glyph glyph-name="ccedilla" unicode="&#xe7;" horiz-adv-x="490" 
d="M27 230q0 132 81.5 199t195.5 67q79 0 148 -33v-145q-57 33 -122 33q-56 0 -92 -27t-36 -84q0 -54 36 -82t89 -28q74 0 130 32v-145q-77 -32 -165 -32q-110 0 -187.5 62.5t-77.5 182.5z" />
    <glyph glyph-name="egrave" unicode="&#xe8;" horiz-adv-x="548" 
d="M-8 694h500v-165h-500v165zM403 660q-19 0 -32 -13.5t-13 -33.5t11.5 -33.5t33.5 -13.5q23 0 35 13.5t12 33.5q0 21 -13.5 34t-33.5 13zM49 567h31q47 0 47 44q0 19 -12.5 31.5t-34.5 12.5h-31v-88zM168 582v21h46v16h-46v20h46v16h-62v-88h62v15h-46zM333 567v88h-21
l-26 -36l-26 36h-21v-88h17v66l30 -39l31 40v-67h16zM373 613q0 13 8 22.5t22 9.5q15 0 23 -9.5t8 -22.5q0 -32 -31 -32q-14 0 -22 10t-8 22zM64 639h16q31 0 31 -28q0 -29 -31 -29h-16v57zM27 240q0 67 24 118.5t63 80t81 42.5t84 14q60 0 107 -18t74.5 -48t44.5 -69.5
t16.5 -83t-8.5 -87.5h-314q27 -74 153 -74q77 0 138 23v-126q-76 -27 -178 -27q-123 0 -204 67.5t-81 187.5zM358 291q5 24 -12.5 52.5t-62.5 28.5q-36 0 -61 -22t-25 -59h161z" />
    <glyph glyph-name="eacute" unicode="&#xe9;" horiz-adv-x="548" 
d="M44 694h500v-165h-500v165zM455 660q-19 0 -32 -13.5t-13 -33.5t11.5 -33.5t33.5 -13.5q23 0 35 13.5t12 33.5q0 21 -13.5 34t-33.5 13zM101 567h31q47 0 47 44q0 19 -12.5 31.5t-34.5 12.5h-31v-88zM220 582v21h46v16h-46v20h46v16h-62v-88h62v15h-46zM385 567v88h-21
l-26 -36l-26 36h-21v-88h17v66l30 -39l31 40v-67h16zM425 613q0 13 8 22.5t22 9.5q15 0 23 -9.5t8 -22.5q0 -32 -31 -32q-14 0 -22 10t-8 22zM116 639h16q31 0 31 -28q0 -29 -31 -29h-16v57zM27 240q0 67 24 118.5t63 80t81 42.5t84 14q60 0 107 -18t74.5 -48t44.5 -69.5
t16.5 -83t-8.5 -87.5h-314q27 -74 153 -74q77 0 138 23v-126q-76 -27 -178 -27q-123 0 -204 67.5t-81 187.5zM358 291q5 24 -12.5 52.5t-62.5 28.5q-36 0 -61 -22t-25 -59h161z" />
    <glyph glyph-name="ecircumflex" unicode="&#xea;" horiz-adv-x="548" 
d="M25 694h500v-165h-500v165zM436 660q-19 0 -32 -13.5t-13 -33.5t11.5 -33.5t33.5 -13.5q23 0 35 13.5t12 33.5q0 21 -13.5 34t-33.5 13zM82 567h31q47 0 47 44q0 19 -12.5 31.5t-34.5 12.5h-31v-88zM201 582v21h46v16h-46v20h46v16h-62v-88h62v15h-46zM366 567v88h-21
l-26 -36l-26 36h-21v-88h17v66l30 -39l31 40v-67h16zM406 613q0 13 8 22.5t22 9.5q15 0 23 -9.5t8 -22.5q0 -32 -31 -32q-14 0 -22 10t-8 22zM97 639h16q31 0 31 -28q0 -29 -31 -29h-16v57zM27 240q0 67 24 118.5t63 80t81 42.5t84 14q60 0 107 -18t74.5 -48t44.5 -69.5
t16.5 -83t-8.5 -87.5h-314q27 -74 153 -74q77 0 138 23v-126q-76 -27 -178 -27q-123 0 -204 67.5t-81 187.5zM358 291q5 24 -12.5 52.5t-62.5 28.5q-36 0 -61 -22t-25 -59h161z" />
    <glyph glyph-name="edieresis" unicode="&#xeb;" horiz-adv-x="548" 
d="M532 694v-165h-500v165h500zM443 660q-19 0 -32 -13.5t-13 -33.5t11.5 -33.5t33.5 -13.5q23 0 35 13.5t12 33.5q0 21 -13.5 34t-33.5 13zM89 567h31q47 0 47 44q0 19 -12.5 31.5t-34.5 12.5h-31v-88zM208 582v21h46v16h-46v20h46v16h-62v-88h62v15h-46zM373 567v88h-21
l-26 -36l-26 36h-21v-88h17v66l30 -39l31 40v-67h16zM413 613q0 13 8 22.5t22 9.5q15 0 23 -9.5t8 -22.5q0 -32 -31 -32q-14 0 -22 10t-8 22zM120 639q31 0 31 -28q0 -29 -31 -29h-16v57h16zM27 240q0 67 24 118.5t63 80t81 42.5t84 14q60 0 107 -18t74.5 -48t44.5 -69.5
t16.5 -83t-8.5 -87.5h-314q27 -74 153 -74q77 0 138 23v-126q-76 -27 -178 -27q-123 0 -204 67.5t-81 187.5zM358 291q5 24 -12.5 52.5t-62.5 28.5q-36 0 -61 -22t-25 -59h161z" />
    <glyph glyph-name="igrave" unicode="&#xec;" horiz-adv-x="274" 
d="M52 0v480h170v-480h-170z" />
    <glyph glyph-name="iacute" unicode="&#xed;" horiz-adv-x="274" 
d="M-97 694h500v-165h-500v165zM314 660q-19 0 -32 -13.5t-13 -33.5t11.5 -33.5t33.5 -13.5q23 0 35 13.5t12 33.5q0 21 -13.5 34t-33.5 13zM-40 567h31q47 0 47 44q0 19 -12.5 31.5t-34.5 12.5h-31v-88zM79 582v21h46v16h-46v20h46v16h-62v-88h62v15h-46zM244 567v88h-21
l-26 -36l-26 36h-21v-88h17v66l30 -39l31 40v-67h16zM284 613q0 13 8 22.5t22 9.5q15 0 23 -9.5t8 -22.5q0 -32 -31 -32q-14 0 -22 10t-8 22zM-25 639h16q31 0 31 -28q0 -29 -31 -29h-16v57zM222 480v-480h-170v480h170z" />
    <glyph glyph-name="icircumflex" unicode="&#xee;" horiz-adv-x="274" 
d="M222 480v-480h-170v480h170z" />
    <glyph glyph-name="idieresis" unicode="&#xef;" horiz-adv-x="274" 
d="M222 480v-480h-170v480h170z" />
    <glyph glyph-name="eth" unicode="&#xf0;" horiz-adv-x="582" 
d="M549 280q0 -155 -71 -225t-189 -70q-114 0 -187 59.5t-73 170.5q0 102 56 161t144 59q99 0 145 -57q0 9 -2 27q-11 82 -83 134l-74 -74l-73 74l46 46q-39 10 -87 10v120q102 0 186 -31l69 69l73 -74l-45 -45q165 -118 165 -354zM204 215q0 -34 19 -62t66 -28t66 28t19 62
t-19 62t-66 28t-66 -28t-19 -62z" />
    <glyph glyph-name="ntilde" unicode="&#xf1;" horiz-adv-x="592" 
d="M30 694h500v-165h-500v165zM441 660q-19 0 -32 -13.5t-13 -33.5t11.5 -33.5t33.5 -13.5q23 0 35 13.5t12 33.5q0 21 -13.5 34t-33.5 13zM87 567h31q47 0 47 44q0 19 -12.5 31.5t-34.5 12.5h-31v-88zM206 582v21h46v16h-46v20h46v16h-62v-88h62v15h-46zM371 567v88h-21
l-26 -36l-26 36h-21v-88h17v66l30 -39l31 40v-67h16zM411 613q0 13 8 22.5t22 9.5q15 0 23 -9.5t8 -22.5q0 -32 -31 -32q-14 0 -22 10t-8 22zM102 639h16q31 0 31 -28q0 -29 -31 -29h-16v57zM201 425q65 70 153 70q94 0 143 -55.5t49 -141.5v-298h-170v275q0 37 -20 56
t-53 19q-49 0 -82 -42v-308h-170v480h150v-55z" />
    <glyph glyph-name="ograve" unicode="&#xf2;" horiz-adv-x="594" 
d="M12 684h500v-165h-500v165zM423 650q-19 0 -32 -13.5t-13 -33.5t11.5 -33.5t33.5 -13.5q23 0 35 13.5t12 33.5q0 21 -13.5 34t-33.5 13zM69 557h31q47 0 47 44q0 19 -12.5 31.5t-34.5 12.5h-31v-88zM188 572v21h46v16h-46v20h46v16h-62v-88h62v15h-46zM353 557v88h-21
l-26 -36l-26 36h-21v-88h17v66l30 -39l31 40v-67h16zM393 603q0 13 8 22.5t22 9.5q15 0 23 -9.5t8 -22.5q0 -32 -31 -32q-14 0 -22 10t-8 22zM84 629h16q31 0 31 -28q0 -29 -31 -29h-16v57zM27 240q0 122 77.5 188.5t192.5 66.5t192.5 -66.5t77.5 -188.5t-77.5 -188.5
t-192.5 -66.5t-192.5 66.5t-77.5 188.5zM392 240q0 45 -23 75t-72 30t-72 -30t-23 -75t23 -75t72 -30t72 30t23 75z" />
    <glyph glyph-name="oacute" unicode="&#xf3;" horiz-adv-x="594" 
d="M64 684h500v-165h-500v165zM475 650q-19 0 -32 -13.5t-13 -33.5t11.5 -33.5t33.5 -13.5q23 0 35 13.5t12 33.5q0 21 -13.5 34t-33.5 13zM121 557h31q47 0 47 44q0 19 -12.5 31.5t-34.5 12.5h-31v-88zM240 572v21h46v16h-46v20h46v16h-62v-88h62v15h-46zM405 557v88h-21
l-26 -36l-26 36h-21v-88h17v66l30 -39l31 40v-67h16zM445 603q0 13 8 22.5t22 9.5q15 0 23 -9.5t8 -22.5q0 -32 -31 -32q-14 0 -22 10t-8 22zM136 629h16q31 0 31 -28q0 -29 -31 -29h-16v57zM27 240q0 122 77.5 188.5t192.5 66.5t192.5 -66.5t77.5 -188.5t-77.5 -188.5
t-192.5 -66.5t-192.5 66.5t-77.5 188.5zM392 240q0 45 -23 75t-72 30t-72 -30t-23 -75t23 -75t72 -30t72 30t23 75z" />
    <glyph glyph-name="ocircumflex" unicode="&#xf4;" horiz-adv-x="594" 
d="M45 684h500v-165h-500v165zM456 650q-19 0 -32 -13.5t-13 -33.5t11.5 -33.5t33.5 -13.5q23 0 35 13.5t12 33.5q0 21 -13.5 34t-33.5 13zM102 557h31q47 0 47 44q0 19 -12.5 31.5t-34.5 12.5h-31v-88zM221 572v21h46v16h-46v20h46v16h-62v-88h62v15h-46zM386 557v88h-21
l-26 -36l-26 36h-21v-88h17v66l30 -39l31 40v-67h16zM426 603q0 13 8 22.5t22 9.5q15 0 23 -9.5t8 -22.5q0 -32 -31 -32q-14 0 -22 10t-8 22zM117 629h16q31 0 31 -28q0 -29 -31 -29h-16v57zM27 240q0 122 77.5 188.5t192.5 66.5t192.5 -66.5t77.5 -188.5t-77.5 -188.5
t-192.5 -66.5t-192.5 66.5t-77.5 188.5zM392 240q0 45 -23 75t-72 30t-72 -30t-23 -75t23 -75t72 -30t72 30t23 75z" />
    <glyph glyph-name="otilde" unicode="&#xf5;" horiz-adv-x="594" 
d="M42 684h500v-165h-500v165zM453 650q-19 0 -32 -13.5t-13 -33.5t11.5 -33.5t33.5 -13.5q23 0 35 13.5t12 33.5q0 21 -13.5 34t-33.5 13zM99 557h31q47 0 47 44q0 19 -12.5 31.5t-34.5 12.5h-31v-88zM218 572v21h46v16h-46v20h46v16h-62v-88h62v15h-46zM383 557v88h-21
l-26 -36l-26 36h-21v-88h17v66l30 -39l31 40v-67h16zM423 603q0 13 8 22.5t22 9.5q15 0 23 -9.5t8 -22.5q0 -32 -31 -32q-14 0 -22 10t-8 22zM114 629h16q31 0 31 -28q0 -29 -31 -29h-16v57zM27 240q0 122 77.5 188.5t192.5 66.5t192.5 -66.5t77.5 -188.5t-77.5 -188.5
t-192.5 -66.5t-192.5 66.5t-77.5 188.5zM392 240q0 45 -23 75t-72 30t-72 -30t-23 -75t23 -75t72 -30t72 30t23 75z" />
    <glyph glyph-name="odieresis" unicode="&#xf6;" horiz-adv-x="594" 
d="M552 684v-165h-500v165h500zM463 650q-19 0 -32 -13.5t-13 -33.5t11.5 -33.5t33.5 -13.5q23 0 35 13.5t12 33.5q0 21 -13.5 34t-33.5 13zM109 557h31q47 0 47 44q0 19 -12.5 31.5t-34.5 12.5h-31v-88zM228 572v21h46v16h-46v20h46v16h-62v-88h62v15h-46zM393 557v88h-21
l-26 -36l-26 36h-21v-88h17v66l30 -39l31 40v-67h16zM433 603q0 13 8 22.5t22 9.5q15 0 23 -9.5t8 -22.5q0 -32 -31 -32q-14 0 -22 10t-8 22zM140 629q31 0 31 -28q0 -29 -31 -29h-16v57h16zM27 240q0 122 77.5 188.5t192.5 66.5t192.5 -66.5t77.5 -188.5t-77.5 -188.5
t-192.5 -66.5t-192.5 66.5t-77.5 188.5zM392 240q0 45 -23 75t-72 30t-72 -30t-23 -75t23 -75t72 -30t72 30t23 75z" />
    <glyph glyph-name="divide" unicode="&#xf7;" horiz-adv-x="373" 
d="M71 0v700h232v-700h-232zM123 574q0 -26 18.5 -44t46.5 -18q26 0 44.5 16t18.5 46q0 29 -19 45t-45 17q-26 0 -45 -16t-19 -46zM188 534q-19 -1 -31.5 10t-11.5 30q0 20 13 30t30 10q41 -4 41 -40q0 -20 -12 -30t-29 -10zM247 477h-121v-26l53 -39l-53 -37v-26h121v22
h-87l53 39v4l-53 41h87v22zM226 243h-28v65h-21v-65h-28v67h-23v-90h121v90h-21v-67zM247 77v48q0 30 -18 45.5t-43 14.5q-25 0 -42.5 -15.5t-17.5 -44.5v-48h121zM148 125q-1 34 38 38q16 0 28 -9.5t12 -28.5v-26h-78v26z" />
    <glyph glyph-name="oslash" unicode="&#xf8;" horiz-adv-x="594" 
d="M27 240q0 122 77.5 188.5t192.5 66.5t192.5 -66.5t77.5 -188.5t-77.5 -188.5t-192.5 -66.5t-192.5 66.5t-77.5 188.5zM392 240q0 45 -23 75t-72 30t-72 -30t-23 -75t23 -75t72 -30t72 30t23 75z" />
    <glyph glyph-name="ugrave" unicode="&#xf9;" horiz-adv-x="592" 
d="M10 694h500v-165h-500v165zM421 660q-19 0 -32 -13.5t-13 -33.5t11.5 -33.5t33.5 -13.5q23 0 35 13.5t12 33.5q0 21 -13.5 34t-33.5 13zM67 567h31q47 0 47 44q0 19 -12.5 31.5t-34.5 12.5h-31v-88zM186 582v21h46v16h-46v20h46v16h-62v-88h62v15h-46zM351 567v88h-21
l-26 -36l-26 36h-21v-88h17v66l30 -39l31 40v-67h16zM391 613q0 13 8 22.5t22 9.5q15 0 23 -9.5t8 -22.5q0 -32 -31 -32q-14 0 -22 10t-8 22zM82 639h16q31 0 31 -28q0 -29 -31 -29h-16v57zM541 480v-480h-150v55q-65 -70 -153 -70q-94 0 -143 55.5t-49 141.5v298h170v-275
q0 -37 20 -56t53 -19q49 0 82 42v308h170z" />
    <glyph glyph-name="uacute" unicode="&#xfa;" horiz-adv-x="592" 
d="M62 694h500v-165h-500v165zM473 660q-19 0 -32 -13.5t-13 -33.5t11.5 -33.5t33.5 -13.5q23 0 35 13.5t12 33.5q0 21 -13.5 34t-33.5 13zM119 567h31q47 0 47 44q0 19 -12.5 31.5t-34.5 12.5h-31v-88zM238 582v21h46v16h-46v20h46v16h-62v-88h62v15h-46zM403 567v88h-21
l-26 -36l-26 36h-21v-88h17v66l30 -39l31 40v-67h16zM443 613q0 13 8 22.5t22 9.5q15 0 23 -9.5t8 -22.5q0 -32 -31 -32q-14 0 -22 10t-8 22zM134 639h16q31 0 31 -28q0 -29 -31 -29h-16v57zM541 480v-480h-150v55q-65 -70 -153 -70q-94 0 -143 55.5t-49 141.5v298h170v-275
q0 -37 20 -56t53 -19q49 0 82 42v308h170z" />
    <glyph glyph-name="ucircumflex" unicode="&#xfb;" horiz-adv-x="592" 
d="M43 694h500v-165h-500v165zM454 660q-19 0 -32 -13.5t-13 -33.5t11.5 -33.5t33.5 -13.5q23 0 35 13.5t12 33.5q0 21 -13.5 34t-33.5 13zM100 567h31q47 0 47 44q0 19 -12.5 31.5t-34.5 12.5h-31v-88zM219 582v21h46v16h-46v20h46v16h-62v-88h62v15h-46zM384 567v88h-21
l-26 -36l-26 36h-21v-88h17v66l30 -39l31 40v-67h16zM424 613q0 13 8 22.5t22 9.5q15 0 23 -9.5t8 -22.5q0 -32 -31 -32q-14 0 -22 10t-8 22zM115 639h16q31 0 31 -28q0 -29 -31 -29h-16v57zM541 480v-480h-150v55q-65 -70 -153 -70q-94 0 -143 55.5t-49 141.5v298h170v-275
q0 -37 20 -56t53 -19q49 0 82 42v308h170z" />
    <glyph glyph-name="udieresis" unicode="&#xfc;" horiz-adv-x="592" 
d="M550 694v-165h-500v165h500zM461 660q-19 0 -32 -13.5t-13 -33.5t11.5 -33.5t33.5 -13.5q23 0 35 13.5t12 33.5q0 21 -13.5 34t-33.5 13zM107 567h31q47 0 47 44q0 19 -12.5 31.5t-34.5 12.5h-31v-88zM226 582v21h46v16h-46v20h46v16h-62v-88h62v15h-46zM391 567v88h-21
l-26 -36l-26 36h-21v-88h17v66l30 -39l31 40v-67h16zM431 613q0 13 8 22.5t22 9.5q15 0 23 -9.5t8 -22.5q0 -32 -31 -32q-14 0 -22 10t-8 22zM138 639q31 0 31 -28q0 -29 -31 -29h-16v57h16zM541 480v-480h-150v55q-65 -70 -153 -70q-94 0 -143 55.5t-49 141.5v298h170v-275
q0 -37 20 -56t53 -19q49 0 82 42v308h170z" />
    <glyph glyph-name="yacute" unicode="&#xfd;" horiz-adv-x="577" 
d="M47 694h500v-165h-500v165zM458 660q-19 0 -32 -13.5t-13 -33.5t11.5 -33.5t33.5 -13.5q23 0 35 13.5t12 33.5q0 21 -13.5 34t-33.5 13zM104 567h31q47 0 47 44q0 19 -12.5 31.5t-34.5 12.5h-31v-88zM223 582v21h46v16h-46v20h46v16h-62v-88h62v15h-46zM388 567v88h-21
l-26 -36l-26 36h-21v-88h17v66l30 -39l31 40v-67h16zM428 613q0 13 8 22.5t22 9.5q15 0 23 -9.5t8 -22.5q0 -32 -31 -32q-14 0 -22 10t-8 22zM119 639h16q31 0 31 -28q0 -29 -31 -29h-16v57zM395 480h175l-201 -530q-70 -183 -220 -183q-36 0 -88 13v140q34 -8 65 -8
q66 0 100 76l-226 492h180l117 -286z" />
    <glyph glyph-name="thorn" unicode="&#xfe;" horiz-adv-x="623" 
d="M221 700v-270q60 65 148 65q76 0 129.5 -40t75.5 -95.5t22 -119.5q0 -104 -60 -179.5t-167 -75.5q-90 0 -148 60v-265h-170v920h170zM421 240q0 47 -26 81t-76 34q-34 0 -60 -18.5t-38 -46.5v-100q16 -26 42 -42.5t56 -17.5q48 -1 75 32t27 78z" />
    <glyph glyph-name="ydieresis" unicode="&#xff;" horiz-adv-x="577" 
d="M535 694v-165h-500v165h500zM446 660q-19 0 -32 -13.5t-13 -33.5t11.5 -33.5t33.5 -13.5q23 0 35 13.5t12 33.5q0 21 -13.5 34t-33.5 13zM92 567h31q47 0 47 44q0 19 -12.5 31.5t-34.5 12.5h-31v-88zM211 582v21h46v16h-46v20h46v16h-62v-88h62v15h-46zM376 567v88h-21
l-26 -36l-26 36h-21v-88h17v66l30 -39l31 40v-67h16zM416 613q0 13 8 22.5t22 9.5q15 0 23 -9.5t8 -22.5q0 -32 -31 -32q-14 0 -22 10t-8 22zM123 639q31 0 31 -28q0 -29 -31 -29h-16v57h16zM395 480h175l-201 -530q-70 -183 -220 -183q-36 0 -88 13v140q34 -8 65 -8
q66 0 100 76l-226 492h180l117 -286z" />
    <glyph glyph-name="Amacron" unicode="&#x100;" horiz-adv-x="752" 
d="M135 914h500v-165h-500v165zM546 880q-19 0 -32 -13.5t-13 -33.5t11.5 -33.5t33.5 -13.5q23 0 35 13.5t12 33.5q0 21 -13.5 34t-33.5 13zM192 787h31q47 0 47 44q0 19 -12.5 31.5t-34.5 12.5h-31v-88zM311 802v21h46v16h-46v20h46v16h-62v-88h62v15h-46zM476 787v88h-21
l-26 -36l-26 36h-21v-88h17v66l30 -39l31 40v-67h16zM516 833q0 13 8 22.5t22 9.5q15 0 23 -9.5t8 -22.5q0 -32 -31 -32q-14 0 -22 10t-8 22zM207 859h16q31 0 31 -28q0 -29 -31 -29h-16v57zM1 0l275 700h200l275 -700h-190l-40 110h-290l-40 -110h-190zM286 260h180
l-72 202q-12 34 -18 71q-6 -37 -18 -71z" />
    <glyph glyph-name="amacron" unicode="&#x101;" horiz-adv-x="567" 
d="M21 704h500v-165h-500v165zM432 670q-19 0 -32 -13.5t-13 -33.5t11.5 -33.5t33.5 -13.5q23 0 35 13.5t12 33.5q0 21 -13.5 34t-33.5 13zM78 577h31q47 0 47 44q0 19 -12.5 31.5t-34.5 12.5h-31v-88zM197 592v21h46v16h-46v20h46v16h-62v-88h62v15h-46zM362 577v88h-21
l-26 -36l-26 36h-21v-88h17v66l30 -39l31 40v-67h16zM402 623q0 13 8 22.5t22 9.5q15 0 23 -9.5t8 -22.5q0 -32 -31 -32q-14 0 -22 10t-8 22zM93 649h16q31 0 31 -28q0 -29 -31 -29h-16v57zM505 137q0 -30 33 -30q10 0 19 3v-105q-38 -15 -86 -15q-80 0 -114 53
q-74 -58 -167 -58q-71 0 -119 40t-48 108q0 43 19 75.5t50.5 49.5t66 25t72.5 8q54 0 104 -11v17q0 27 -25.5 43.5t-74.5 16.5q-76 0 -168 -37v143q98 32 187 32q123 0 187 -51t64 -173v-134zM198 147q0 -20 16 -33.5t42 -13.5q45 0 79 25v65q-27 9 -61 9q-76 0 -76 -52z
" />
    <glyph glyph-name="Abreve" unicode="&#x102;" horiz-adv-x="752" 
d="M115 919h500v-165h-500v165zM526 885q-19 0 -32 -13.5t-13 -33.5t11.5 -33.5t33.5 -13.5q23 0 35 13.5t12 33.5q0 21 -13.5 34t-33.5 13zM172 792h31q47 0 47 44q0 19 -12.5 31.5t-34.5 12.5h-31v-88zM291 807v21h46v16h-46v20h46v16h-62v-88h62v15h-46zM456 792v88h-21
l-26 -36l-26 36h-21v-88h17v66l30 -39l31 40v-67h16zM496 838q0 13 8 22.5t22 9.5q15 0 23 -9.5t8 -22.5q0 -32 -31 -32q-14 0 -22 10t-8 22zM187 864h16q31 0 31 -28q0 -29 -31 -29h-16v57zM1 0l275 700h200l275 -700h-190l-40 110h-290l-40 -110h-190zM286 260h180
l-72 202q-12 34 -18 71q-6 -37 -18 -71z" />
    <glyph glyph-name="abreve" unicode="&#x103;" horiz-adv-x="567" 
d="M1 709h500v-165h-500v165zM412 675q-19 0 -32 -13.5t-13 -33.5t11.5 -33.5t33.5 -13.5q23 0 35 13.5t12 33.5q0 21 -13.5 34t-33.5 13zM58 582h31q47 0 47 44q0 19 -12.5 31.5t-34.5 12.5h-31v-88zM177 597v21h46v16h-46v20h46v16h-62v-88h62v15h-46zM342 582v88h-21
l-26 -36l-26 36h-21v-88h17v66l30 -39l31 40v-67h16zM382 628q0 13 8 22.5t22 9.5q15 0 23 -9.5t8 -22.5q0 -32 -31 -32q-14 0 -22 10t-8 22zM73 654h16q31 0 31 -28q0 -29 -31 -29h-16v57zM505 137q0 -30 33 -30q10 0 19 3v-105q-38 -15 -86 -15q-80 0 -114 53
q-74 -58 -167 -58q-71 0 -119 40t-48 108q0 43 19 75.5t50.5 49.5t66 25t72.5 8q54 0 104 -11v17q0 27 -25.5 43.5t-74.5 16.5q-76 0 -168 -37v143q98 32 187 32q123 0 187 -51t64 -173v-134zM198 147q0 -20 16 -33.5t42 -13.5q45 0 79 25v65q-27 9 -61 9q-76 0 -76 -52z
" />
    <glyph glyph-name="Aogonek" unicode="&#x104;" horiz-adv-x="752" 
d="M1 0l275 700h200l275 -700h-190l-40 110h-290l-40 -110h-190zM286 260h180l-72 202q-12 34 -18 71q-6 -37 -18 -71z" />
    <glyph glyph-name="aogonek" unicode="&#x105;" horiz-adv-x="567" 
d="M505 137q0 -30 33 -30q10 0 19 3v-105q-38 -15 -86 -15q-80 0 -114 53q-74 -58 -167 -58q-71 0 -119 40t-48 108q0 43 19 75.5t50.5 49.5t66 25t72.5 8q54 0 104 -11v17q0 27 -25.5 43.5t-74.5 16.5q-76 0 -168 -37v143q98 32 187 32q123 0 187 -51t64 -173v-134z
M198 147q0 -20 16 -33.5t42 -13.5q45 0 79 25v65q-27 9 -61 9q-76 0 -76 -52z" />
    <glyph glyph-name="Cacute" unicode="&#x106;" horiz-adv-x="655" 
d="M173 914h500v-165h-500v165zM584 880q-19 0 -32 -13.5t-13 -33.5t11.5 -33.5t33.5 -13.5q23 0 35 13.5t12 33.5q0 21 -13.5 34t-33.5 13zM230 787h31q47 0 47 44q0 19 -12.5 31.5t-34.5 12.5h-31v-88zM349 802v21h46v16h-46v20h46v16h-62v-88h62v15h-46zM514 787v88h-21
l-26 -36l-26 36h-21v-88h17v66l30 -39l31 40v-67h16zM554 833q0 13 8 22.5t22 9.5q15 0 23 -9.5t8 -22.5q0 -32 -31 -32q-14 0 -22 10t-8 22zM245 859h16q31 0 31 -28q0 -29 -31 -29h-16v57zM32 340q0 95 32 169t87 118t121 66t139 22q110 0 203 -44v-175q-68 57 -171 57
q-92 0 -156.5 -53.5t-64.5 -159.5q0 -95 64 -143.5t155 -48.5q115 0 178 61v-180q-93 -44 -204 -44q-75 0 -141.5 21t-121.5 62.5t-87.5 111.5t-32.5 160z" />
    <glyph glyph-name="cacute" unicode="&#x107;" horiz-adv-x="490" 
d="M54 694h500v-165h-500v165zM465 660q-19 0 -32 -13.5t-13 -33.5t11.5 -33.5t33.5 -13.5q23 0 35 13.5t12 33.5q0 21 -13.5 34t-33.5 13zM111 567h31q47 0 47 44q0 19 -12.5 31.5t-34.5 12.5h-31v-88zM230 582v21h46v16h-46v20h46v16h-62v-88h62v15h-46zM395 567v88h-21
l-26 -36l-26 36h-21v-88h17v66l30 -39l31 40v-67h16zM435 613q0 13 8 22.5t22 9.5q15 0 23 -9.5t8 -22.5q0 -32 -31 -32q-14 0 -22 10t-8 22zM126 639h16q31 0 31 -28q0 -29 -31 -29h-16v57zM27 230q0 132 81.5 199t195.5 67q79 0 148 -33v-145q-57 33 -122 33
q-56 0 -92 -27t-36 -84q0 -54 36 -82t89 -28q74 0 130 32v-145q-77 -32 -165 -32q-110 0 -187.5 62.5t-77.5 182.5z" />
    <glyph glyph-name="Cdotaccent" unicode="&#x10a;" horiz-adv-x="655" 
d="M153 909h500v-165h-500v165zM564 875q-19 0 -32 -13.5t-13 -33.5t11.5 -33.5t33.5 -13.5q23 0 35 13.5t12 33.5q0 21 -13.5 34t-33.5 13zM210 782h31q47 0 47 44q0 19 -12.5 31.5t-34.5 12.5h-31v-88zM329 797v21h46v16h-46v20h46v16h-62v-88h62v15h-46zM494 782v88h-21
l-26 -36l-26 36h-21v-88h17v66l30 -39l31 40v-67h16zM534 828q0 13 8 22.5t22 9.5q15 0 23 -9.5t8 -22.5q0 -32 -31 -32q-14 0 -22 10t-8 22zM225 854h16q31 0 31 -28q0 -29 -31 -29h-16v57zM32 340q0 95 32 169t87 118t121 66t139 22q110 0 203 -44v-175q-68 57 -171 57
q-92 0 -156.5 -53.5t-64.5 -159.5q0 -95 64 -143.5t155 -48.5q115 0 178 61v-180q-93 -44 -204 -44q-75 0 -141.5 21t-121.5 62.5t-87.5 111.5t-32.5 160z" />
    <glyph glyph-name="cdotaccent" unicode="&#x10b;" horiz-adv-x="490" 
d="M34 689h500v-165h-500v165zM445 655q-19 0 -32 -13.5t-13 -33.5t11.5 -33.5t33.5 -13.5q23 0 35 13.5t12 33.5q0 21 -13.5 34t-33.5 13zM91 562h31q47 0 47 44q0 19 -12.5 31.5t-34.5 12.5h-31v-88zM210 577v21h46v16h-46v20h46v16h-62v-88h62v15h-46zM375 562v88h-21
l-26 -36l-26 36h-21v-88h17v66l30 -39l31 40v-67h16zM415 608q0 13 8 22.5t22 9.5q15 0 23 -9.5t8 -22.5q0 -32 -31 -32q-14 0 -22 10t-8 22zM106 634h16q31 0 31 -28q0 -29 -31 -29h-16v57zM27 230q0 132 81.5 199t195.5 67q79 0 148 -33v-145q-57 33 -122 33
q-56 0 -92 -27t-36 -84q0 -54 36 -82t89 -28q74 0 130 32v-145q-77 -32 -165 -32q-110 0 -187.5 62.5t-77.5 182.5z" />
    <glyph glyph-name="Ccaron" unicode="&#x10c;" horiz-adv-x="655" 
d="M150 914h500v-165h-500v165zM561 880q-19 0 -32 -13.5t-13 -33.5t11.5 -33.5t33.5 -13.5q23 0 35 13.5t12 33.5q0 21 -13.5 34t-33.5 13zM207 787h31q47 0 47 44q0 19 -12.5 31.5t-34.5 12.5h-31v-88zM326 802v21h46v16h-46v20h46v16h-62v-88h62v15h-46zM491 787v88h-21
l-26 -36l-26 36h-21v-88h17v66l30 -39l31 40v-67h16zM531 833q0 13 8 22.5t22 9.5q15 0 23 -9.5t8 -22.5q0 -32 -31 -32q-14 0 -22 10t-8 22zM222 859h16q31 0 31 -28q0 -29 -31 -29h-16v57zM32 340q0 95 32 169t87 118t121 66t139 22q110 0 203 -44v-175q-68 57 -171 57
q-92 0 -156.5 -53.5t-64.5 -159.5q0 -95 64 -143.5t155 -48.5q115 0 178 61v-180q-93 -44 -204 -44q-75 0 -141.5 21t-121.5 62.5t-87.5 111.5t-32.5 160z" />
    <glyph glyph-name="ccaron" unicode="&#x10d;" horiz-adv-x="490" 
d="M31 694h500v-165h-500v165zM442 660q-19 0 -32 -13.5t-13 -33.5t11.5 -33.5t33.5 -13.5q23 0 35 13.5t12 33.5q0 21 -13.5 34t-33.5 13zM88 567h31q47 0 47 44q0 19 -12.5 31.5t-34.5 12.5h-31v-88zM207 582v21h46v16h-46v20h46v16h-62v-88h62v15h-46zM372 567v88h-21
l-26 -36l-26 36h-21v-88h17v66l30 -39l31 40v-67h16zM412 613q0 13 8 22.5t22 9.5q15 0 23 -9.5t8 -22.5q0 -32 -31 -32q-14 0 -22 10t-8 22zM103 639h16q31 0 31 -28q0 -29 -31 -29h-16v57zM27 230q0 132 81.5 199t195.5 67q79 0 148 -33v-145q-57 33 -122 33
q-56 0 -92 -27t-36 -84q0 -54 36 -82t89 -28q74 0 130 32v-145q-77 -32 -165 -32q-110 0 -187.5 62.5t-77.5 182.5z" />
    <glyph glyph-name="Dcaron" unicode="&#x10e;" horiz-adv-x="744" 
d="M89 914h500v-165h-500v165zM500 880q-19 0 -32 -13.5t-13 -33.5t11.5 -33.5t33.5 -13.5q23 0 35 13.5t12 33.5q0 21 -13.5 34t-33.5 13zM146 787h31q47 0 47 44q0 19 -12.5 31.5t-34.5 12.5h-31v-88zM265 802v21h46v16h-46v20h46v16h-62v-88h62v15h-46zM430 787v88h-21
l-26 -36l-26 36h-21v-88h17v66l30 -39l31 40v-67h16zM470 833q0 13 8 22.5t22 9.5q15 0 23 -9.5t8 -22.5q0 -32 -31 -32q-14 0 -22 10t-8 22zM161 859h16q31 0 31 -28q0 -29 -31 -29h-16v57zM345 700q181 0 273.5 -95t92.5 -255t-92.5 -255t-273.5 -95h-279v700h279z
M521 350q0 190 -176 190h-94v-380h94q176 0 176 190z" />
    <glyph glyph-name="dcaron" unicode="&#x10f;" horiz-adv-x="623" 
d="M572 700v-700h-150v65q-20 -34 -61.5 -57t-101.5 -23q-58 0 -104 22t-73 59t-41 81.5t-14 92.5t14 92.5t41 81.5t73 59t104 22q91 0 143 -54v259h170zM402 295q-12 25 -38 42.5t-59 17.5q-50 0 -76.5 -34t-26.5 -81t26.5 -81t76.5 -34q33 0 59 17.5t38 42.5v110z" />
    <glyph glyph-name="Dcroat" unicode="&#x110;" horiz-adv-x="760" 
d="M361 700q181 0 273.5 -95t92.5 -255t-92.5 -255t-273.5 -95h-279v700h279zM361 160q176 0 176 190t-176 190h-94v-380h94z" />
    <glyph glyph-name="dcroat" unicode="&#x111;" horiz-adv-x="623" 
d="M631 638v-100h-59v-538h-150v65q-20 -34 -61.5 -57t-101.5 -23q-58 0 -104 22t-73 59t-41 81.5t-14 92.5t14 92.5t41 81.5t73 59t104 22q91 0 143 -54v97h-121v100h121v62h170v-62h59zM305 125q33 0 59 17.5t38 42.5v110q-12 25 -38 42.5t-59 17.5q-50 0 -76.5 -34
t-26.5 -81t26.5 -81t76.5 -34z" />
    <glyph glyph-name="Emacron" unicode="&#x112;" horiz-adv-x="617" 
d="M87 914h500v-165h-500v165zM498 880q-19 0 -32 -13.5t-13 -33.5t11.5 -33.5t33.5 -13.5q23 0 35 13.5t12 33.5q0 21 -13.5 34t-33.5 13zM144 787h31q47 0 47 44q0 19 -12.5 31.5t-34.5 12.5h-31v-88zM263 802v21h46v16h-46v20h46v16h-62v-88h62v15h-46zM428 787v88h-21
l-26 -36l-26 36h-21v-88h17v66l30 -39l31 40v-67h16zM468 833q0 13 8 22.5t22 9.5q15 0 23 -9.5t8 -22.5q0 -32 -31 -32q-14 0 -22 10t-8 22zM159 859h16q31 0 31 -28q0 -29 -31 -29h-16v57zM570 700v-160h-319v-107h289v-159h-289v-114h325v-160h-510v700h504z" />
    <glyph glyph-name="emacron" unicode="&#x113;" horiz-adv-x="548" 
d="M37 694h500v-165h-500v165zM448 660q-19 0 -32 -13.5t-13 -33.5t11.5 -33.5t33.5 -13.5q23 0 35 13.5t12 33.5q0 21 -13.5 34t-33.5 13zM94 567h31q47 0 47 44q0 19 -12.5 31.5t-34.5 12.5h-31v-88zM213 582v21h46v16h-46v20h46v16h-62v-88h62v15h-46zM378 567v88h-21
l-26 -36l-26 36h-21v-88h17v66l30 -39l31 40v-67h16zM418 613q0 13 8 22.5t22 9.5q15 0 23 -9.5t8 -22.5q0 -32 -31 -32q-14 0 -22 10t-8 22zM109 639h16q31 0 31 -28q0 -29 -31 -29h-16v57zM27 240q0 67 24 118.5t63 80t81 42.5t84 14q60 0 107 -18t74.5 -48t44.5 -69.5
t16.5 -83t-8.5 -87.5h-314q27 -74 153 -74q77 0 138 23v-126q-76 -27 -178 -27q-123 0 -204 67.5t-81 187.5zM358 291q5 24 -12.5 52.5t-62.5 28.5q-36 0 -61 -22t-25 -59h161z" />
    <glyph glyph-name="Edotaccent" unicode="&#x116;" horiz-adv-x="617" 
d="M74 909h500v-165h-500v165zM485 875q-19 0 -32 -13.5t-13 -33.5t11.5 -33.5t33.5 -13.5q23 0 35 13.5t12 33.5q0 21 -13.5 34t-33.5 13zM131 782h31q47 0 47 44q0 19 -12.5 31.5t-34.5 12.5h-31v-88zM250 797v21h46v16h-46v20h46v16h-62v-88h62v15h-46zM415 782v88h-21
l-26 -36l-26 36h-21v-88h17v66l30 -39l31 40v-67h16zM455 828q0 13 8 22.5t22 9.5q15 0 23 -9.5t8 -22.5q0 -32 -31 -32q-14 0 -22 10t-8 22zM146 854h16q31 0 31 -28q0 -29 -31 -29h-16v57zM570 700v-160h-319v-107h289v-159h-289v-114h325v-160h-510v700h504z" />
    <glyph glyph-name="edotaccent" unicode="&#x117;" horiz-adv-x="548" 
d="M24 689h500v-165h-500v165zM435 655q-19 0 -32 -13.5t-13 -33.5t11.5 -33.5t33.5 -13.5q23 0 35 13.5t12 33.5q0 21 -13.5 34t-33.5 13zM81 562h31q47 0 47 44q0 19 -12.5 31.5t-34.5 12.5h-31v-88zM200 577v21h46v16h-46v20h46v16h-62v-88h62v15h-46zM365 562v88h-21
l-26 -36l-26 36h-21v-88h17v66l30 -39l31 40v-67h16zM405 608q0 13 8 22.5t22 9.5q15 0 23 -9.5t8 -22.5q0 -32 -31 -32q-14 0 -22 10t-8 22zM96 634h16q31 0 31 -28q0 -29 -31 -29h-16v57zM27 240q0 67 24 118.5t63 80t81 42.5t84 14q60 0 107 -18t74.5 -48t44.5 -69.5
t16.5 -83t-8.5 -87.5h-314q27 -74 153 -74q77 0 138 23v-126q-76 -27 -178 -27q-123 0 -204 67.5t-81 187.5zM358 291q5 24 -12.5 52.5t-62.5 28.5q-36 0 -61 -22t-25 -59h161z" />
    <glyph glyph-name="Eogonek" unicode="&#x118;" horiz-adv-x="617" 
d="M570 700v-160h-319v-107h289v-159h-289v-114h325v-160h-510v700h504z" />
    <glyph glyph-name="eogonek" unicode="&#x119;" horiz-adv-x="548" 
d="M27 240q0 67 24 118.5t63 80t81 42.5t84 14q60 0 107 -18t74.5 -48t44.5 -69.5t16.5 -83t-8.5 -87.5h-314q27 -74 153 -74q77 0 138 23v-126q-76 -27 -178 -27q-123 0 -204 67.5t-81 187.5zM358 291q5 24 -12.5 52.5t-62.5 28.5q-36 0 -61 -22t-25 -59h161z" />
    <glyph glyph-name="Ecaron" unicode="&#x11a;" horiz-adv-x="617" 
d="M71 914h500v-165h-500v165zM482 880q-19 0 -32 -13.5t-13 -33.5t11.5 -33.5t33.5 -13.5q23 0 35 13.5t12 33.5q0 21 -13.5 34t-33.5 13zM128 787h31q47 0 47 44q0 19 -12.5 31.5t-34.5 12.5h-31v-88zM247 802v21h46v16h-46v20h46v16h-62v-88h62v15h-46zM412 787v88h-21
l-26 -36l-26 36h-21v-88h17v66l30 -39l31 40v-67h16zM452 833q0 13 8 22.5t22 9.5q15 0 23 -9.5t8 -22.5q0 -32 -31 -32q-14 0 -22 10t-8 22zM143 859h16q31 0 31 -28q0 -29 -31 -29h-16v57zM570 700v-160h-319v-107h289v-159h-289v-114h325v-160h-510v700h504z" />
    <glyph glyph-name="ecaron" unicode="&#x11b;" horiz-adv-x="548" 
d="M21 694h500v-165h-500v165zM432 660q-19 0 -32 -13.5t-13 -33.5t11.5 -33.5t33.5 -13.5q23 0 35 13.5t12 33.5q0 21 -13.5 34t-33.5 13zM78 567h31q47 0 47 44q0 19 -12.5 31.5t-34.5 12.5h-31v-88zM197 582v21h46v16h-46v20h46v16h-62v-88h62v15h-46zM362 567v88h-21
l-26 -36l-26 36h-21v-88h17v66l30 -39l31 40v-67h16zM402 613q0 13 8 22.5t22 9.5q15 0 23 -9.5t8 -22.5q0 -32 -31 -32q-14 0 -22 10t-8 22zM93 639h16q31 0 31 -28q0 -29 -31 -29h-16v57zM27 240q0 67 24 118.5t63 80t81 42.5t84 14q60 0 107 -18t74.5 -48t44.5 -69.5
t16.5 -83t-8.5 -87.5h-314q27 -74 153 -74q77 0 138 23v-126q-76 -27 -178 -27q-123 0 -204 67.5t-81 187.5zM358 291q5 24 -12.5 52.5t-62.5 28.5q-36 0 -61 -22t-25 -59h161z" />
    <glyph glyph-name="Gbreve" unicode="&#x11e;" horiz-adv-x="699" 
d="M133 919h500v-165h-500v165zM544 885q-19 0 -32 -13.5t-13 -33.5t11.5 -33.5t33.5 -13.5q23 0 35 13.5t12 33.5q0 21 -13.5 34t-33.5 13zM190 792h31q47 0 47 44q0 19 -12.5 31.5t-34.5 12.5h-31v-88zM309 807v21h46v16h-46v20h46v16h-62v-88h62v15h-46zM474 792v88h-21
l-26 -36l-26 36h-21v-88h17v66l30 -39l31 40v-67h16zM514 838q0 13 8 22.5t22 9.5q15 0 23 -9.5t8 -22.5q0 -32 -31 -32q-14 0 -22 10t-8 22zM205 864h16q31 0 31 -28q0 -29 -31 -29h-16v57zM32 350q0 94 32.5 166.5t88 114.5t122.5 63t143 21q113 0 217 -44v-175
q-81 56 -193 56q-93 0 -156.5 -50.5t-63.5 -151.5q0 -61 20.5 -104.5t54 -64t65.5 -29t67 -8.5q28 0 48 5v236h175v-353q-113 -47 -232 -47q-77 0 -145 22t-123 65t-87.5 114.5t-32.5 163.5z" />
    <glyph glyph-name="gbreve" unicode="&#x11f;" horiz-adv-x="623" 
d="M17 699h500v-165h-500v165zM428 665q-19 0 -32 -13.5t-13 -33.5t11.5 -33.5t33.5 -13.5q23 0 35 13.5t12 33.5q0 21 -13.5 34t-33.5 13zM74 572h31q47 0 47 44q0 19 -12.5 31.5t-34.5 12.5h-31v-88zM193 587v21h46v16h-46v20h46v16h-62v-88h62v15h-46zM358 572v88h-21
l-26 -36l-26 36h-21v-88h17v66l30 -39l31 40v-67h16zM398 618q0 13 8 22.5t22 9.5q15 0 23 -9.5t8 -22.5q0 -32 -31 -32q-14 0 -22 10t-8 22zM89 644h16q31 0 31 -28q0 -29 -31 -29h-16v57zM27 240q0 48 14 92.5t41 81.5t73 59t104 22q60 0 101.5 -23t61.5 -57v65h150v-460
q0 -69 -23.5 -120.5t-64.5 -79.5t-90 -41.5t-106 -13.5q-114 0 -207 45v145q81 -50 184 -50q137 0 137 105v29q-52 -54 -143 -54q-58 0 -104 22t-73 59t-41 81.5t-14 92.5zM402 295q-12 25 -38 42.5t-59 17.5q-50 0 -76.5 -34t-26.5 -81t26.5 -81t76.5 -34q33 0 59 17.5
t38 42.5v110z" />
    <glyph glyph-name="Gdotaccent" unicode="&#x120;" horiz-adv-x="699" 
d="M140 909h500v-165h-500v165zM551 875q-19 0 -32 -13.5t-13 -33.5t11.5 -33.5t33.5 -13.5q23 0 35 13.5t12 33.5q0 21 -13.5 34t-33.5 13zM197 782h31q47 0 47 44q0 19 -12.5 31.5t-34.5 12.5h-31v-88zM316 797v21h46v16h-46v20h46v16h-62v-88h62v15h-46zM481 782v88h-21
l-26 -36l-26 36h-21v-88h17v66l30 -39l31 40v-67h16zM521 828q0 13 8 22.5t22 9.5q15 0 23 -9.5t8 -22.5q0 -32 -31 -32q-14 0 -22 10t-8 22zM212 854h16q31 0 31 -28q0 -29 -31 -29h-16v57zM32 350q0 94 32.5 166.5t88 114.5t122.5 63t143 21q113 0 217 -44v-175
q-81 56 -193 56q-93 0 -156.5 -50.5t-63.5 -151.5q0 -61 20.5 -104.5t54 -64t65.5 -29t67 -8.5q28 0 48 5v236h175v-353q-113 -47 -232 -47q-77 0 -145 22t-123 65t-87.5 114.5t-32.5 163.5z" />
    <glyph glyph-name="gdotaccent" unicode="&#x121;" horiz-adv-x="623" 
d="M24 689h500v-165h-500v165zM435 655q-19 0 -32 -13.5t-13 -33.5t11.5 -33.5t33.5 -13.5q23 0 35 13.5t12 33.5q0 21 -13.5 34t-33.5 13zM81 562h31q47 0 47 44q0 19 -12.5 31.5t-34.5 12.5h-31v-88zM200 577v21h46v16h-46v20h46v16h-62v-88h62v15h-46zM365 562v88h-21
l-26 -36l-26 36h-21v-88h17v66l30 -39l31 40v-67h16zM405 608q0 13 8 22.5t22 9.5q15 0 23 -9.5t8 -22.5q0 -32 -31 -32q-14 0 -22 10t-8 22zM96 634h16q31 0 31 -28q0 -29 -31 -29h-16v57zM27 240q0 48 14 92.5t41 81.5t73 59t104 22q60 0 101.5 -23t61.5 -57v65h150v-460
q0 -69 -23.5 -120.5t-64.5 -79.5t-90 -41.5t-106 -13.5q-114 0 -207 45v145q81 -50 184 -50q137 0 137 105v29q-52 -54 -143 -54q-58 0 -104 22t-73 59t-41 81.5t-14 92.5zM402 295q-12 25 -38 42.5t-59 17.5q-50 0 -76.5 -34t-26.5 -81t26.5 -81t76.5 -34q33 0 59 17.5
t38 42.5v110z" />
    <glyph glyph-name="uni0122" unicode="&#x122;" horiz-adv-x="699" 
d="M32 350q0 94 32.5 166.5t88 114.5t122.5 63t143 21q113 0 217 -44v-175q-81 56 -193 56q-93 0 -156.5 -50.5t-63.5 -151.5q0 -61 20.5 -104.5t54 -64t65.5 -29t67 -8.5q28 0 48 5v236h175v-353q-113 -47 -232 -47q-77 0 -145 22t-123 65t-87.5 114.5t-32.5 163.5z
M184 -211h500v165h-500v-165zM595 -80q20 0 33.5 -13t13.5 -34q0 -20 -12 -33.5t-35 -13.5q-22 0 -33.5 13.5t-11.5 33.5t13 33.5t32 13.5zM241 -85h31q22 0 34.5 -12.5t12.5 -31.5q0 -44 -47 -44h-31v88zM406 -158v-15h-62v88h62v-16h-46v-20h46v-16h-46v-21h46zM509 -173
v67l-31 -40l-30 39v-66h-17v88h21l26 -36l26 36h21v-88h-16zM565 -127q0 -12 8 -22t22 -10q31 0 31 32q0 13 -8 22.5t-23 9.5q-14 0 -22 -9.5t-8 -22.5zM256 -158h16q31 0 31 29q0 28 -31 28h-16v-57z" />
    <glyph glyph-name="uni0123" unicode="&#x123;" horiz-adv-x="623" 
d="M27 240q0 48 14 92.5t41 81.5t73 59t104 22q60 0 101.5 -23t61.5 -57v65h150v-460q0 -69 -23.5 -120.5t-64.5 -79.5t-90 -41.5t-106 -13.5q-114 0 -207 45v145q81 -50 184 -50q137 0 137 105v29q-52 -54 -143 -54q-58 0 -104 22t-73 59t-41 81.5t-14 92.5zM402 295
q-12 25 -38 42.5t-59 17.5q-50 0 -76.5 -34t-26.5 -81t26.5 -81t76.5 -34q33 0 59 17.5t38 42.5v110z" />
    <glyph glyph-name="Hbar" unicode="&#x126;" horiz-adv-x="762" 
d="M696 700v-700h-185v267h-260v-267h-185v700h185v-268h260v268h185z" />
    <glyph glyph-name="hbar" unicode="&#x127;" horiz-adv-x="592" 
d="M221 444q57 51 133 51q94 0 143 -55.5t49 -141.5v-298h-170v275q0 37 -20 56t-53 19q-49 0 -82 -42v-308h-170v700h170v-256z" />
    <glyph glyph-name="Imacron" unicode="&#x12a;" horiz-adv-x="317" 
d="M-82 914h500v-165h-500v165zM329 880q-19 0 -32 -13.5t-13 -33.5t11.5 -33.5t33.5 -13.5q23 0 35 13.5t12 33.5q0 21 -13.5 34t-33.5 13zM-25 787h31q47 0 47 44q0 19 -12.5 31.5t-34.5 12.5h-31v-88zM94 802v21h46v16h-46v20h46v16h-62v-88h62v15h-46zM259 787v88h-21
l-26 -36l-26 36h-21v-88h17v66l30 -39l31 40v-67h16zM299 833q0 13 8 22.5t22 9.5q15 0 23 -9.5t8 -22.5q0 -32 -31 -32q-14 0 -22 10t-8 22zM-10 859h16q31 0 31 -28q0 -29 -31 -29h-16v57zM251 700v-700h-185v700h185z" />
    <glyph glyph-name="imacron" unicode="&#x12b;" horiz-adv-x="274" 
d="M267 668v-110h-260v110h260zM222 480v-480h-170v480h170z" />
    <glyph glyph-name="Iogonek" unicode="&#x12e;" horiz-adv-x="317" 
d="M251 700v-700h-185v700h185z" />
    <glyph glyph-name="iogonek" unicode="&#x12f;" horiz-adv-x="274" 
d="M234 642q0 -47 -27.5 -70.5t-69.5 -23.5t-69.5 23.5t-27.5 70.5q0 46 28 69.5t69 23.5q42 0 69.5 -23.5t27.5 -69.5zM52 0v480h170v-480h-170z" />
    <glyph glyph-name="Idotaccent" unicode="&#x130;" horiz-adv-x="317" 
d="M-95 909h500v-165h-500v165zM316 875q-19 0 -32 -13.5t-13 -33.5t11.5 -33.5t33.5 -13.5q23 0 35 13.5t12 33.5q0 21 -13.5 34t-33.5 13zM-38 782h31q47 0 47 44q0 19 -12.5 31.5t-34.5 12.5h-31v-88zM81 797v21h46v16h-46v20h46v16h-62v-88h62v15h-46zM246 782v88h-21
l-26 -36l-26 36h-21v-88h17v66l30 -39l31 40v-67h16zM286 828q0 13 8 22.5t22 9.5q15 0 23 -9.5t8 -22.5q0 -32 -31 -32q-14 0 -22 10t-8 22zM-23 854h16q31 0 31 -28q0 -29 -31 -29h-16v57zM251 700v-700h-185v700h185z" />
    <glyph glyph-name="dotlessi" unicode="&#x131;" horiz-adv-x="274" 
d="M222 480v-480h-170v480h170z" />
    <glyph glyph-name="IJ" unicode="&#x132;" horiz-adv-x="835" 
d="M251 700v-700h-185v700h185zM774 700v-482q0 -63 -21 -109.5t-58 -72.5t-82.5 -38.5t-99.5 -12.5q-90 0 -181 33v170q61 -33 134 -33q123 0 123 88v292h-175v165h360z" />
    <glyph glyph-name="ij" unicode="&#x133;" horiz-adv-x="548" 
d="M234 642q0 -47 -27.5 -70.5t-69.5 -23.5t-69.5 23.5t-27.5 70.5q0 46 28 69.5t69 23.5q42 0 69.5 -23.5t27.5 -69.5zM508 642q0 -47 -27.5 -70.5t-69.5 -23.5t-69.5 23.5t-27.5 70.5q0 46 28 69.5t69 23.5q42 0 69.5 -23.5t27.5 -69.5zM52 0v480h170v-480h-170zM496 -57
q0 -92 -51.5 -135t-133.5 -43q-57 0 -92 15v142q24 -8 49 -8q26 0 42 15.5t16 45.5v505h170v-537z" />
    <glyph glyph-name="uni0136" unicode="&#x136;" horiz-adv-x="706" 
d="M66 0v700h185v-265h88l159 265h205l-220 -341l230 -359h-205l-170 270h-87v-270h-185zM139 -201h500v165h-500v-165zM550 -70q20 0 33.5 -13t13.5 -34q0 -20 -12 -33.5t-35 -13.5q-22 0 -33.5 13.5t-11.5 33.5t13 33.5t32 13.5zM196 -75h31q22 0 34.5 -12.5t12.5 -31.5
q0 -44 -47 -44h-31v88zM361 -148v-15h-62v88h62v-16h-46v-20h46v-16h-46v-21h46zM464 -163v67l-31 -40l-30 39v-66h-17v88h21l26 -36l26 36h21v-88h-16zM520 -117q0 -12 8 -22t22 -10q31 0 31 32q0 13 -8 22.5t-23 9.5q-14 0 -22 -9.5t-8 -22.5zM211 -148h16q31 0 31 29
q0 28 -31 28h-16v-57z" />
    <glyph glyph-name="uni0137" unicode="&#x137;" horiz-adv-x="561" 
d="M375 0l-118 182h-36v-182h-170v700h170v-388h38l105 168h190l-156 -236l166 -244h-189zM69 -201h500v165h-500v-165zM480 -70q20 0 33.5 -13t13.5 -34q0 -20 -12 -33.5t-35 -13.5q-22 0 -33.5 13.5t-11.5 33.5t13 33.5t32 13.5zM126 -75h31q22 0 34.5 -12.5t12.5 -31.5
q0 -44 -47 -44h-31v88zM291 -148v-15h-62v88h62v-16h-46v-20h46v-16h-46v-21h46zM394 -163v67l-31 -40l-30 39v-66h-17v88h21l26 -36l26 36h21v-88h-16zM450 -117q0 -12 8 -22t22 -10q31 0 31 32q0 13 -8 22.5t-23 9.5q-14 0 -22 -9.5t-8 -22.5zM141 -148h16q31 0 31 29
q0 28 -31 28h-16v-57z" />
    <glyph glyph-name="Lacute" unicode="&#x139;" horiz-adv-x="584" 
d="M-80 914h500v-165h-500v165zM331 880q-19 0 -32 -13.5t-13 -33.5t11.5 -33.5t33.5 -13.5q23 0 35 13.5t12 33.5q0 21 -13.5 34t-33.5 13zM-23 787h31q47 0 47 44q0 19 -12.5 31.5t-34.5 12.5h-31v-88zM96 802v21h46v16h-46v20h46v16h-62v-88h62v15h-46zM261 787v88h-21
l-26 -36l-26 36h-21v-88h17v66l30 -39l31 40v-67h16zM301 833q0 13 8 22.5t22 9.5q15 0 23 -9.5t8 -22.5q0 -32 -31 -32q-14 0 -22 10t-8 22zM-8 859h16q31 0 31 -28q0 -29 -31 -29h-16v57zM251 700v-535h320v-165h-505v700h185z" />
    <glyph glyph-name="lacute" unicode="&#x13a;" horiz-adv-x="274" 
d="M-95 934h500v-165h-500v165zM316 900q-19 0 -32 -13.5t-13 -33.5t11.5 -33.5t33.5 -13.5q23 0 35 13.5t12 33.5q0 21 -13.5 34t-33.5 13zM-38 807h31q47 0 47 44q0 19 -12.5 31.5t-34.5 12.5h-31v-88zM81 822v21h46v16h-46v20h46v16h-62v-88h62v15h-46zM246 807v88h-21
l-26 -36l-26 36h-21v-88h17v66l30 -39l31 40v-67h16zM286 853q0 13 8 22.5t22 9.5q15 0 23 -9.5t8 -22.5q0 -32 -31 -32q-14 0 -22 10t-8 22zM-23 879h16q31 0 31 -28q0 -29 -31 -29h-16v57zM222 730v-730h-170v730h170z" />
    <glyph glyph-name="uni013B" unicode="&#x13b;" horiz-adv-x="584" 
d="M251 700v-535h320v-165h-505v700h185zM91 -201h500v165h-500v-165zM502 -70q20 0 33.5 -13t13.5 -34q0 -20 -12 -33.5t-35 -13.5q-22 0 -33.5 13.5t-11.5 33.5t13 33.5t32 13.5zM148 -75h31q22 0 34.5 -12.5t12.5 -31.5q0 -44 -47 -44h-31v88zM313 -148v-15h-62v88h62
v-16h-46v-20h46v-16h-46v-21h46zM416 -163v67l-31 -40l-30 39v-66h-17v88h21l26 -36l26 36h21v-88h-16zM472 -117q0 -12 8 -22t22 -10q31 0 31 32q0 13 -8 22.5t-23 9.5q-14 0 -22 -9.5t-8 -22.5zM163 -148h16q31 0 31 29q0 28 -31 28h-16v-57z" />
    <glyph glyph-name="uni013C" unicode="&#x13c;" horiz-adv-x="274" 
d="M222 730v-730h-170v730h170zM-88 -201h500v165h-500v-165zM323 -70q20 0 33.5 -13t13.5 -34q0 -20 -12 -33.5t-35 -13.5q-22 0 -33.5 13.5t-11.5 33.5t13 33.5t32 13.5zM-31 -75h31q22 0 34.5 -12.5t12.5 -31.5q0 -44 -47 -44h-31v88zM134 -148v-15h-62v88h62v-16h-46
v-20h46v-16h-46v-21h46zM237 -163v67l-31 -40l-30 39v-66h-17v88h21l26 -36l26 36h21v-88h-16zM293 -117q0 -12 8 -22t22 -10q31 0 31 32q0 13 -8 22.5t-23 9.5q-14 0 -22 -9.5t-8 -22.5zM-16 -148h16q31 0 31 29q0 28 -31 28h-16v-57z" />
    <glyph glyph-name="Lcaron" unicode="&#x13d;" horiz-adv-x="585" 
d="M251 700v-535h320v-165h-505v700h185z" />
    <glyph glyph-name="lcaron" unicode="&#x13e;" horiz-adv-x="274" 
d="M222 730v-730h-170v730h170z" />
    <glyph glyph-name="Ldot" unicode="&#x13f;" horiz-adv-x="593" 
d="M251 700v-535h320v-165h-505v700h185zM505 408q0 -45 -26.5 -67.5t-66.5 -22.5t-66.5 22.5t-26.5 67.5q0 44 26.5 67t66.5 23t66.5 -23t26.5 -67z" />
    <glyph glyph-name="ldot" unicode="&#x140;" horiz-adv-x="268" 
d="M222 730v-730h-170v730h170z" />
    <glyph glyph-name="Lslash" unicode="&#x141;" horiz-adv-x="620" 
d="M102 0v700h185v-535h320v-165h-505z" />
    <glyph glyph-name="lslash" unicode="&#x142;" horiz-adv-x="378" 
d="M272 730v-730h-170v730h170z" />
    <glyph glyph-name="Nacute" unicode="&#x143;" horiz-adv-x="762" 
d="M147 914h500v-165h-500v165zM558 880q-19 0 -32 -13.5t-13 -33.5t11.5 -33.5t33.5 -13.5q23 0 35 13.5t12 33.5q0 21 -13.5 34t-33.5 13zM204 787h31q47 0 47 44q0 19 -12.5 31.5t-34.5 12.5h-31v-88zM323 802v21h46v16h-46v20h46v16h-62v-88h62v15h-46zM488 787v88h-21
l-26 -36l-26 36h-21v-88h17v66l30 -39l31 40v-67h16zM528 833q0 13 8 22.5t22 9.5q15 0 23 -9.5t8 -22.5q0 -32 -31 -32q-14 0 -22 10t-8 22zM219 859h16q31 0 31 -28q0 -29 -31 -29h-16v57zM66 0v700h175l274 -402q-4 44 -4 116v286h185v-700h-175l-274 401q4 -44 4 -115
v-286h-185z" />
    <glyph glyph-name="nacute" unicode="&#x144;" horiz-adv-x="592" 
d="M52 694h500v-165h-500v165zM463 660q-19 0 -32 -13.5t-13 -33.5t11.5 -33.5t33.5 -13.5q23 0 35 13.5t12 33.5q0 21 -13.5 34t-33.5 13zM109 567h31q47 0 47 44q0 19 -12.5 31.5t-34.5 12.5h-31v-88zM228 582v21h46v16h-46v20h46v16h-62v-88h62v15h-46zM393 567v88h-21
l-26 -36l-26 36h-21v-88h17v66l30 -39l31 40v-67h16zM433 613q0 13 8 22.5t22 9.5q15 0 23 -9.5t8 -22.5q0 -32 -31 -32q-14 0 -22 10t-8 22zM124 639h16q31 0 31 -28q0 -29 -31 -29h-16v57zM201 425q65 70 153 70q94 0 143 -55.5t49 -141.5v-298h-170v275q0 37 -20 56
t-53 19q-49 0 -82 -42v-308h-170v480h150v-55z" />
    <glyph glyph-name="uni0145" unicode="&#x145;" horiz-adv-x="762" 
d="M66 0v700h175l274 -402q-4 44 -4 116v286h185v-700h-175l-274 401q4 -44 4 -115v-286h-185zM171 -201h500v165h-500v-165zM582 -70q20 0 33.5 -13t13.5 -34q0 -20 -12 -33.5t-35 -13.5q-22 0 -33.5 13.5t-11.5 33.5t13 33.5t32 13.5zM228 -75h31q22 0 34.5 -12.5
t12.5 -31.5q0 -44 -47 -44h-31v88zM393 -148v-15h-62v88h62v-16h-46v-20h46v-16h-46v-21h46zM496 -163v67l-31 -40l-30 39v-66h-17v88h21l26 -36l26 36h21v-88h-16zM552 -117q0 -12 8 -22t22 -10q31 0 31 32q0 13 -8 22.5t-23 9.5q-14 0 -22 -9.5t-8 -22.5zM243 -148h16
q31 0 31 29q0 28 -31 28h-16v-57z" />
    <glyph glyph-name="uni0146" unicode="&#x146;" horiz-adv-x="592" 
d="M201 425q65 70 153 70q94 0 143 -55.5t49 -141.5v-298h-170v275q0 37 -20 56t-53 19q-49 0 -82 -42v-308h-170v480h150v-55zM74 -201h500v165h-500v-165zM485 -70q20 0 33.5 -13t13.5 -34q0 -20 -12 -33.5t-35 -13.5q-22 0 -33.5 13.5t-11.5 33.5t13 33.5t32 13.5z
M131 -75h31q22 0 34.5 -12.5t12.5 -31.5q0 -44 -47 -44h-31v88zM296 -148v-15h-62v88h62v-16h-46v-20h46v-16h-46v-21h46zM399 -163v67l-31 -40l-30 39v-66h-17v88h21l26 -36l26 36h21v-88h-16zM455 -117q0 -12 8 -22t22 -10q31 0 31 32q0 13 -8 22.5t-23 9.5
q-14 0 -22 -9.5t-8 -22.5zM146 -148h16q31 0 31 29q0 28 -31 28h-16v-57z" />
    <glyph glyph-name="Ncaron" unicode="&#x147;" horiz-adv-x="762" 
d="M124 914h500v-165h-500v165zM535 880q-19 0 -32 -13.5t-13 -33.5t11.5 -33.5t33.5 -13.5q23 0 35 13.5t12 33.5q0 21 -13.5 34t-33.5 13zM181 787h31q47 0 47 44q0 19 -12.5 31.5t-34.5 12.5h-31v-88zM300 802v21h46v16h-46v20h46v16h-62v-88h62v15h-46zM465 787v88h-21
l-26 -36l-26 36h-21v-88h17v66l30 -39l31 40v-67h16zM505 833q0 13 8 22.5t22 9.5q15 0 23 -9.5t8 -22.5q0 -32 -31 -32q-14 0 -22 10t-8 22zM196 859h16q31 0 31 -28q0 -29 -31 -29h-16v57zM66 0v700h175l274 -402q-4 44 -4 116v286h185v-700h-175l-274 401q4 -44 4 -115
v-286h-185z" />
    <glyph glyph-name="ncaron" unicode="&#x148;" horiz-adv-x="592" 
d="M29 694h500v-165h-500v165zM440 660q-19 0 -32 -13.5t-13 -33.5t11.5 -33.5t33.5 -13.5q23 0 35 13.5t12 33.5q0 21 -13.5 34t-33.5 13zM86 567h31q47 0 47 44q0 19 -12.5 31.5t-34.5 12.5h-31v-88zM205 582v21h46v16h-46v20h46v16h-62v-88h62v15h-46zM370 567v88h-21
l-26 -36l-26 36h-21v-88h17v66l30 -39l31 40v-67h16zM410 613q0 13 8 22.5t22 9.5q15 0 23 -9.5t8 -22.5q0 -32 -31 -32q-14 0 -22 10t-8 22zM101 639h16q31 0 31 -28q0 -29 -31 -29h-16v57zM201 425q65 70 153 70q94 0 143 -55.5t49 -141.5v-298h-170v275q0 37 -20 56
t-53 19q-49 0 -82 -42v-308h-170v480h150v-55z" />
    <glyph glyph-name="Eng" unicode="&#x14a;" horiz-adv-x="762" 
d="M66 0v700h175l274 -402q-4 44 -4 116v286h185v-700h-175l-274 401q4 -44 4 -115v-286h-185z" />
    <glyph glyph-name="eng" unicode="&#x14b;" horiz-adv-x="592" 
d="M201 425q65 70 153 70q94 0 143 -55.5t49 -141.5v-298h-170v275q0 37 -20 56t-53 19q-49 0 -82 -42v-308h-170v480h150v-55z" />
    <glyph glyph-name="Omacron" unicode="&#x14c;" horiz-adv-x="812" 
d="M165 914h500v-165h-500v165zM576 880q-19 0 -32 -13.5t-13 -33.5t11.5 -33.5t33.5 -13.5q23 0 35 13.5t12 33.5q0 21 -13.5 34t-33.5 13zM222 787h31q47 0 47 44q0 19 -12.5 31.5t-34.5 12.5h-31v-88zM341 802v21h46v16h-46v20h46v16h-62v-88h62v15h-46zM506 787v88h-21
l-26 -36l-26 36h-21v-88h17v66l30 -39l31 40v-67h16zM546 833q0 13 8 22.5t22 9.5q15 0 23 -9.5t8 -22.5q0 -32 -31 -32q-14 0 -22 10t-8 22zM237 859h16q31 0 31 -28q0 -29 -31 -29h-16v57zM31 350q0 155 98 260t277 105t277 -105t98 -260t-98 -260t-277 -105t-277 105
t-98 260zM591 350q0 87 -48.5 141t-136.5 54t-136.5 -54t-48.5 -141t48.5 -141t136.5 -54t136.5 54t48.5 141z" />
    <glyph glyph-name="omacron" unicode="&#x14d;" horiz-adv-x="594" 
d="M57 684h500v-165h-500v165zM468 650q-19 0 -32 -13.5t-13 -33.5t11.5 -33.5t33.5 -13.5q23 0 35 13.5t12 33.5q0 21 -13.5 34t-33.5 13zM114 557h31q47 0 47 44q0 19 -12.5 31.5t-34.5 12.5h-31v-88zM233 572v21h46v16h-46v20h46v16h-62v-88h62v15h-46zM398 557v88h-21
l-26 -36l-26 36h-21v-88h17v66l30 -39l31 40v-67h16zM438 603q0 13 8 22.5t22 9.5q15 0 23 -9.5t8 -22.5q0 -32 -31 -32q-14 0 -22 10t-8 22zM129 629h16q31 0 31 -28q0 -29 -31 -29h-16v57zM27 240q0 122 77.5 188.5t192.5 66.5t192.5 -66.5t77.5 -188.5t-77.5 -188.5
t-192.5 -66.5t-192.5 66.5t-77.5 188.5zM392 240q0 45 -23 75t-72 30t-72 -30t-23 -75t23 -75t72 -30t72 30t23 75z" />
    <glyph glyph-name="Ohungarumlaut" unicode="&#x150;" horiz-adv-x="812" 
d="M160 914h500v-165h-500v165zM571 880q-19 0 -32 -13.5t-13 -33.5t11.5 -33.5t33.5 -13.5q23 0 35 13.5t12 33.5q0 21 -13.5 34t-33.5 13zM217 787h31q47 0 47 44q0 19 -12.5 31.5t-34.5 12.5h-31v-88zM336 802v21h46v16h-46v20h46v16h-62v-88h62v15h-46zM501 787v88h-21
l-26 -36l-26 36h-21v-88h17v66l30 -39l31 40v-67h16zM541 833q0 13 8 22.5t22 9.5q15 0 23 -9.5t8 -22.5q0 -32 -31 -32q-14 0 -22 10t-8 22zM232 859h16q31 0 31 -28q0 -29 -31 -29h-16v57zM31 350q0 155 98 260t277 105t277 -105t98 -260t-98 -260t-277 -105t-277 105
t-98 260zM591 350q0 87 -48.5 141t-136.5 54t-136.5 -54t-48.5 -141t48.5 -141t136.5 -54t136.5 54t48.5 141z" />
    <glyph glyph-name="ohungarumlaut" unicode="&#x151;" horiz-adv-x="594" 
d="M52 684h500v-165h-500v165zM463 650q-19 0 -32 -13.5t-13 -33.5t11.5 -33.5t33.5 -13.5q23 0 35 13.5t12 33.5q0 21 -13.5 34t-33.5 13zM109 557h31q47 0 47 44q0 19 -12.5 31.5t-34.5 12.5h-31v-88zM228 572v21h46v16h-46v20h46v16h-62v-88h62v15h-46zM393 557v88h-21
l-26 -36l-26 36h-21v-88h17v66l30 -39l31 40v-67h16zM433 603q0 13 8 22.5t22 9.5q15 0 23 -9.5t8 -22.5q0 -32 -31 -32q-14 0 -22 10t-8 22zM124 629h16q31 0 31 -28q0 -29 -31 -29h-16v57zM27 240q0 122 77.5 188.5t192.5 66.5t192.5 -66.5t77.5 -188.5t-77.5 -188.5
t-192.5 -66.5t-192.5 66.5t-77.5 188.5zM392 240q0 45 -23 75t-72 30t-72 -30t-23 -75t23 -75t72 -30t72 30t23 75z" />
    <glyph glyph-name="OE" unicode="&#x152;" horiz-adv-x="373" 
d="M71 0v700h232v-700h-232zM123 574q0 -26 18.5 -44t46.5 -18q26 0 44.5 16t18.5 46q0 29 -19 45t-45 17q-26 0 -45 -16t-19 -46zM188 534q-19 -1 -31.5 10t-11.5 30q0 20 13 30t30 10q41 -4 41 -40q0 -20 -12 -30t-29 -10zM247 477h-121v-26l53 -39l-53 -37v-26h121v22
h-87l53 39v4l-53 41h87v22zM226 243h-28v65h-21v-65h-28v67h-23v-90h121v90h-21v-67zM247 77v48q0 30 -18 45.5t-43 14.5q-25 0 -42.5 -15.5t-17.5 -44.5v-48h121zM148 125q-1 34 38 38q16 0 28 -9.5t12 -28.5v-26h-78v26z" />
    <glyph glyph-name="oe" unicode="&#x153;" horiz-adv-x="373" 
d="M71 0v700h232v-700h-232zM123 574q0 -26 18.5 -44t46.5 -18q26 0 44.5 16t18.5 46q0 29 -19 45t-45 17q-26 0 -45 -16t-19 -46zM188 534q-19 -1 -31.5 10t-11.5 30q0 20 13 30t30 10q41 -4 41 -40q0 -20 -12 -30t-29 -10zM247 477h-121v-26l53 -39l-53 -37v-26h121v22
h-87l53 39v4l-53 41h87v22zM226 243h-28v65h-21v-65h-28v67h-23v-90h121v90h-21v-67zM247 77v48q0 30 -18 45.5t-43 14.5q-25 0 -42.5 -15.5t-17.5 -44.5v-48h121zM148 125q-1 34 38 38q16 0 28 -9.5t12 -28.5v-26h-78v26z" />
    <glyph glyph-name="Racute" unicode="&#x154;" horiz-adv-x="711" 
d="M107 914h500v-165h-500v165zM518 880q-19 0 -32 -13.5t-13 -33.5t11.5 -33.5t33.5 -13.5q23 0 35 13.5t12 33.5q0 21 -13.5 34t-33.5 13zM164 787h31q47 0 47 44q0 19 -12.5 31.5t-34.5 12.5h-31v-88zM283 802v21h46v16h-46v20h46v16h-62v-88h62v15h-46zM448 787v88h-21
l-26 -36l-26 36h-21v-88h17v66l30 -39l31 40v-67h16zM488 833q0 13 8 22.5t22 9.5q15 0 23 -9.5t8 -22.5q0 -32 -31 -32q-14 0 -22 10t-8 22zM179 859h16q31 0 31 -28q0 -29 -31 -29h-16v57zM66 0v700h295q57 0 105.5 -11.5t91 -37t66.5 -73.5t24 -114q0 -156 -134 -210
l193 -254h-209l-167 228h-80v-228h-185zM251 378h118q41 0 65 21t24 60t-24 60t-65 21h-118v-162z" />
    <glyph glyph-name="racute" unicode="&#x155;" horiz-adv-x="404" 
d="M-18 694h500v-165h-500v165zM393 660q-19 0 -32 -13.5t-13 -33.5t11.5 -33.5t33.5 -13.5q23 0 35 13.5t12 33.5q0 21 -13.5 34t-33.5 13zM39 567h31q47 0 47 44q0 19 -12.5 31.5t-34.5 12.5h-31v-88zM158 582v21h46v16h-46v20h46v16h-62v-88h62v15h-46zM323 567v88h-21
l-26 -36l-26 36h-21v-88h17v66l30 -39l31 40v-67h16zM363 613q0 13 8 22.5t22 9.5q15 0 23 -9.5t8 -22.5q0 -32 -31 -32q-14 0 -22 10t-8 22zM54 639h16q31 0 31 -28q0 -29 -31 -29h-16v57zM201 415q61 89 188 75v-165q-51 11 -98.5 -3.5t-69.5 -48.5v-273h-170v480h150v-65
z" />
    <glyph glyph-name="uni0156" unicode="&#x156;" horiz-adv-x="711" 
d="M66 0v700h295q57 0 105.5 -11.5t91 -37t66.5 -73.5t24 -114q0 -156 -134 -210l193 -254h-209l-167 228h-80v-228h-185zM251 378h118q41 0 65 21t24 60t-24 60t-65 21h-118v-162zM137 -201h500v165h-500v-165zM548 -70q20 0 33.5 -13t13.5 -34q0 -20 -12 -33.5t-35 -13.5
q-22 0 -33.5 13.5t-11.5 33.5t13 33.5t32 13.5zM194 -75h31q22 0 34.5 -12.5t12.5 -31.5q0 -44 -47 -44h-31v88zM359 -148v-15h-62v88h62v-16h-46v-20h46v-16h-46v-21h46zM462 -163v67l-31 -40l-30 39v-66h-17v88h21l26 -36l26 36h21v-88h-16zM518 -117q0 -12 8 -22t22 -10
q31 0 31 32q0 13 -8 22.5t-23 9.5q-14 0 -22 -9.5t-8 -22.5zM209 -148h16q31 0 31 29q0 28 -31 28h-16v-57z" />
    <glyph glyph-name="uni0157" unicode="&#x157;" horiz-adv-x="404" 
d="M201 415q61 89 188 75v-165q-51 11 -98.5 -3.5t-69.5 -48.5v-273h-170v480h150v-65zM-91 -201h500v165h-500v-165zM320 -70q20 0 33.5 -13t13.5 -34q0 -20 -12 -33.5t-35 -13.5q-22 0 -33.5 13.5t-11.5 33.5t13 33.5t32 13.5zM-34 -75h31q22 0 34.5 -12.5t12.5 -31.5
q0 -44 -47 -44h-31v88zM131 -148v-15h-62v88h62v-16h-46v-20h46v-16h-46v-21h46zM234 -163v67l-31 -40l-30 39v-66h-17v88h21l26 -36l26 36h21v-88h-16zM290 -117q0 -12 8 -22t22 -10q31 0 31 32q0 13 -8 22.5t-23 9.5q-14 0 -22 -9.5t-8 -22.5zM-19 -148h16q31 0 31 29
q0 28 -31 28h-16v-57z" />
    <glyph glyph-name="Rcaron" unicode="&#x158;" horiz-adv-x="711" 
d="M84 914h500v-165h-500v165zM495 880q-19 0 -32 -13.5t-13 -33.5t11.5 -33.5t33.5 -13.5q23 0 35 13.5t12 33.5q0 21 -13.5 34t-33.5 13zM141 787h31q47 0 47 44q0 19 -12.5 31.5t-34.5 12.5h-31v-88zM260 802v21h46v16h-46v20h46v16h-62v-88h62v15h-46zM425 787v88h-21
l-26 -36l-26 36h-21v-88h17v66l30 -39l31 40v-67h16zM465 833q0 13 8 22.5t22 9.5q15 0 23 -9.5t8 -22.5q0 -32 -31 -32q-14 0 -22 10t-8 22zM156 859h16q31 0 31 -28q0 -29 -31 -29h-16v57zM66 0v700h295q57 0 105.5 -11.5t91 -37t66.5 -73.5t24 -114q0 -156 -134 -210
l193 -254h-209l-167 228h-80v-228h-185zM251 378h118q41 0 65 21t24 60t-24 60t-65 21h-118v-162z" />
    <glyph glyph-name="rcaron" unicode="&#x159;" horiz-adv-x="404" 
d="M-41 694h500v-165h-500v165zM370 660q-19 0 -32 -13.5t-13 -33.5t11.5 -33.5t33.5 -13.5q23 0 35 13.5t12 33.5q0 21 -13.5 34t-33.5 13zM16 567h31q47 0 47 44q0 19 -12.5 31.5t-34.5 12.5h-31v-88zM135 582v21h46v16h-46v20h46v16h-62v-88h62v15h-46zM300 567v88h-21
l-26 -36l-26 36h-21v-88h17v66l30 -39l31 40v-67h16zM340 613q0 13 8 22.5t22 9.5q15 0 23 -9.5t8 -22.5q0 -32 -31 -32q-14 0 -22 10t-8 22zM31 639h16q31 0 31 -28q0 -29 -31 -29h-16v57zM201 415q61 89 188 75v-165q-51 11 -98.5 -3.5t-69.5 -48.5v-273h-170v480h150v-65
z" />
    <glyph glyph-name="Sacute" unicode="&#x15a;" horiz-adv-x="621" 
d="M67 914h500v-165h-500v165zM478 880q-19 0 -32 -13.5t-13 -33.5t11.5 -33.5t33.5 -13.5q23 0 35 13.5t12 33.5q0 21 -13.5 34t-33.5 13zM124 787h31q47 0 47 44q0 19 -12.5 31.5t-34.5 12.5h-31v-88zM243 802v21h46v16h-46v20h46v16h-62v-88h62v15h-46zM408 787v88h-21
l-26 -36l-26 36h-21v-88h17v66l30 -39l31 40v-67h16zM448 833q0 13 8 22.5t22 9.5q15 0 23 -9.5t8 -22.5q0 -32 -31 -32q-14 0 -22 10t-8 22zM139 859h16q31 0 31 -28q0 -29 -31 -29h-16v57zM41 509q0 100 74.5 153t189.5 53q137 0 235 -56v-170q-90 68 -220 66
q-89 -1 -89 -45q0 -21 27 -37.5t67.5 -28t87.5 -31t87.5 -43.5t67.5 -68.5t27 -102.5q0 -214 -280 -214q-153 0 -269 64v175q115 -79 255 -79q56 0 80 10.5t24 36.5q0 27 -37.5 47t-91 37.5t-107 41.5t-91 73t-37.5 118z" />
    <glyph glyph-name="sacute" unicode="&#x15b;" horiz-adv-x="486" 
d="M9 694h500v-165h-500v165zM420 660q-19 0 -32 -13.5t-13 -33.5t11.5 -33.5t33.5 -13.5q23 0 35 13.5t12 33.5q0 21 -13.5 34t-33.5 13zM66 567h31q47 0 47 44q0 19 -12.5 31.5t-34.5 12.5h-31v-88zM185 582v21h46v16h-46v20h46v16h-62v-88h62v15h-46zM350 567v88h-21
l-26 -36l-26 36h-21v-88h17v66l30 -39l31 40v-67h16zM390 613q0 13 8 22.5t22 9.5q15 0 23 -9.5t8 -22.5q0 -32 -31 -32q-14 0 -22 10t-8 22zM81 639h16q31 0 31 -28q0 -29 -31 -29h-16v57zM34 342q0 81 59 117t150 36q94 0 181 -41v-135q-32 22 -79.5 36.5t-89.5 14.5
q-46 0 -46 -24q0 -18 26 -29.5t63 -21.5t74 -24.5t63 -47.5t26 -83q0 -155 -229 -155q-116 0 -193 44v135q77 -51 184 -51q63 0 63 24q0 17 -26 28.5t-63 21.5t-74 25.5t-63 48.5t-26 81z" />
    <glyph glyph-name="Scedilla" unicode="&#x15e;" horiz-adv-x="621" 
d="M41 509q0 100 74.5 153t189.5 53q137 0 235 -56v-170q-90 68 -220 66q-89 -1 -89 -45q0 -21 27 -37.5t67.5 -28t87.5 -31t87.5 -43.5t67.5 -68.5t27 -102.5q0 -214 -280 -214q-153 0 -269 64v175q115 -79 255 -79q56 0 80 10.5t24 36.5q0 27 -37.5 47t-91 37.5t-107 41.5
t-91 73t-37.5 118z" />
    <glyph glyph-name="scedilla" unicode="&#x15f;" horiz-adv-x="486" 
d="M34 342q0 81 59 117t150 36q94 0 181 -41v-135q-32 22 -79.5 36.5t-89.5 14.5q-46 0 -46 -24q0 -18 26 -29.5t63 -21.5t74 -24.5t63 -47.5t26 -83q0 -155 -229 -155q-116 0 -193 44v135q77 -51 184 -51q63 0 63 24q0 17 -26 28.5t-63 21.5t-74 25.5t-63 48.5t-26 81z" />
    <glyph glyph-name="Scaron" unicode="&#x160;" horiz-adv-x="621" 
d="M44 914h500v-165h-500v165zM455 880q-19 0 -32 -13.5t-13 -33.5t11.5 -33.5t33.5 -13.5q23 0 35 13.5t12 33.5q0 21 -13.5 34t-33.5 13zM101 787h31q47 0 47 44q0 19 -12.5 31.5t-34.5 12.5h-31v-88zM220 802v21h46v16h-46v20h46v16h-62v-88h62v15h-46zM385 787v88h-21
l-26 -36l-26 36h-21v-88h17v66l30 -39l31 40v-67h16zM425 833q0 13 8 22.5t22 9.5q15 0 23 -9.5t8 -22.5q0 -32 -31 -32q-14 0 -22 10t-8 22zM116 859h16q31 0 31 -28q0 -29 -31 -29h-16v57zM41 509q0 100 74.5 153t189.5 53q137 0 235 -56v-170q-90 68 -220 66
q-89 -1 -89 -45q0 -21 27 -37.5t67.5 -28t87.5 -31t87.5 -43.5t67.5 -68.5t27 -102.5q0 -214 -280 -214q-153 0 -269 64v175q115 -79 255 -79q56 0 80 10.5t24 36.5q0 27 -37.5 47t-91 37.5t-107 41.5t-91 73t-37.5 118z" />
    <glyph glyph-name="scaron" unicode="&#x161;" horiz-adv-x="486" 
d="M-14 694h500v-165h-500v165zM397 660q-19 0 -32 -13.5t-13 -33.5t11.5 -33.5t33.5 -13.5q23 0 35 13.5t12 33.5q0 21 -13.5 34t-33.5 13zM43 567h31q47 0 47 44q0 19 -12.5 31.5t-34.5 12.5h-31v-88zM162 582v21h46v16h-46v20h46v16h-62v-88h62v15h-46zM327 567v88h-21
l-26 -36l-26 36h-21v-88h17v66l30 -39l31 40v-67h16zM367 613q0 13 8 22.5t22 9.5q15 0 23 -9.5t8 -22.5q0 -32 -31 -32q-14 0 -22 10t-8 22zM58 639h16q31 0 31 -28q0 -29 -31 -29h-16v57zM34 342q0 81 59 117t150 36q94 0 181 -41v-135q-32 22 -79.5 36.5t-89.5 14.5
q-46 0 -46 -24q0 -18 26 -29.5t63 -21.5t74 -24.5t63 -47.5t26 -83q0 -155 -229 -155q-116 0 -193 44v135q77 -51 184 -51q63 0 63 24q0 17 -26 28.5t-63 21.5t-74 25.5t-63 48.5t-26 81z" />
    <glyph glyph-name="uni0162" unicode="&#x162;" horiz-adv-x="606" 
d="M593 700v-165h-197v-535h-185v535h-198v165h580zM80 -201h500v165h-500v-165zM491 -70q20 0 33.5 -13t13.5 -34q0 -20 -12 -33.5t-35 -13.5q-22 0 -33.5 13.5t-11.5 33.5t13 33.5t32 13.5zM137 -75h31q22 0 34.5 -12.5t12.5 -31.5q0 -44 -47 -44h-31v88zM302 -148v-15
h-62v88h62v-16h-46v-20h46v-16h-46v-21h46zM405 -163v67l-31 -40l-30 39v-66h-17v88h21l26 -36l26 36h21v-88h-16zM461 -117q0 -12 8 -22t22 -10q31 0 31 32q0 13 -8 22.5t-23 9.5q-14 0 -22 -9.5t-8 -22.5zM152 -148h16q31 0 31 29q0 28 -31 28h-16v-57z" />
    <glyph glyph-name="uni0163" unicode="&#x163;" horiz-adv-x="422" 
d="M259 655v-175h130v-140h-130v-156q0 -59 63 -59q42 0 77 12v-132q-58 -20 -130 -20q-79 0 -129.5 38.5t-50.5 126.5v190h-76v140h76v135zM26 -201h500v165h-500v-165zM437 -70q20 0 33.5 -13t13.5 -34q0 -20 -12 -33.5t-35 -13.5q-22 0 -33.5 13.5t-11.5 33.5t13 33.5
t32 13.5zM83 -75h31q22 0 34.5 -12.5t12.5 -31.5q0 -44 -47 -44h-31v88zM248 -148v-15h-62v88h62v-16h-46v-20h46v-16h-46v-21h46zM351 -163v67l-31 -40l-30 39v-66h-17v88h21l26 -36l26 36h21v-88h-16zM407 -117q0 -12 8 -22t22 -10q31 0 31 32q0 13 -8 22.5t-23 9.5
q-14 0 -22 -9.5t-8 -22.5zM98 -148h16q31 0 31 29q0 28 -31 28h-16v-57z" />
    <glyph glyph-name="Tcaron" unicode="&#x164;" horiz-adv-x="606" 
d="M46 914h500v-165h-500v165zM457 880q-19 0 -32 -13.5t-13 -33.5t11.5 -33.5t33.5 -13.5q23 0 35 13.5t12 33.5q0 21 -13.5 34t-33.5 13zM103 787h31q47 0 47 44q0 19 -12.5 31.5t-34.5 12.5h-31v-88zM222 802v21h46v16h-46v20h46v16h-62v-88h62v15h-46zM387 787v88h-21
l-26 -36l-26 36h-21v-88h17v66l30 -39l31 40v-67h16zM427 833q0 13 8 22.5t22 9.5q15 0 23 -9.5t8 -22.5q0 -32 -31 -32q-14 0 -22 10t-8 22zM118 859h16q31 0 31 -28q0 -29 -31 -29h-16v57zM593 700v-165h-197v-535h-185v535h-198v165h580z" />
    <glyph glyph-name="tcaron" unicode="&#x165;" horiz-adv-x="422" 
d="M259 655v-175h130v-140h-130v-156q0 -59 63 -59q42 0 77 12v-132q-58 -20 -130 -20q-79 0 -129.5 38.5t-50.5 126.5v190h-76v140h76v135z" />
    <glyph glyph-name="Tbar" unicode="&#x166;" horiz-adv-x="620" 
d="M218 0v535h-198v165h580v-165h-197v-535h-185z" />
    <glyph glyph-name="tbar" unicode="&#x167;" horiz-adv-x="423" 
d="M260 182q0 -59 63 -59q42 0 77 12v-130q-71 -20 -130 -20q-79 0 -129.5 38.5t-50.5 126.5v200h-76v130h76v135l170 40v-175h130v-130h-130v-168z" />
    <glyph glyph-name="Umacron" unicode="&#x16a;" horiz-adv-x="748" 
d="M133 914h500v-165h-500v165zM544 880q-19 0 -32 -13.5t-13 -33.5t11.5 -33.5t33.5 -13.5q23 0 35 13.5t12 33.5q0 21 -13.5 34t-33.5 13zM190 787h31q47 0 47 44q0 19 -12.5 31.5t-34.5 12.5h-31v-88zM309 802v21h46v16h-46v20h46v16h-62v-88h62v15h-46zM474 787v88h-21
l-26 -36l-26 36h-21v-88h17v66l30 -39l31 40v-67h16zM514 833q0 13 8 22.5t22 9.5q15 0 23 -9.5t8 -22.5q0 -32 -31 -32q-14 0 -22 10t-8 22zM205 859h16q31 0 31 -28q0 -29 -31 -29h-16v57zM689 700v-433q0 -76 -27 -132.5t-73 -88t-100 -46.5t-115 -15t-115 15t-100 46.5
t-73 88t-27 132.5v433h185v-423q0 -127 130 -127t130 127v423h185z" />
    <glyph glyph-name="umacron" unicode="&#x16b;" horiz-adv-x="592" 
d="M55 694h500v-165h-500v165zM466 660q-19 0 -32 -13.5t-13 -33.5t11.5 -33.5t33.5 -13.5q23 0 35 13.5t12 33.5q0 21 -13.5 34t-33.5 13zM112 567h31q47 0 47 44q0 19 -12.5 31.5t-34.5 12.5h-31v-88zM231 582v21h46v16h-46v20h46v16h-62v-88h62v15h-46zM396 567v88h-21
l-26 -36l-26 36h-21v-88h17v66l30 -39l31 40v-67h16zM436 613q0 13 8 22.5t22 9.5q15 0 23 -9.5t8 -22.5q0 -32 -31 -32q-14 0 -22 10t-8 22zM127 639h16q31 0 31 -28q0 -29 -31 -29h-16v57zM541 480v-480h-150v55q-65 -70 -153 -70q-94 0 -143 55.5t-49 141.5v298h170v-275
q0 -37 20 -56t53 -19q49 0 82 42v308h170z" />
    <glyph glyph-name="Uring" unicode="&#x16e;" horiz-adv-x="748" 
d="M138 914h500v-165h-500v165zM549 880q-19 0 -32 -13.5t-13 -33.5t11.5 -33.5t33.5 -13.5q23 0 35 13.5t12 33.5q0 21 -13.5 34t-33.5 13zM195 787h31q47 0 47 44q0 19 -12.5 31.5t-34.5 12.5h-31v-88zM314 802v21h46v16h-46v20h46v16h-62v-88h62v15h-46zM479 787v88h-21
l-26 -36l-26 36h-21v-88h17v66l30 -39l31 40v-67h16zM519 833q0 13 8 22.5t22 9.5q15 0 23 -9.5t8 -22.5q0 -32 -31 -32q-14 0 -22 10t-8 22zM210 859h16q31 0 31 -28q0 -29 -31 -29h-16v57zM689 700v-433q0 -76 -27 -132.5t-73 -88t-100 -46.5t-115 -15t-115 15t-100 46.5
t-73 88t-27 132.5v433h185v-423q0 -127 130 -127t130 127v423h185z" />
    <glyph glyph-name="uring" unicode="&#x16f;" horiz-adv-x="592" 
d="M60 694h500v-165h-500v165zM471 660q-19 0 -32 -13.5t-13 -33.5t11.5 -33.5t33.5 -13.5q23 0 35 13.5t12 33.5q0 21 -13.5 34t-33.5 13zM117 567h31q47 0 47 44q0 19 -12.5 31.5t-34.5 12.5h-31v-88zM236 582v21h46v16h-46v20h46v16h-62v-88h62v15h-46zM401 567v88h-21
l-26 -36l-26 36h-21v-88h17v66l30 -39l31 40v-67h16zM441 613q0 13 8 22.5t22 9.5q15 0 23 -9.5t8 -22.5q0 -32 -31 -32q-14 0 -22 10t-8 22zM132 639h16q31 0 31 -28q0 -29 -31 -29h-16v57zM541 480v-480h-150v55q-65 -70 -153 -70q-94 0 -143 55.5t-49 141.5v298h170v-275
q0 -37 20 -56t53 -19q49 0 82 42v308h170z" />
    <glyph glyph-name="Uhungarumlaut" unicode="&#x170;" horiz-adv-x="748" 
d="M128 914h500v-165h-500v165zM539 880q-19 0 -32 -13.5t-13 -33.5t11.5 -33.5t33.5 -13.5q23 0 35 13.5t12 33.5q0 21 -13.5 34t-33.5 13zM185 787h31q47 0 47 44q0 19 -12.5 31.5t-34.5 12.5h-31v-88zM304 802v21h46v16h-46v20h46v16h-62v-88h62v15h-46zM469 787v88h-21
l-26 -36l-26 36h-21v-88h17v66l30 -39l31 40v-67h16zM509 833q0 13 8 22.5t22 9.5q15 0 23 -9.5t8 -22.5q0 -32 -31 -32q-14 0 -22 10t-8 22zM200 859h16q31 0 31 -28q0 -29 -31 -29h-16v57zM689 700v-433q0 -76 -27 -132.5t-73 -88t-100 -46.5t-115 -15t-115 15t-100 46.5
t-73 88t-27 132.5v433h185v-423q0 -127 130 -127t130 127v423h185z" />
    <glyph glyph-name="uhungarumlaut" unicode="&#x171;" horiz-adv-x="592" 
d="M50 694h500v-165h-500v165zM461 660q-19 0 -32 -13.5t-13 -33.5t11.5 -33.5t33.5 -13.5q23 0 35 13.5t12 33.5q0 21 -13.5 34t-33.5 13zM107 567h31q47 0 47 44q0 19 -12.5 31.5t-34.5 12.5h-31v-88zM226 582v21h46v16h-46v20h46v16h-62v-88h62v15h-46zM391 567v88h-21
l-26 -36l-26 36h-21v-88h17v66l30 -39l31 40v-67h16zM431 613q0 13 8 22.5t22 9.5q15 0 23 -9.5t8 -22.5q0 -32 -31 -32q-14 0 -22 10t-8 22zM122 639h16q31 0 31 -28q0 -29 -31 -29h-16v57zM541 480v-480h-150v55q-65 -70 -153 -70q-94 0 -143 55.5t-49 141.5v298h170v-275
q0 -37 20 -56t53 -19q49 0 82 42v308h170z" />
    <glyph glyph-name="Uogonek" unicode="&#x172;" horiz-adv-x="748" 
d="M689 700v-433q0 -76 -27 -132.5t-73 -88t-100 -46.5t-115 -15t-115 15t-100 46.5t-73 88t-27 132.5v433h185v-423q0 -127 130 -127t130 127v423h185z" />
    <glyph glyph-name="uogonek" unicode="&#x173;" horiz-adv-x="592" 
d="M541 480v-480h-150v55q-65 -70 -153 -70q-94 0 -143 55.5t-49 141.5v298h170v-275q0 -37 20 -56t53 -19q49 0 82 42v308h170z" />
    <glyph glyph-name="Wcircumflex" unicode="&#x174;" horiz-adv-x="1078" 
d="M286 914h500v-165h-500v165zM697 880q-19 0 -32 -13.5t-13 -33.5t11.5 -33.5t33.5 -13.5q23 0 35 13.5t12 33.5q0 21 -13.5 34t-33.5 13zM343 787h31q47 0 47 44q0 19 -12.5 31.5t-34.5 12.5h-31v-88zM462 802v21h46v16h-46v20h46v16h-62v-88h62v15h-46zM627 787v88h-21
l-26 -36l-26 36h-21v-88h17v66l30 -39l31 40v-67h16zM667 833q0 13 8 22.5t22 9.5q15 0 23 -9.5t8 -22.5q0 -32 -31 -32q-14 0 -22 10t-8 22zM358 859h16q31 0 31 -28q0 -29 -31 -29h-16v57zM1072 700l-214 -700h-200l-119 433l-119 -433h-200l-214 700h200l119 -492
l133 492h162l133 -492l119 492h200z" />
    <glyph glyph-name="wcircumflex" unicode="&#x175;" horiz-adv-x="828" 
d="M159 694h500v-165h-500v165zM570 660q-19 0 -32 -13.5t-13 -33.5t11.5 -33.5t33.5 -13.5q23 0 35 13.5t12 33.5q0 21 -13.5 34t-33.5 13zM216 567h31q47 0 47 44q0 19 -12.5 31.5t-34.5 12.5h-31v-88zM335 582v21h46v16h-46v20h46v16h-62v-88h62v15h-46zM500 567v88h-21
l-26 -36l-26 36h-21v-88h17v66l30 -39l31 40v-67h16zM540 613q0 13 8 22.5t22 9.5q15 0 23 -9.5t8 -22.5q0 -32 -31 -32q-14 0 -22 10t-8 22zM231 639h16q31 0 31 -28q0 -29 -31 -29h-16v57zM819 480l-149 -480h-180l-76 281l-76 -281h-180l-149 480h182l68 -295l73 295h164
l73 -295l68 295h182z" />
    <glyph glyph-name="Ycircumflex" unicode="&#x176;" horiz-adv-x="728" 
d="M109 914h500v-165h-500v165zM520 880q-19 0 -32 -13.5t-13 -33.5t11.5 -33.5t33.5 -13.5q23 0 35 13.5t12 33.5q0 21 -13.5 34t-33.5 13zM166 787h31q47 0 47 44q0 19 -12.5 31.5t-34.5 12.5h-31v-88zM285 802v21h46v16h-46v20h46v16h-62v-88h62v15h-46zM450 787v88h-21
l-26 -36l-26 36h-21v-88h17v66l30 -39l31 40v-67h16zM490 833q0 13 8 22.5t22 9.5q15 0 23 -9.5t8 -22.5q0 -32 -31 -32q-14 0 -22 10t-8 22zM181 859h16q31 0 31 -28q0 -29 -31 -29h-16v57zM272 0v239l-273 461h210l155 -289l155 289h210l-273 -461v-239h-184z" />
    <glyph glyph-name="ycircumflex" unicode="&#x177;" horiz-adv-x="577" 
d="M28 694h500v-165h-500v165zM439 660q-19 0 -32 -13.5t-13 -33.5t11.5 -33.5t33.5 -13.5q23 0 35 13.5t12 33.5q0 21 -13.5 34t-33.5 13zM85 567h31q47 0 47 44q0 19 -12.5 31.5t-34.5 12.5h-31v-88zM204 582v21h46v16h-46v20h46v16h-62v-88h62v15h-46zM369 567v88h-21
l-26 -36l-26 36h-21v-88h17v66l30 -39l31 40v-67h16zM409 613q0 13 8 22.5t22 9.5q15 0 23 -9.5t8 -22.5q0 -32 -31 -32q-14 0 -22 10t-8 22zM100 639h16q31 0 31 -28q0 -29 -31 -29h-16v57zM395 480h175l-201 -530q-70 -183 -220 -183q-36 0 -88 13v140q34 -8 65 -8
q66 0 100 76l-226 492h180l117 -286z" />
    <glyph glyph-name="Ydieresis" unicode="&#x178;" horiz-adv-x="728" 
d="M616 914v-165h-500v165h500zM527 880q-19 0 -32 -13.5t-13 -33.5t11.5 -33.5t33.5 -13.5q23 0 35 13.5t12 33.5q0 21 -13.5 34t-33.5 13zM173 787h31q47 0 47 44q0 19 -12.5 31.5t-34.5 12.5h-31v-88zM292 802v21h46v16h-46v20h46v16h-62v-88h62v15h-46zM457 787v88h-21
l-26 -36l-26 36h-21v-88h17v66l30 -39l31 40v-67h16zM497 833q0 13 8 22.5t22 9.5q15 0 23 -9.5t8 -22.5q0 -32 -31 -32q-14 0 -22 10t-8 22zM204 859q31 0 31 -28q0 -29 -31 -29h-16v57h16zM272 0v239l-273 461h210l155 -289l155 289h210l-273 -461v-239h-184z" />
    <glyph glyph-name="Zacute" unicode="&#x179;" horiz-adv-x="627" 
d="M84 914h500v-165h-500v165zM495 880q-19 0 -32 -13.5t-13 -33.5t11.5 -33.5t33.5 -13.5q23 0 35 13.5t12 33.5q0 21 -13.5 34t-33.5 13zM141 787h31q47 0 47 44q0 19 -12.5 31.5t-34.5 12.5h-31v-88zM260 802v21h46v16h-46v20h46v16h-62v-88h62v15h-46zM425 787v88h-21
l-26 -36l-26 36h-21v-88h17v66l30 -39l31 40v-67h16zM465 833q0 13 8 22.5t22 9.5q15 0 23 -9.5t8 -22.5q0 -32 -31 -32q-14 0 -22 10t-8 22zM156 859h16q31 0 31 -28q0 -29 -31 -29h-16v57zM30 0v125l304 410h-286v165h536v-125l-305 -410h314v-165h-563z" />
    <glyph glyph-name="zacute" unicode="&#x17a;" horiz-adv-x="492" 
d="M20 694h500v-165h-500v165zM431 660q-19 0 -32 -13.5t-13 -33.5t11.5 -33.5t33.5 -13.5q23 0 35 13.5t12 33.5q0 21 -13.5 34t-33.5 13zM77 567h31q47 0 47 44q0 19 -12.5 31.5t-34.5 12.5h-31v-88zM196 582v21h46v16h-46v20h46v16h-62v-88h62v15h-46zM361 567v88h-21
l-26 -36l-26 36h-21v-88h17v66l30 -39l31 40v-67h16zM401 613q0 13 8 22.5t22 9.5q15 0 23 -9.5t8 -22.5q0 -32 -31 -32q-14 0 -22 10t-8 22zM92 639h16q31 0 31 -28q0 -29 -31 -29h-16v57zM448 480v-100l-194 -240h208v-140h-433v100l195 240h-181v140h405z" />
    <glyph glyph-name="Zdotaccent" unicode="&#x17b;" horiz-adv-x="627" 
d="M64 909h500v-165h-500v165zM475 875q-19 0 -32 -13.5t-13 -33.5t11.5 -33.5t33.5 -13.5q23 0 35 13.5t12 33.5q0 21 -13.5 34t-33.5 13zM121 782h31q47 0 47 44q0 19 -12.5 31.5t-34.5 12.5h-31v-88zM240 797v21h46v16h-46v20h46v16h-62v-88h62v15h-46zM405 782v88h-21
l-26 -36l-26 36h-21v-88h17v66l30 -39l31 40v-67h16zM445 828q0 13 8 22.5t22 9.5q15 0 23 -9.5t8 -22.5q0 -32 -31 -32q-14 0 -22 10t-8 22zM136 854h16q31 0 31 -28q0 -29 -31 -29h-16v57zM30 0v125l304 410h-286v165h536v-125l-305 -410h314v-165h-563z" />
    <glyph glyph-name="zdotaccent" unicode="&#x17c;" horiz-adv-x="492" 
d="M0 689h500v-165h-500v165zM411 655q-19 0 -32 -13.5t-13 -33.5t11.5 -33.5t33.5 -13.5q23 0 35 13.5t12 33.5q0 21 -13.5 34t-33.5 13zM57 562h31q47 0 47 44q0 19 -12.5 31.5t-34.5 12.5h-31v-88zM176 577v21h46v16h-46v20h46v16h-62v-88h62v15h-46zM341 562v88h-21
l-26 -36l-26 36h-21v-88h17v66l30 -39l31 40v-67h16zM381 608q0 13 8 22.5t22 9.5q15 0 23 -9.5t8 -22.5q0 -32 -31 -32q-14 0 -22 10t-8 22zM72 634h16q31 0 31 -28q0 -29 -31 -29h-16v57zM448 480v-100l-194 -240h208v-140h-433v100l195 240h-181v140h405z" />
    <glyph glyph-name="Zcaron" unicode="&#x17d;" horiz-adv-x="627" 
d="M61 914h500v-165h-500v165zM472 880q-19 0 -32 -13.5t-13 -33.5t11.5 -33.5t33.5 -13.5q23 0 35 13.5t12 33.5q0 21 -13.5 34t-33.5 13zM118 787h31q47 0 47 44q0 19 -12.5 31.5t-34.5 12.5h-31v-88zM237 802v21h46v16h-46v20h46v16h-62v-88h62v15h-46zM402 787v88h-21
l-26 -36l-26 36h-21v-88h17v66l30 -39l31 40v-67h16zM442 833q0 13 8 22.5t22 9.5q15 0 23 -9.5t8 -22.5q0 -32 -31 -32q-14 0 -22 10t-8 22zM133 859h16q31 0 31 -28q0 -29 -31 -29h-16v57zM30 0v125l304 410h-286v165h536v-125l-305 -410h314v-165h-563z" />
    <glyph glyph-name="zcaron" unicode="&#x17e;" horiz-adv-x="492" 
d="M-3 694h500v-165h-500v165zM408 660q-19 0 -32 -13.5t-13 -33.5t11.5 -33.5t33.5 -13.5q23 0 35 13.5t12 33.5q0 21 -13.5 34t-33.5 13zM54 567h31q47 0 47 44q0 19 -12.5 31.5t-34.5 12.5h-31v-88zM173 582v21h46v16h-46v20h46v16h-62v-88h62v15h-46zM338 567v88h-21
l-26 -36l-26 36h-21v-88h17v66l30 -39l31 40v-67h16zM378 613q0 13 8 22.5t22 9.5q15 0 23 -9.5t8 -22.5q0 -32 -31 -32q-14 0 -22 10t-8 22zM69 639h16q31 0 31 -28q0 -29 -31 -29h-16v57zM448 480v-100l-194 -240h208v-140h-433v100l195 240h-181v140h405z" />
    <glyph glyph-name="uni0218" unicode="&#x218;" horiz-adv-x="621" 
d="M41 509q0 100 74.5 153t189.5 53q137 0 235 -56v-170q-90 68 -220 66q-89 -1 -89 -45q0 -21 27 -37.5t67.5 -28t87.5 -31t87.5 -43.5t67.5 -68.5t27 -102.5q0 -214 -280 -214q-153 0 -269 64v175q115 -79 255 -79q56 0 80 10.5t24 36.5q0 27 -37.5 47t-91 37.5t-107 41.5
t-91 73t-37.5 118zM91 -201h500v165h-500v-165zM502 -70q20 0 33.5 -13t13.5 -34q0 -20 -12 -33.5t-35 -13.5q-22 0 -33.5 13.5t-11.5 33.5t13 33.5t32 13.5zM148 -75h31q22 0 34.5 -12.5t12.5 -31.5q0 -44 -47 -44h-31v88zM313 -148v-15h-62v88h62v-16h-46v-20h46v-16h-46
v-21h46zM416 -163v67l-31 -40l-30 39v-66h-17v88h21l26 -36l26 36h21v-88h-16zM472 -117q0 -12 8 -22t22 -10q31 0 31 32q0 13 -8 22.5t-23 9.5q-14 0 -22 -9.5t-8 -22.5zM163 -148h16q31 0 31 29q0 28 -31 28h-16v-57z" />
    <glyph glyph-name="uni0219" unicode="&#x219;" horiz-adv-x="486" 
d="M34 342q0 81 59 117t150 36q94 0 181 -41v-135q-32 22 -79.5 36.5t-89.5 14.5q-46 0 -46 -24q0 -18 26 -29.5t63 -21.5t74 -24.5t63 -47.5t26 -83q0 -155 -229 -155q-116 0 -193 44v135q77 -51 184 -51q63 0 63 24q0 17 -26 28.5t-63 21.5t-74 25.5t-63 48.5t-26 81z
M27 -201h500v165h-500v-165zM438 -70q20 0 33.5 -13t13.5 -34q0 -20 -12 -33.5t-35 -13.5q-22 0 -33.5 13.5t-11.5 33.5t13 33.5t32 13.5zM84 -75h31q22 0 34.5 -12.5t12.5 -31.5q0 -44 -47 -44h-31v88zM249 -148v-15h-62v88h62v-16h-46v-20h46v-16h-46v-21h46zM352 -163v67
l-31 -40l-30 39v-66h-17v88h21l26 -36l26 36h21v-88h-16zM408 -117q0 -12 8 -22t22 -10q31 0 31 32q0 13 -8 22.5t-23 9.5q-14 0 -22 -9.5t-8 -22.5zM99 -148h16q31 0 31 29q0 28 -31 28h-16v-57z" />
    <glyph glyph-name="uni021A" unicode="&#x21a;" horiz-adv-x="606" 
d="M593 700v-165h-197v-535h-185v535h-198v165h580zM80 -201h500v165h-500v-165zM491 -70q20 0 33.5 -13t13.5 -34q0 -20 -12 -33.5t-35 -13.5q-22 0 -33.5 13.5t-11.5 33.5t13 33.5t32 13.5zM137 -75h31q22 0 34.5 -12.5t12.5 -31.5q0 -44 -47 -44h-31v88zM302 -148v-15
h-62v88h62v-16h-46v-20h46v-16h-46v-21h46zM405 -163v67l-31 -40l-30 39v-66h-17v88h21l26 -36l26 36h21v-88h-16zM461 -117q0 -12 8 -22t22 -10q31 0 31 32q0 13 -8 22.5t-23 9.5q-14 0 -22 -9.5t-8 -22.5zM152 -148h16q31 0 31 29q0 28 -31 28h-16v-57z" />
    <glyph glyph-name="uni021B" unicode="&#x21b;" horiz-adv-x="422" 
d="M259 655v-175h130v-140h-130v-156q0 -59 63 -59q42 0 77 12v-132q-58 -20 -130 -20q-79 0 -129.5 38.5t-50.5 126.5v190h-76v140h76v135zM26 -201h500v165h-500v-165zM437 -70q20 0 33.5 -13t13.5 -34q0 -20 -12 -33.5t-35 -13.5q-22 0 -33.5 13.5t-11.5 33.5t13 33.5
t32 13.5zM83 -75h31q22 0 34.5 -12.5t12.5 -31.5q0 -44 -47 -44h-31v88zM248 -148v-15h-62v88h62v-16h-46v-20h46v-16h-46v-21h46zM351 -163v67l-31 -40l-30 39v-66h-17v88h21l26 -36l26 36h21v-88h-16zM407 -117q0 -12 8 -22t22 -10q31 0 31 32q0 13 -8 22.5t-23 9.5
q-14 0 -22 -9.5t-8 -22.5zM98 -148h16q31 0 31 29q0 28 -31 28h-16v-57z" />
    <glyph glyph-name="circumflex" unicode="&#x2c6;" horiz-adv-x="390" 
d="M-58 914h500v-165h-500v165zM353 880q-19 0 -32 -13.5t-13 -33.5t11.5 -33.5t33.5 -13.5q23 0 35 13.5t12 33.5q0 21 -13.5 34t-33.5 13zM-1 787h31q47 0 47 44q0 19 -12.5 31.5t-34.5 12.5h-31v-88zM118 802v21h46v16h-46v20h46v16h-62v-88h62v15h-46zM283 787v88h-21
l-26 -36l-26 36h-21v-88h17v66l30 -39l31 40v-67h16zM323 833q0 13 8 22.5t22 9.5q15 0 23 -9.5t8 -22.5q0 -32 -31 -32q-14 0 -22 10t-8 22zM14 859h16q31 0 31 -28q0 -29 -31 -29h-16v57z" />
    <glyph glyph-name="caron" unicode="&#x2c7;" horiz-adv-x="390" 
d="M-62 914h500v-165h-500v165zM349 880q-19 0 -32 -13.5t-13 -33.5t11.5 -33.5t33.5 -13.5q23 0 35 13.5t12 33.5q0 21 -13.5 34t-33.5 13zM-5 787h31q47 0 47 44q0 19 -12.5 31.5t-34.5 12.5h-31v-88zM114 802v21h46v16h-46v20h46v16h-62v-88h62v15h-46zM279 787v88h-21
l-26 -36l-26 36h-21v-88h17v66l30 -39l31 40v-67h16zM319 833q0 13 8 22.5t22 9.5q15 0 23 -9.5t8 -22.5q0 -32 -31 -32q-14 0 -22 10t-8 22zM10 859h16q31 0 31 -28q0 -29 -31 -29h-16v57z" />
    <glyph glyph-name="breve" unicode="&#x2d8;" horiz-adv-x="370" 
d="M-76 914h500v-165h-500v165zM335 880q-19 0 -32 -13.5t-13 -33.5t11.5 -33.5t33.5 -13.5q23 0 35 13.5t12 33.5q0 21 -13.5 34t-33.5 13zM-19 787h31q47 0 47 44q0 19 -12.5 31.5t-34.5 12.5h-31v-88zM100 802v21h46v16h-46v20h46v16h-62v-88h62v15h-46zM265 787v88h-21
l-26 -36l-26 36h-21v-88h17v66l30 -39l31 40v-67h16zM305 833q0 13 8 22.5t22 9.5q15 0 23 -9.5t8 -22.5q0 -32 -31 -32q-14 0 -22 10t-8 22zM-4 859h16q31 0 31 -28q0 -29 -31 -29h-16v57z" />
    <glyph glyph-name="dotaccent" unicode="&#x2d9;" horiz-adv-x="180" 
d="M-164 914h500v-165h-500v165zM247 880q-19 0 -32 -13.5t-13 -33.5t11.5 -33.5t33.5 -13.5q23 0 35 13.5t12 33.5q0 21 -13.5 34t-33.5 13zM-107 787h31q47 0 47 44q0 19 -12.5 31.5t-34.5 12.5h-31v-88zM12 802v21h46v16h-46v20h46v16h-62v-88h62v15h-46zM177 787v88h-21
l-26 -36l-26 36h-21v-88h17v66l30 -39l31 40v-67h16zM217 833q0 13 8 22.5t22 9.5q15 0 23 -9.5t8 -22.5q0 -32 -31 -32q-14 0 -22 10t-8 22zM-92 859h16q31 0 31 -28q0 -29 -31 -29h-16v57z" />
    <glyph glyph-name="ring" unicode="&#x2da;" horiz-adv-x="260" 
d="M-106 914h500v-165h-500v165zM305 880q-19 0 -32 -13.5t-13 -33.5t11.5 -33.5t33.5 -13.5q23 0 35 13.5t12 33.5q0 21 -13.5 34t-33.5 13zM-49 787h31q47 0 47 44q0 19 -12.5 31.5t-34.5 12.5h-31v-88zM70 802v21h46v16h-46v20h46v16h-62v-88h62v15h-46zM235 787v88h-21
l-26 -36l-26 36h-21v-88h17v66l30 -39l31 40v-67h16zM275 833q0 13 8 22.5t22 9.5q15 0 23 -9.5t8 -22.5q0 -32 -31 -32q-14 0 -22 10t-8 22zM-34 859h16q31 0 31 -28q0 -29 -31 -29h-16v57z" />
    <glyph glyph-name="ogonek" unicode="&#x2db;" horiz-adv-x="230" 
d="M-131 -23h500v-165h-500v165zM280 -57q-19 0 -32 -13.5t-13 -33.5t11.5 -33.5t33.5 -13.5q23 0 35 13.5t12 33.5q0 21 -13.5 34t-33.5 13zM-74 -150h31q47 0 47 44q0 19 -12.5 31.5t-34.5 12.5h-31v-88zM45 -135v21h46v16h-46v20h46v16h-62v-88h62v15h-46zM210 -150v88
h-21l-26 -36l-26 36h-21v-88h17v66l30 -39l31 40v-67h16zM250 -104q0 13 8 22.5t22 9.5q15 0 23 -9.5t8 -22.5q0 -32 -31 -32q-14 0 -22 10t-8 22zM-59 -78h16q31 0 31 -28q0 -29 -31 -29h-16v57z" />
    <glyph glyph-name="tilde" unicode="&#x2dc;" horiz-adv-x="427" 
d="M-40 914h500v-165h-500v165zM371 880q-19 0 -32 -13.5t-13 -33.5t11.5 -33.5t33.5 -13.5q23 0 35 13.5t12 33.5q0 21 -13.5 34t-33.5 13zM17 787h31q47 0 47 44q0 19 -12.5 31.5t-34.5 12.5h-31v-88zM136 802v21h46v16h-46v20h46v16h-62v-88h62v15h-46zM301 787v88h-21
l-26 -36l-26 36h-21v-88h17v66l30 -39l31 40v-67h16zM341 833q0 13 8 22.5t22 9.5q15 0 23 -9.5t8 -22.5q0 -32 -31 -32q-14 0 -22 10t-8 22zM32 859h16q31 0 31 -28q0 -29 -31 -29h-16v57z" />
    <glyph glyph-name="hungarumlaut" unicode="&#x2dd;" horiz-adv-x="460" 
d="M-21 914h500v-165h-500v165zM390 880q-19 0 -32 -13.5t-13 -33.5t11.5 -33.5t33.5 -13.5q23 0 35 13.5t12 33.5q0 21 -13.5 34t-33.5 13zM36 787h31q47 0 47 44q0 19 -12.5 31.5t-34.5 12.5h-31v-88zM155 802v21h46v16h-46v20h46v16h-62v-88h62v15h-46zM320 787v88h-21
l-26 -36l-26 36h-21v-88h17v66l30 -39l31 40v-67h16zM360 833q0 13 8 22.5t22 9.5q15 0 23 -9.5t8 -22.5q0 -32 -31 -32q-14 0 -22 10t-8 22zM51 859h16q31 0 31 -28q0 -29 -31 -29h-16v57z" />
    <glyph glyph-name="uni0326" unicode="&#x326;" horiz-adv-x="0" 
d="M-266 -36h500v-165h-500v165zM145 -70q-19 0 -32 -13.5t-13 -33.5t11.5 -33.5t33.5 -13.5q23 0 35 13.5t12 33.5q0 21 -13.5 34t-33.5 13zM-209 -163h31q47 0 47 44q0 19 -12.5 31.5t-34.5 12.5h-31v-88zM-90 -148v21h46v16h-46v20h46v16h-62v-88h62v15h-46zM75 -163v88
h-21l-26 -36l-26 36h-21v-88h17v66l30 -39l31 40v-67h16zM115 -117q0 13 8 22.5t22 9.5q15 0 23 -9.5t8 -22.5q0 -32 -31 -32q-14 0 -22 10t-8 22zM-194 -91h16q31 0 31 -28q0 -29 -31 -29h-16v57z" />
    <glyph glyph-name="uni0401" unicode="&#x401;" horiz-adv-x="617" 
d="M582 914v-165h-500v165h500zM493 880q-19 0 -32 -13.5t-13 -33.5t11.5 -33.5t33.5 -13.5q23 0 35 13.5t12 33.5q0 21 -13.5 34t-33.5 13zM139 787h31q47 0 47 44q0 19 -12.5 31.5t-34.5 12.5h-31v-88zM258 802v21h46v16h-46v20h46v16h-62v-88h62v15h-46zM423 787v88h-21
l-26 -36l-26 36h-21v-88h17v66l30 -39l31 40v-67h16zM463 833q0 13 8 22.5t22 9.5q15 0 23 -9.5t8 -22.5q0 -32 -31 -32q-14 0 -22 10t-8 22zM170 859q31 0 31 -28q0 -29 -31 -29h-16v57h16zM570 700v-160h-319v-107h289v-159h-289v-114h325v-160h-510v700h504z" />
    <glyph glyph-name="uni0410" unicode="&#x410;" horiz-adv-x="752" 
d="M1 0l275 700h200l275 -700h-190l-40 110h-290l-40 -110h-190zM286 260h180l-72 202q-12 34 -18 71q-6 -37 -18 -71z" />
    <glyph glyph-name="uni0411" unicode="&#x411;" horiz-adv-x="680" 
d="M389 452q56 0 102 -11t84.5 -36t59.5 -70.5t21 -108.5t-21 -108.5t-59.5 -70.5t-84.5 -36t-102 -11h-323v700h531v-165h-346v-83h138zM387 160q79 0 79 66t-79 66h-136v-132h136z" />
    <glyph glyph-name="uni0412" unicode="&#x412;" horiz-adv-x="684" 
d="M382 700q118 0 181.5 -44t63.5 -133q0 -115 -104 -152q132 -39 132 -173q0 -57 -25 -97.5t-68.5 -61.5t-90 -30t-101.5 -9h-304v700h316zM442 490q0 30 -20.5 47.5t-56.5 17.5h-114v-129l114 -1q36 0 56.5 17.5t20.5 47.5zM469 218q0 73 -93 73h-126v-146h126q93 0 93 73
z" />
    <glyph glyph-name="uni0413" unicode="&#x413;" horiz-adv-x="582" 
d="M66 0v700h505v-165h-320v-535h-185z" />
    <glyph glyph-name="uni0414" unicode="&#x414;" horiz-adv-x="829" 
d="M21 -145v305h80q110 196 110 540h500v-540h90v-305h-160v145h-460v-145h-160zM381 535q-18 -251 -85 -375h230v375h-145z" />
    <glyph glyph-name="uni0415" unicode="&#x415;" horiz-adv-x="617" 
d="M570 700v-160h-319v-107h289v-159h-289v-114h325v-160h-510v700h504z" />
    <glyph glyph-name="uni0416" unicode="&#x416;" horiz-adv-x="1013" 
d="M2 0l200 359l-190 341h205l136 -265h61v265h185v-265h61l136 265h205l-190 -341l200 -359h-205l-147 270h-60v-270h-185v270h-60l-147 -270h-205z" />
    <glyph glyph-name="uni0417" unicode="&#x417;" horiz-adv-x="629" 
d="M597 191q0 -57 -25.5 -99t-69 -64t-93.5 -32.5t-107 -10.5q-132 0 -265 46v175q118 -58 250 -56q124 0 124 70q0 59 -93 59h-166l1 160l154 -1q77 0 77 51q0 61 -115 61q-102 2 -220 -56v175q113 46 235 46q133 0 209 -49t76 -145q0 -111 -110 -149q63 -19 100.5 -64.5
t37.5 -116.5z" />
    <glyph glyph-name="uni0418" unicode="&#x418;" horiz-adv-x="762" 
d="M511 0v286q0 71 4 115l-274 -401h-175v700h185v-286q0 -72 -4 -116l274 402h175v-700h-185z" />
    <glyph glyph-name="uni0419" unicode="&#x419;" horiz-adv-x="762" 
d="M120 919h500v-165h-500v165zM531 885q-19 0 -32 -13.5t-13 -33.5t11.5 -33.5t33.5 -13.5q23 0 35 13.5t12 33.5q0 21 -13.5 34t-33.5 13zM177 792h31q47 0 47 44q0 19 -12.5 31.5t-34.5 12.5h-31v-88zM296 807v21h46v16h-46v20h46v16h-62v-88h62v15h-46zM461 792v88h-21
l-26 -36l-26 36h-21v-88h17v66l30 -39l31 40v-67h16zM501 838q0 13 8 22.5t22 9.5q15 0 23 -9.5t8 -22.5q0 -32 -31 -32q-14 0 -22 10t-8 22zM192 864h16q31 0 31 -28q0 -29 -31 -29h-16v57zM511 0v286q0 71 4 115l-274 -401h-175v700h185v-286q0 -72 -4 -116l274 402h175
v-700h-185z" />
    <glyph glyph-name="uni041A" unicode="&#x41a;" horiz-adv-x="706" 
d="M66 0v700h185v-265h88l159 265h205l-220 -341l230 -359h-205l-170 270h-87v-270h-185z" />
    <glyph glyph-name="uni041B" unicode="&#x41b;" horiz-adv-x="754" 
d="M688 700v-700h-185v535h-151q-6 -83 -13 -141t-19 -126.5t-30 -113t-44.5 -84.5t-64.5 -59.5t-87 -19.5q-43 0 -86 14v161q22 -7 48 -4q23 2 41.5 21t30.5 55t20.5 73t14 93t8 97.5t6.5 104t6 94.5h505z" />
    <glyph glyph-name="uni041C" unicode="&#x41c;" horiz-adv-x="908" 
d="M842 700v-700h-185v372l-150 -230h-106l-150 231v-373h-185v700h175l213 -328l213 328h175z" />
    <glyph glyph-name="uni041D" unicode="&#x41d;" horiz-adv-x="762" 
d="M696 700v-700h-185v267h-260v-267h-185v700h185v-268h260v268h185z" />
    <glyph glyph-name="uni041E" unicode="&#x41e;" horiz-adv-x="812" 
d="M31 350q0 155 98 260t277 105t277 -105t98 -260t-98 -260t-277 -105t-277 105t-98 260zM591 350q0 87 -48.5 141t-136.5 54t-136.5 -54t-48.5 -141t48.5 -141t136.5 -54t136.5 54t48.5 141z" />
    <glyph glyph-name="uni041F" unicode="&#x41f;" horiz-adv-x="762" 
d="M66 0v700h630v-700h-185v535h-260v-535h-185z" />
    <glyph glyph-name="uni0420" unicode="&#x420;" horiz-adv-x="670" 
d="M343 700q305 0 305 -240q0 -238 -305 -240h-92v-220h-185v700h277zM458 460q0 80 -106 80h-101v-160h101q106 0 106 80z" />
    <glyph glyph-name="uni0421" unicode="&#x421;" horiz-adv-x="655" 
d="M32 340q0 95 32 169t87 118t121 66t139 22q110 0 203 -44v-175q-68 57 -171 57q-92 0 -156.5 -53.5t-64.5 -159.5q0 -95 64 -143.5t155 -48.5q115 0 178 61v-180q-93 -44 -204 -44q-75 0 -141.5 21t-121.5 62.5t-87.5 111.5t-32.5 160z" />
    <glyph glyph-name="uni0422" unicode="&#x422;" horiz-adv-x="606" 
d="M593 700v-165h-197v-535h-185v535h-198v165h580z" />
    <glyph glyph-name="uni0423" unicode="&#x423;" horiz-adv-x="685" 
d="M435 160q-45 -96 -102 -135.5t-133 -39.5q-46 0 -112 19v153q37 -14 81 -14q70 0 91 48l11 24l-273 485h205l154 -319l126 319h205z" />
    <glyph glyph-name="uni0424" unicode="&#x424;" horiz-adv-x="884" 
d="M357 -40v86q-157 8 -248.5 88t-91.5 216t91.5 216t248.5 88v86h175v-86q155 -10 245 -89.5t90 -214.5t-90 -214.5t-245 -89.5v-86h-175zM202 350q0 -59 35 -102t120 -51v306q-85 -8 -120 -51t-35 -102zM532 197q82 10 116 52.5t34 100.5t-34 100.5t-116 52.5v-306z" />
    <glyph glyph-name="uni0425" unicode="&#x425;" horiz-adv-x="694" 
d="M-11 0l240 364l-225 336h216l127 -206l127 206h216l-225 -336l240 -364h-216l-142 235l-142 -235h-216z" />
    <glyph glyph-name="uni0426" unicode="&#x426;" horiz-adv-x="814" 
d="M626 -145v145h-560v700h185v-535h260v535h185v-535h90v-310h-160z" />
    <glyph glyph-name="uni0427" unicode="&#x427;" horiz-adv-x="703" 
d="M452 0v238q-87 -26 -162 -26q-118 0 -186.5 61.5t-68.5 180.5v246h185v-236q0 -41 32.5 -63t84.5 -22q57 0 115 24v297h185v-700h-185z" />
    <glyph glyph-name="uni0428" unicode="&#x428;" horiz-adv-x="1047" 
d="M66 0v700h185v-535h180v535h185v-535h180v535h185v-700h-915z" />
    <glyph glyph-name="uni0429" unicode="&#x429;" horiz-adv-x="1099" 
d="M911 -145v145h-845v700h185v-535h180v535h185v-535h180v535h185v-535h90v-310h-160z" />
    <glyph glyph-name="uni042A" unicode="&#x42a;" horiz-adv-x="778" 
d="M175 0v535h-160v165h345v-220h92q305 -2 305 -240q0 -240 -305 -240h-277zM360 160h101q106 0 106 80t-106 80h-101v-160z" />
    <glyph glyph-name="uni042B" unicode="&#x42b;" horiz-adv-x="944" 
d="M66 0v700h185v-220h92q305 -2 305 -240q0 -240 -305 -240h-277zM693 0v700h185v-700h-185zM251 160h101q106 0 106 80t-106 80h-101v-160z" />
    <glyph glyph-name="uni042C" unicode="&#x42c;" horiz-adv-x="669" 
d="M66 0v700h185v-220h92q305 -2 305 -240q0 -240 -305 -240h-277zM251 160h101q106 0 106 80t-106 80h-101v-160z" />
    <glyph glyph-name="uni042D" unicode="&#x42d;" horiz-adv-x="657" 
d="M43 671q93 44 203 44q73 0 139 -22t121 -66t87 -118t32 -169q0 -90 -32.5 -160t-87.5 -111.5t-121.5 -62.5t-141.5 -21q-106 0 -199 44v180q62 -59 171 -59q57 0 99 9t77.5 37.5t47.5 76.5h-290v155h287q-20 69 -75 95t-142 27q-110 0 -175 -54v175z" />
    <glyph glyph-name="uni042E" unicode="&#x42e;" horiz-adv-x="1112" 
d="M1081 350q0 -155 -98 -260t-277 -105q-151 0 -244 80t-115 203h-96v-268h-185v700h185v-267h96q22 122 115 202t244 80q179 0 277 -105t98 -260zM521 350q0 -87 48.5 -141t136.5 -54t136.5 54t48.5 141t-48.5 141t-136.5 54t-136.5 -54t-48.5 -141z" />
    <glyph glyph-name="uni042F" unicode="&#x42f;" horiz-adv-x="701" 
d="M9 0l189 253q-145 54 -145 206q0 123 81 182t206 59h295v-700h-185v228h-65l-165 -228h-211zM243 459q0 -81 99 -81h108v162h-108q-99 0 -99 -81z" />
    <glyph glyph-name="uni0430" unicode="&#x430;" horiz-adv-x="576" 
d="M505 137q0 -30 33 -30q10 0 19 3v-105q-38 -15 -86 -15q-80 0 -114 53q-74 -58 -167 -58q-71 0 -119 40t-48 108q0 43 19 75.5t50.5 49.5t66 25t72.5 8q54 0 104 -11v17q0 27 -25.5 43.5t-74.5 16.5q-76 0 -168 -37v143q98 32 187 32q123 0 187 -51t64 -173v-134z
M198 147q0 -20 16 -33.5t42 -13.5q45 0 79 25v65q-27 9 -61 9q-76 0 -76 -52z" />
    <glyph glyph-name="uni0431" unicode="&#x431;" horiz-adv-x="583" 
d="M554 215q0 -111 -73 -170.5t-187 -59.5q-115 0 -187.5 70.5t-72.5 224.5q0 232 147 324q58 36 128.5 51t123 24.5t79.5 35.5v-150q-34 -31 -113.5 -40.5t-115.5 -27.5q-34 -17 -54 -52t-20 -67q54 67 145 67q89 0 144.5 -60.5t55.5 -169.5zM209 215q0 -16 3 -30.5
t11 -31.5t26.5 -27.5t44.5 -10.5t44.5 10.5t26.5 27.5t11 31.5t3 30.5t-3 30.5t-11 31.5t-26.5 27.5t-44.5 10.5t-44.5 -10.5t-26.5 -27.5t-11 -31.5t-3 -30.5z" />
    <glyph glyph-name="uni0432" unicode="&#x432;" horiz-adv-x="551" 
d="M51 0v480h298q88 0 125.5 -37.5t37.5 -87.5q0 -83 -78 -113q88 -28 88 -114q0 -55 -38 -91.5t-127 -36.5h-306zM221 286h69q52 0 52 42q0 44 -53 44h-68v-86zM222 108h78q52 0 52 42q0 44 -53 44h-77v-86z" />
    <glyph glyph-name="uni0433" unicode="&#x433;" horiz-adv-x="439" 
d="M51 0v480h374v-140h-204v-340h-170z" />
    <glyph glyph-name="uni0434" unicode="&#x434;" horiz-adv-x="661" 
d="M18 -125v250h69q70 121 63 355h415v-355h73v-250h-155v125h-310v-125h-155zM305 355q-4 -142 -44 -230h134v230h-90z" />
    <glyph glyph-name="uni0435" unicode="&#x435;" horiz-adv-x="547" 
d="M27 240q0 67 24 118.5t63 80t81 42.5t84 14q60 0 107 -18t74.5 -48t44.5 -69.5t16.5 -83t-8.5 -87.5h-314q27 -74 153 -74q77 0 138 23v-126q-76 -27 -178 -27q-123 0 -204 67.5t-81 187.5zM358 291q5 24 -12.5 52.5t-62.5 28.5q-36 0 -61 -22t-25 -59h161z" />
    <glyph glyph-name="uni0436" unicode="&#x436;" horiz-adv-x="806" 
d="M626 0l-96 167h-42v-167h-170v167h-42l-96 -167h-180l152 241l-142 239h180l97 -183h31v183h170v-183h31l97 183h180l-142 -239l152 -241h-180z" />
    <glyph glyph-name="uni0437" unicode="&#x437;" horiz-adv-x="493" 
d="M464 135q0 -59 -60.5 -104t-186.5 -45q-113 0 -186 41v130q28 -16 75 -29t89 -13q94 0 94 42q0 22 -21.5 28.5t-63.5 6.5h-80v102h80q75 0 75 35q0 38 -74 38q-39 0 -88 -13t-76 -29v130q73 41 186 41q65 0 112 -13.5t70.5 -36t34 -46t10.5 -49.5q0 -40 -22 -66.5
t-55 -37.5q87 -27 87 -112z" />
    <glyph glyph-name="uni0438" unicode="&#x438;" horiz-adv-x="592" 
d="M51 0v480h170v-227l171 227h149v-480h-170v227l-171 -227h-149z" />
    <glyph glyph-name="uni0439" unicode="&#x439;" horiz-adv-x="592" 
d="M456 568q-70 -39 -160 -39t-160 39v122q67 -35 160 -35q92 0 160 35v-122zM51 0v480h170v-227l171 227h149v-480h-170v227l-171 -227h-149z" />
    <glyph glyph-name="uni043A" unicode="&#x43a;" horiz-adv-x="562" 
d="M51 0v480h170v-168h38l105 168h190l-156 -236l166 -244h-189l-118 182h-36v-182h-170z" />
    <glyph glyph-name="uni043B" unicode="&#x43b;" horiz-adv-x="590" 
d="M284 350q-5 -81 -15.5 -141.5t-31 -113t-56 -79.5t-84.5 -27q-39 0 -86 16v135q15 -6 27 -6q18 0 31 11.5t22.5 36.5t15.5 51.5t10.5 72t6.5 81t5 93.5h410v-480h-170v350h-85z" />
    <glyph glyph-name="uni043C" unicode="&#x43c;" horiz-adv-x="688" 
d="M51 0v480h157l136 -223l136 223h157v-480h-166v240l-90 -147h-74l-90 147v-240h-166z" />
    <glyph glyph-name="uni043D" unicode="&#x43d;" horiz-adv-x="592" 
d="M51 0v480h170v-170h150v170h170v-480h-170v170h-150v-170h-170z" />
    <glyph glyph-name="uni043E" unicode="&#x43e;" horiz-adv-x="594" 
d="M27 240q0 122 77.5 188.5t192.5 66.5t192.5 -66.5t77.5 -188.5t-77.5 -188.5t-192.5 -66.5t-192.5 66.5t-77.5 188.5zM392 240q0 45 -23 75t-72 30t-72 -30t-23 -75t23 -75t72 -30t72 30t23 75z" />
    <glyph glyph-name="uni043F" unicode="&#x43f;" horiz-adv-x="592" 
d="M51 0v480h490v-480h-170v340h-150v-340h-170z" />
    <glyph glyph-name="uni0440" unicode="&#x440;" horiz-adv-x="624" 
d="M201 415q20 34 61.5 57t101.5 23q58 0 104 -22t73 -59t41 -81.5t14 -92.5t-14 -92.5t-41 -81.5t-73 -59t-104 -22q-91 0 -143 54v-259h-170v700h150v-65zM421 240q0 47 -26.5 81t-76.5 34q-33 0 -59 -17.5t-38 -42.5v-110q12 -25 38 -42.5t59 -17.5q50 0 76.5 34t26.5 81
z" />
    <glyph glyph-name="uni0441" unicode="&#x441;" horiz-adv-x="492" 
d="M27 230q0 132 81.5 199t195.5 67q79 0 148 -33v-145q-57 33 -122 33q-56 0 -92 -27t-36 -84q0 -54 36 -82t89 -28q74 0 130 32v-145q-77 -32 -165 -32q-110 0 -187.5 62.5t-77.5 182.5z" />
    <glyph glyph-name="uni0442" unicode="&#x442;" horiz-adv-x="480" 
d="M155 0v340h-140v140h450v-140h-140v-340h-170z" />
    <glyph glyph-name="uni0443" unicode="&#x443;" horiz-adv-x="577" 
d="M395 480h175l-201 -530q-70 -183 -220 -183q-36 0 -88 13v140q34 -8 65 -8q66 0 100 76l-226 492h180l117 -286z" />
    <glyph glyph-name="uni0444" unicode="&#x444;" horiz-adv-x="762" 
d="M301 -220v205q-122 5 -198.5 73.5t-76.5 181.5t76.5 181.5t198.5 73.5v205h160v-205q122 -5 198.5 -73.5t76.5 -181.5t-76.5 -181.5t-198.5 -73.5v-205h-160zM196 240q0 -44 25.5 -77.5t79.5 -37.5v230q-54 -4 -79.5 -37.5t-25.5 -77.5zM461 125q54 4 79.5 37.5
t25.5 77.5t-25.5 77.5t-79.5 37.5v-230z" />
    <glyph glyph-name="uni0445" unicode="&#x445;" horiz-adv-x="552" 
d="M547 480l-172 -241l181 -239h-192l-88 124l-88 -124h-192l181 239l-172 241h192l79 -126l79 126h192z" />
    <glyph glyph-name="uni0446" unicode="&#x446;" horiz-adv-x="639" 
d="M459 -125v125h-408v480h170v-340h150v340h170v-345h73v-260h-155z" />
    <glyph glyph-name="uni0447" unicode="&#x447;" horiz-adv-x="550" 
d="M329 0v141q-51 -18 -112 -18q-80 0 -134 46.5t-54 137.5v173h170v-157q0 -60 64 -60q36 0 66 12v205h170v-480h-170z" />
    <glyph glyph-name="uni0448" unicode="&#x448;" horiz-adv-x="812" 
d="M51 0v480h170v-340h100v340h170v-340h100v340h170v-480h-710z" />
    <glyph glyph-name="uni0449" unicode="&#x449;" horiz-adv-x="859" 
d="M679 -125v125h-628v480h170v-340h100v340h170v-340h100v340h170v-345h73v-260h-155z" />
    <glyph glyph-name="uni044A" unicode="&#x44a;" horiz-adv-x="613" 
d="M397 340q94 0 146 -48t52 -122t-52 -122t-146 -48h-262v350h-120v130h290v-140h92zM351 115q33 0 51 15t18 40t-18 40t-51 15h-46v-110h46z" />
    <glyph glyph-name="uni044B" unicode="&#x44b;" horiz-adv-x="802" 
d="M51 0v480h170v-140h92q94 0 146 -48t52 -122t-52 -122t-146 -48h-262zM581 0v480h170v-480h-170zM221 115h46q33 0 51 15t18 40t-18 40t-51 15h-46v-110z" />
    <glyph glyph-name="uni044C" unicode="&#x44c;" horiz-adv-x="529" 
d="M51 0v480h170v-140h92q94 0 146 -48t52 -122t-52 -122t-146 -48h-262zM221 115h46q33 0 51 15t18 40t-18 40t-51 15h-46v-110z" />
    <glyph glyph-name="uni044D" unicode="&#x44d;" horiz-adv-x="506" 
d="M479 230q0 -50 -16 -91.5t-42 -69.5t-60.5 -47.5t-71 -28t-73.5 -8.5q-59 0 -98 9.5t-84 32.5v135q62 -42 145 -42q106 0 130 60h-185v120h185q-27 60 -130 60q-78 0 -140 -42v135q71 42 162 42q74 0 135 -26t102 -87.5t41 -151.5z" />
    <glyph glyph-name="uni044E" unicode="&#x44e;" horiz-adv-x="843" 
d="M816 240q0 -122 -77.5 -188.5t-192.5 -66.5q-92 0 -162.5 49.5t-90.5 140.5h-72v-175h-170v480h170v-175h72q20 91 90.5 140.5t162.5 49.5q115 0 192.5 -66.5t77.5 -188.5zM451 240q0 -48 22 -81.5t73 -33.5t73 33.5t22 81.5t-22 81.5t-73 33.5t-73 -33.5t-22 -81.5z" />
    <glyph glyph-name="uni044F" unicode="&#x44f;" horiz-adv-x="563" 
d="M12 0l119 154q-43 23 -66.5 63t-23.5 88q0 74 52.5 124.5t145.5 50.5h273v-480h-170v130h-47l-94 -130h-189zM216 300q0 -50 64 -50h62v100h-62q-64 0 -64 -50z" />
    <glyph glyph-name="uni0451" unicode="&#x451;" horiz-adv-x="547" 
d="M532 694v-165h-500v165h500zM443 660q-19 0 -32 -13.5t-13 -33.5t11.5 -33.5t33.5 -13.5q23 0 35 13.5t12 33.5q0 21 -13.5 34t-33.5 13zM89 567h31q47 0 47 44q0 19 -12.5 31.5t-34.5 12.5h-31v-88zM208 582v21h46v16h-46v20h46v16h-62v-88h62v15h-46zM373 567v88h-21
l-26 -36l-26 36h-21v-88h17v66l30 -39l31 40v-67h16zM413 613q0 13 8 22.5t22 9.5q15 0 23 -9.5t8 -22.5q0 -32 -31 -32q-14 0 -22 10t-8 22zM120 639q31 0 31 -28q0 -29 -31 -29h-16v57h16zM27 240q0 67 24 118.5t63 80t81 42.5t84 14q60 0 107 -18t74.5 -48t44.5 -69.5
t16.5 -83t-8.5 -87.5h-314q27 -74 153 -74q77 0 138 23v-126q-76 -27 -178 -27q-123 0 -204 67.5t-81 187.5zM358 291q5 24 -12.5 52.5t-62.5 28.5q-36 0 -61 -22t-25 -59h161z" />
    <glyph glyph-name="Wgrave" unicode="&#x1e80;" horiz-adv-x="1078" 
d="M253 914h500v-165h-500v165zM664 880q-19 0 -32 -13.5t-13 -33.5t11.5 -33.5t33.5 -13.5q23 0 35 13.5t12 33.5q0 21 -13.5 34t-33.5 13zM310 787h31q47 0 47 44q0 19 -12.5 31.5t-34.5 12.5h-31v-88zM429 802v21h46v16h-46v20h46v16h-62v-88h62v15h-46zM594 787v88h-21
l-26 -36l-26 36h-21v-88h17v66l30 -39l31 40v-67h16zM634 833q0 13 8 22.5t22 9.5q15 0 23 -9.5t8 -22.5q0 -32 -31 -32q-14 0 -22 10t-8 22zM325 859h16q31 0 31 -28q0 -29 -31 -29h-16v57zM1072 700l-214 -700h-200l-119 433l-119 -433h-200l-214 700h200l119 -492
l133 492h162l133 -492l119 492h200z" />
    <glyph glyph-name="wgrave" unicode="&#x1e81;" horiz-adv-x="828" 
d="M126 694h500v-165h-500v165zM537 660q-19 0 -32 -13.5t-13 -33.5t11.5 -33.5t33.5 -13.5q23 0 35 13.5t12 33.5q0 21 -13.5 34t-33.5 13zM183 567h31q47 0 47 44q0 19 -12.5 31.5t-34.5 12.5h-31v-88zM302 582v21h46v16h-46v20h46v16h-62v-88h62v15h-46zM467 567v88h-21
l-26 -36l-26 36h-21v-88h17v66l30 -39l31 40v-67h16zM507 613q0 13 8 22.5t22 9.5q15 0 23 -9.5t8 -22.5q0 -32 -31 -32q-14 0 -22 10t-8 22zM198 639h16q31 0 31 -28q0 -29 -31 -29h-16v57zM819 480l-149 -480h-180l-76 281l-76 -281h-180l-149 480h182l68 -295l73 295h164
l73 -295l68 295h182z" />
    <glyph glyph-name="Wacute" unicode="&#x1e82;" horiz-adv-x="1078" 
d="M305 914h500v-165h-500v165zM716 880q-19 0 -32 -13.5t-13 -33.5t11.5 -33.5t33.5 -13.5q23 0 35 13.5t12 33.5q0 21 -13.5 34t-33.5 13zM362 787h31q47 0 47 44q0 19 -12.5 31.5t-34.5 12.5h-31v-88zM481 802v21h46v16h-46v20h46v16h-62v-88h62v15h-46zM646 787v88h-21
l-26 -36l-26 36h-21v-88h17v66l30 -39l31 40v-67h16zM686 833q0 13 8 22.5t22 9.5q15 0 23 -9.5t8 -22.5q0 -32 -31 -32q-14 0 -22 10t-8 22zM377 859h16q31 0 31 -28q0 -29 -31 -29h-16v57zM1072 700l-214 -700h-200l-119 433l-119 -433h-200l-214 700h200l119 -492
l133 492h162l133 -492l119 492h200z" />
    <glyph glyph-name="wacute" unicode="&#x1e83;" horiz-adv-x="828" 
d="M178 694h500v-165h-500v165zM589 660q-19 0 -32 -13.5t-13 -33.5t11.5 -33.5t33.5 -13.5q23 0 35 13.5t12 33.5q0 21 -13.5 34t-33.5 13zM235 567h31q47 0 47 44q0 19 -12.5 31.5t-34.5 12.5h-31v-88zM354 582v21h46v16h-46v20h46v16h-62v-88h62v15h-46zM519 567v88h-21
l-26 -36l-26 36h-21v-88h17v66l30 -39l31 40v-67h16zM559 613q0 13 8 22.5t22 9.5q15 0 23 -9.5t8 -22.5q0 -32 -31 -32q-14 0 -22 10t-8 22zM250 639h16q31 0 31 -28q0 -29 -31 -29h-16v57zM819 480l-149 -480h-180l-76 281l-76 -281h-180l-149 480h182l68 -295l73 295h164
l73 -295l68 295h182z" />
    <glyph glyph-name="Wdieresis" unicode="&#x1e84;" horiz-adv-x="1078" 
d="M793 914v-165h-500v165h500zM704 880q-19 0 -32 -13.5t-13 -33.5t11.5 -33.5t33.5 -13.5q23 0 35 13.5t12 33.5q0 21 -13.5 34t-33.5 13zM350 787h31q47 0 47 44q0 19 -12.5 31.5t-34.5 12.5h-31v-88zM469 802v21h46v16h-46v20h46v16h-62v-88h62v15h-46zM634 787v88h-21
l-26 -36l-26 36h-21v-88h17v66l30 -39l31 40v-67h16zM674 833q0 13 8 22.5t22 9.5q15 0 23 -9.5t8 -22.5q0 -32 -31 -32q-14 0 -22 10t-8 22zM381 859q31 0 31 -28q0 -29 -31 -29h-16v57h16zM1072 700l-214 -700h-200l-119 433l-119 -433h-200l-214 700h200l119 -492
l133 492h162l133 -492l119 492h200z" />
    <glyph glyph-name="wdieresis" unicode="&#x1e85;" horiz-adv-x="828" 
d="M666 694v-165h-500v165h500zM577 660q-19 0 -32 -13.5t-13 -33.5t11.5 -33.5t33.5 -13.5q23 0 35 13.5t12 33.5q0 21 -13.5 34t-33.5 13zM223 567h31q47 0 47 44q0 19 -12.5 31.5t-34.5 12.5h-31v-88zM342 582v21h46v16h-46v20h46v16h-62v-88h62v15h-46zM507 567v88h-21
l-26 -36l-26 36h-21v-88h17v66l30 -39l31 40v-67h16zM547 613q0 13 8 22.5t22 9.5q15 0 23 -9.5t8 -22.5q0 -32 -31 -32q-14 0 -22 10t-8 22zM254 639q31 0 31 -28q0 -29 -31 -29h-16v57h16zM819 480l-149 -480h-180l-76 281l-76 -281h-180l-149 480h182l68 -295l73 295h164
l73 -295l68 295h182z" />
    <glyph glyph-name="Ygrave" unicode="&#x1ef2;" horiz-adv-x="728" 
d="M76 914h500v-165h-500v165zM487 880q-19 0 -32 -13.5t-13 -33.5t11.5 -33.5t33.5 -13.5q23 0 35 13.5t12 33.5q0 21 -13.5 34t-33.5 13zM133 787h31q47 0 47 44q0 19 -12.5 31.5t-34.5 12.5h-31v-88zM252 802v21h46v16h-46v20h46v16h-62v-88h62v15h-46zM417 787v88h-21
l-26 -36l-26 36h-21v-88h17v66l30 -39l31 40v-67h16zM457 833q0 13 8 22.5t22 9.5q15 0 23 -9.5t8 -22.5q0 -32 -31 -32q-14 0 -22 10t-8 22zM148 859h16q31 0 31 -28q0 -29 -31 -29h-16v57zM272 0v239l-273 461h210l155 -289l155 289h210l-273 -461v-239h-184z" />
    <glyph glyph-name="ygrave" unicode="&#x1ef3;" horiz-adv-x="577" 
d="M-5 694h500v-165h-500v165zM406 660q-19 0 -32 -13.5t-13 -33.5t11.5 -33.5t33.5 -13.5q23 0 35 13.5t12 33.5q0 21 -13.5 34t-33.5 13zM52 567h31q47 0 47 44q0 19 -12.5 31.5t-34.5 12.5h-31v-88zM171 582v21h46v16h-46v20h46v16h-62v-88h62v15h-46zM336 567v88h-21
l-26 -36l-26 36h-21v-88h17v66l30 -39l31 40v-67h16zM376 613q0 13 8 22.5t22 9.5q15 0 23 -9.5t8 -22.5q0 -32 -31 -32q-14 0 -22 10t-8 22zM67 639h16q31 0 31 -28q0 -29 -31 -29h-16v57zM395 480h175l-201 -530q-70 -183 -220 -183q-36 0 -88 13v140q34 -8 65 -8
q66 0 100 76l-226 492h180l117 -286z" />
    <glyph glyph-name="endash" unicode="&#x2013;" horiz-adv-x="373" 
d="M71 0v700h232v-700h-232zM123 574q0 -26 18.5 -44t46.5 -18q26 0 44.5 16t18.5 46q0 29 -19 45t-45 17q-26 0 -45 -16t-19 -46zM188 534q-19 -1 -31.5 10t-11.5 30q0 20 13 30t30 10q41 -4 41 -40q0 -20 -12 -30t-29 -10zM247 477h-121v-26l53 -39l-53 -37v-26h121v22
h-87l53 39v4l-53 41h87v22zM226 243h-28v65h-21v-65h-28v67h-23v-90h121v90h-21v-67zM247 77v48q0 30 -18 45.5t-43 14.5q-25 0 -42.5 -15.5t-17.5 -44.5v-48h121zM148 125q-1 34 38 38q16 0 28 -9.5t12 -28.5v-26h-78v26z" />
    <glyph glyph-name="emdash" unicode="&#x2014;" horiz-adv-x="373" 
d="M71 0v700h232v-700h-232zM123 574q0 -26 18.5 -44t46.5 -18q26 0 44.5 16t18.5 46q0 29 -19 45t-45 17q-26 0 -45 -16t-19 -46zM188 534q-19 -1 -31.5 10t-11.5 30q0 20 13 30t30 10q41 -4 41 -40q0 -20 -12 -30t-29 -10zM247 477h-121v-26l53 -39l-53 -37v-26h121v22
h-87l53 39v4l-53 41h87v22zM226 243h-28v65h-21v-65h-28v67h-23v-90h121v90h-21v-67zM247 77v48q0 30 -18 45.5t-43 14.5q-25 0 -42.5 -15.5t-17.5 -44.5v-48h121zM148 125q-1 34 38 38q16 0 28 -9.5t12 -28.5v-26h-78v26z" />
    <glyph glyph-name="quoteleft" unicode="&#x2018;" horiz-adv-x="373" 
d="M71 0v700h232v-700h-232zM123 574q0 -26 18.5 -44t46.5 -18q26 0 44.5 16t18.5 46q0 29 -19 45t-45 17q-26 0 -45 -16t-19 -46zM188 534q-19 -1 -31.5 10t-11.5 30q0 20 13 30t30 10q41 -4 41 -40q0 -20 -12 -30t-29 -10zM247 477h-121v-26l53 -39l-53 -37v-26h121v22
h-87l53 39v4l-53 41h87v22zM226 243h-28v65h-21v-65h-28v67h-23v-90h121v90h-21v-67zM247 77v48q0 30 -18 45.5t-43 14.5q-25 0 -42.5 -15.5t-17.5 -44.5v-48h121zM148 125q-1 34 38 38q16 0 28 -9.5t12 -28.5v-26h-78v26z" />
    <glyph glyph-name="quoteright" unicode="&#x2019;" horiz-adv-x="373" 
d="M71 0v700h232v-700h-232zM123 574q0 -26 18.5 -44t46.5 -18q26 0 44.5 16t18.5 46q0 29 -19 45t-45 17q-26 0 -45 -16t-19 -46zM188 534q-19 -1 -31.5 10t-11.5 30q0 20 13 30t30 10q41 -4 41 -40q0 -20 -12 -30t-29 -10zM247 477h-121v-26l53 -39l-53 -37v-26h121v22
h-87l53 39v4l-53 41h87v22zM226 243h-28v65h-21v-65h-28v67h-23v-90h121v90h-21v-67zM247 77v48q0 30 -18 45.5t-43 14.5q-25 0 -42.5 -15.5t-17.5 -44.5v-48h121zM148 125q-1 34 38 38q16 0 28 -9.5t12 -28.5v-26h-78v26z" />
    <glyph glyph-name="quotesinglbase" unicode="&#x201a;" horiz-adv-x="373" 
d="M71 0v700h232v-700h-232zM123 574q0 -26 18.5 -44t46.5 -18q26 0 44.5 16t18.5 46q0 29 -19 45t-45 17q-26 0 -45 -16t-19 -46zM188 534q-19 -1 -31.5 10t-11.5 30q0 20 13 30t30 10q41 -4 41 -40q0 -20 -12 -30t-29 -10zM247 477h-121v-26l53 -39l-53 -37v-26h121v22
h-87l53 39v4l-53 41h87v22zM226 243h-28v65h-21v-65h-28v67h-23v-90h121v90h-21v-67zM247 77v48q0 30 -18 45.5t-43 14.5q-25 0 -42.5 -15.5t-17.5 -44.5v-48h121zM148 125q-1 34 38 38q16 0 28 -9.5t12 -28.5v-26h-78v26z" />
    <glyph glyph-name="quotedblleft" unicode="&#x201c;" horiz-adv-x="373" 
d="M71 0v700h232v-700h-232zM123 574q0 -26 18.5 -44t46.5 -18q26 0 44.5 16t18.5 46q0 29 -19 45t-45 17q-26 0 -45 -16t-19 -46zM188 534q-19 -1 -31.5 10t-11.5 30q0 20 13 30t30 10q41 -4 41 -40q0 -20 -12 -30t-29 -10zM247 477h-121v-26l53 -39l-53 -37v-26h121v22
h-87l53 39v4l-53 41h87v22zM226 243h-28v65h-21v-65h-28v67h-23v-90h121v90h-21v-67zM247 77v48q0 30 -18 45.5t-43 14.5q-25 0 -42.5 -15.5t-17.5 -44.5v-48h121zM148 125q-1 34 38 38q16 0 28 -9.5t12 -28.5v-26h-78v26z" />
    <glyph glyph-name="quotedblright" unicode="&#x201d;" horiz-adv-x="373" 
d="M71 0v700h232v-700h-232zM123 574q0 -26 18.5 -44t46.5 -18q26 0 44.5 16t18.5 46q0 29 -19 45t-45 17q-26 0 -45 -16t-19 -46zM188 534q-19 -1 -31.5 10t-11.5 30q0 20 13 30t30 10q41 -4 41 -40q0 -20 -12 -30t-29 -10zM247 477h-121v-26l53 -39l-53 -37v-26h121v22
h-87l53 39v4l-53 41h87v22zM226 243h-28v65h-21v-65h-28v67h-23v-90h121v90h-21v-67zM247 77v48q0 30 -18 45.5t-43 14.5q-25 0 -42.5 -15.5t-17.5 -44.5v-48h121zM148 125q-1 34 38 38q16 0 28 -9.5t12 -28.5v-26h-78v26z" />
    <glyph glyph-name="quotedblbase" unicode="&#x201e;" horiz-adv-x="373" 
d="M71 0v700h232v-700h-232zM123 574q0 -26 18.5 -44t46.5 -18q26 0 44.5 16t18.5 46q0 29 -19 45t-45 17q-26 0 -45 -16t-19 -46zM188 534q-19 -1 -31.5 10t-11.5 30q0 20 13 30t30 10q41 -4 41 -40q0 -20 -12 -30t-29 -10zM247 477h-121v-26l53 -39l-53 -37v-26h121v22
h-87l53 39v4l-53 41h87v22zM226 243h-28v65h-21v-65h-28v67h-23v-90h121v90h-21v-67zM247 77v48q0 30 -18 45.5t-43 14.5q-25 0 -42.5 -15.5t-17.5 -44.5v-48h121zM148 125q-1 34 38 38q16 0 28 -9.5t12 -28.5v-26h-78v26z" />
    <glyph glyph-name="dagger" unicode="&#x2020;" horiz-adv-x="373" 
d="M71 0v700h232v-700h-232zM123 574q0 -26 18.5 -44t46.5 -18q26 0 44.5 16t18.5 46q0 29 -19 45t-45 17q-26 0 -45 -16t-19 -46zM188 534q-19 -1 -31.5 10t-11.5 30q0 20 13 30t30 10q41 -4 41 -40q0 -20 -12 -30t-29 -10zM247 477h-121v-26l53 -39l-53 -37v-26h121v22
h-87l53 39v4l-53 41h87v22zM226 243h-28v65h-21v-65h-28v67h-23v-90h121v90h-21v-67zM247 77v48q0 30 -18 45.5t-43 14.5q-25 0 -42.5 -15.5t-17.5 -44.5v-48h121zM148 125q-1 34 38 38q16 0 28 -9.5t12 -28.5v-26h-78v26z" />
    <glyph glyph-name="daggerdbl" unicode="&#x2021;" horiz-adv-x="373" 
d="M71 0v700h232v-700h-232zM123 574q0 -26 18.5 -44t46.5 -18q26 0 44.5 16t18.5 46q0 29 -19 45t-45 17q-26 0 -45 -16t-19 -46zM188 534q-19 -1 -31.5 10t-11.5 30q0 20 13 30t30 10q41 -4 41 -40q0 -20 -12 -30t-29 -10zM247 477h-121v-26l53 -39l-53 -37v-26h121v22
h-87l53 39v4l-53 41h87v22zM226 243h-28v65h-21v-65h-28v67h-23v-90h121v90h-21v-67zM247 77v48q0 30 -18 45.5t-43 14.5q-25 0 -42.5 -15.5t-17.5 -44.5v-48h121zM148 125q-1 34 38 38q16 0 28 -9.5t12 -28.5v-26h-78v26z" />
    <glyph glyph-name="bullet" unicode="&#x2022;" horiz-adv-x="373" 
d="M71 0v700h232v-700h-232zM123 574q0 -26 18.5 -44t46.5 -18q26 0 44.5 16t18.5 46q0 29 -19 45t-45 17q-26 0 -45 -16t-19 -46zM188 534q-19 -1 -31.5 10t-11.5 30q0 20 13 30t30 10q41 -4 41 -40q0 -20 -12 -30t-29 -10zM247 477h-121v-26l53 -39l-53 -37v-26h121v22
h-87l53 39v4l-53 41h87v22zM226 243h-28v65h-21v-65h-28v67h-23v-90h121v90h-21v-67zM247 77v48q0 30 -18 45.5t-43 14.5q-25 0 -42.5 -15.5t-17.5 -44.5v-48h121zM148 125q-1 34 38 38q16 0 28 -9.5t12 -28.5v-26h-78v26z" />
    <glyph glyph-name="ellipsis" unicode="&#x2026;" horiz-adv-x="373" 
d="M71 0v700h232v-700h-232zM123 574q0 -26 18.5 -44t46.5 -18q26 0 44.5 16t18.5 46q0 29 -19 45t-45 17q-26 0 -45 -16t-19 -46zM188 534q-19 -1 -31.5 10t-11.5 30q0 20 13 30t30 10q41 -4 41 -40q0 -20 -12 -30t-29 -10zM247 477h-121v-26l53 -39l-53 -37v-26h121v22
h-87l53 39v4l-53 41h87v22zM226 243h-28v65h-21v-65h-28v67h-23v-90h121v90h-21v-67zM247 77v48q0 30 -18 45.5t-43 14.5q-25 0 -42.5 -15.5t-17.5 -44.5v-48h121zM148 125q-1 34 38 38q16 0 28 -9.5t12 -28.5v-26h-78v26z" />
    <glyph glyph-name="perthousand" unicode="&#x2030;" horiz-adv-x="373" 
d="M71 0v700h232v-700h-232zM123 574q0 -26 18.5 -44t46.5 -18q26 0 44.5 16t18.5 46q0 29 -19 45t-45 17q-26 0 -45 -16t-19 -46zM188 534q-19 -1 -31.5 10t-11.5 30q0 20 13 30t30 10q41 -4 41 -40q0 -20 -12 -30t-29 -10zM247 477h-121v-26l53 -39l-53 -37v-26h121v22
h-87l53 39v4l-53 41h87v22zM226 243h-28v65h-21v-65h-28v67h-23v-90h121v90h-21v-67zM247 77v48q0 30 -18 45.5t-43 14.5q-25 0 -42.5 -15.5t-17.5 -44.5v-48h121zM148 125q-1 34 38 38q16 0 28 -9.5t12 -28.5v-26h-78v26z" />
    <glyph glyph-name="guilsinglleft" unicode="&#x2039;" horiz-adv-x="373" 
d="M71 0v700h232v-700h-232zM123 574q0 -26 18.5 -44t46.5 -18q26 0 44.5 16t18.5 46q0 29 -19 45t-45 17q-26 0 -45 -16t-19 -46zM188 534q-19 -1 -31.5 10t-11.5 30q0 20 13 30t30 10q41 -4 41 -40q0 -20 -12 -30t-29 -10zM247 477h-121v-26l53 -39l-53 -37v-26h121v22
h-87l53 39v4l-53 41h87v22zM226 243h-28v65h-21v-65h-28v67h-23v-90h121v90h-21v-67zM247 77v48q0 30 -18 45.5t-43 14.5q-25 0 -42.5 -15.5t-17.5 -44.5v-48h121zM148 125q-1 34 38 38q16 0 28 -9.5t12 -28.5v-26h-78v26z" />
    <glyph glyph-name="guilsinglright" unicode="&#x203a;" horiz-adv-x="373" 
d="M71 0v700h232v-700h-232zM123 574q0 -26 18.5 -44t46.5 -18q26 0 44.5 16t18.5 46q0 29 -19 45t-45 17q-26 0 -45 -16t-19 -46zM188 534q-19 -1 -31.5 10t-11.5 30q0 20 13 30t30 10q41 -4 41 -40q0 -20 -12 -30t-29 -10zM247 477h-121v-26l53 -39l-53 -37v-26h121v22
h-87l53 39v4l-53 41h87v22zM226 243h-28v65h-21v-65h-28v67h-23v-90h121v90h-21v-67zM247 77v48q0 30 -18 45.5t-43 14.5q-25 0 -42.5 -15.5t-17.5 -44.5v-48h121zM148 125q-1 34 38 38q16 0 28 -9.5t12 -28.5v-26h-78v26z" />
    <glyph glyph-name="fraction" unicode="&#x2044;" horiz-adv-x="187" 
d="M-159 -15l458 730h50l-458 -730h-50z" />
    <glyph glyph-name="zero.sups" unicode="&#x2070;" 
d="M71 0v700h232v-700h-232zM123 574q0 -26 18.5 -44t46.5 -18q26 0 44.5 16t18.5 46q0 29 -19 45t-45 17q-26 0 -45 -16t-19 -46zM188 534q-19 -1 -31.5 10t-11.5 30q0 20 13 30t30 10q41 -4 41 -40q0 -20 -12 -30t-29 -10zM247 477h-121v-26l53 -39l-53 -37v-26h121v22
h-87l53 39v4l-53 41h87v22zM226 243h-28v65h-21v-65h-28v67h-23v-90h121v90h-21v-67zM247 77v48q0 30 -18 45.5t-43 14.5q-25 0 -42.5 -15.5t-17.5 -44.5v-48h121zM148 125q-1 34 38 38q16 0 28 -9.5t12 -28.5v-26h-78v26z" />
    <glyph glyph-name="four.sups" unicode="&#x2074;" 
d="M71 0v700h232v-700h-232zM123 574q0 -26 18.5 -44t46.5 -18q26 0 44.5 16t18.5 46q0 29 -19 45t-45 17q-26 0 -45 -16t-19 -46zM188 534q-19 -1 -31.5 10t-11.5 30q0 20 13 30t30 10q41 -4 41 -40q0 -20 -12 -30t-29 -10zM247 477h-121v-26l53 -39l-53 -37v-26h121v22
h-87l53 39v4l-53 41h87v22zM226 243h-28v65h-21v-65h-28v67h-23v-90h121v90h-21v-67zM247 77v48q0 30 -18 45.5t-43 14.5q-25 0 -42.5 -15.5t-17.5 -44.5v-48h121zM148 125q-1 34 38 38q16 0 28 -9.5t12 -28.5v-26h-78v26z" />
    <glyph glyph-name="five.sups" unicode="&#x2075;" 
d="M71 0v700h232v-700h-232zM123 574q0 -26 18.5 -44t46.5 -18q26 0 44.5 16t18.5 46q0 29 -19 45t-45 17q-26 0 -45 -16t-19 -46zM188 534q-19 -1 -31.5 10t-11.5 30q0 20 13 30t30 10q41 -4 41 -40q0 -20 -12 -30t-29 -10zM247 477h-121v-26l53 -39l-53 -37v-26h121v22
h-87l53 39v4l-53 41h87v22zM226 243h-28v65h-21v-65h-28v67h-23v-90h121v90h-21v-67zM247 77v48q0 30 -18 45.5t-43 14.5q-25 0 -42.5 -15.5t-17.5 -44.5v-48h121zM148 125q-1 34 38 38q16 0 28 -9.5t12 -28.5v-26h-78v26z" />
    <glyph glyph-name="six.sups" unicode="&#x2076;" 
d="M71 0v700h232v-700h-232zM123 574q0 -26 18.5 -44t46.5 -18q26 0 44.5 16t18.5 46q0 29 -19 45t-45 17q-26 0 -45 -16t-19 -46zM188 534q-19 -1 -31.5 10t-11.5 30q0 20 13 30t30 10q41 -4 41 -40q0 -20 -12 -30t-29 -10zM247 477h-121v-26l53 -39l-53 -37v-26h121v22
h-87l53 39v4l-53 41h87v22zM226 243h-28v65h-21v-65h-28v67h-23v-90h121v90h-21v-67zM247 77v48q0 30 -18 45.5t-43 14.5q-25 0 -42.5 -15.5t-17.5 -44.5v-48h121zM148 125q-1 34 38 38q16 0 28 -9.5t12 -28.5v-26h-78v26z" />
    <glyph glyph-name="seven.sups" unicode="&#x2077;" 
d="M71 0v700h232v-700h-232zM123 574q0 -26 18.5 -44t46.5 -18q26 0 44.5 16t18.5 46q0 29 -19 45t-45 17q-26 0 -45 -16t-19 -46zM188 534q-19 -1 -31.5 10t-11.5 30q0 20 13 30t30 10q41 -4 41 -40q0 -20 -12 -30t-29 -10zM247 477h-121v-26l53 -39l-53 -37v-26h121v22
h-87l53 39v4l-53 41h87v22zM226 243h-28v65h-21v-65h-28v67h-23v-90h121v90h-21v-67zM247 77v48q0 30 -18 45.5t-43 14.5q-25 0 -42.5 -15.5t-17.5 -44.5v-48h121zM148 125q-1 34 38 38q16 0 28 -9.5t12 -28.5v-26h-78v26z" />
    <glyph glyph-name="eight.sups" unicode="&#x2078;" 
d="M71 0v700h232v-700h-232zM123 574q0 -26 18.5 -44t46.5 -18q26 0 44.5 16t18.5 46q0 29 -19 45t-45 17q-26 0 -45 -16t-19 -46zM188 534q-19 -1 -31.5 10t-11.5 30q0 20 13 30t30 10q41 -4 41 -40q0 -20 -12 -30t-29 -10zM247 477h-121v-26l53 -39l-53 -37v-26h121v22
h-87l53 39v4l-53 41h87v22zM226 243h-28v65h-21v-65h-28v67h-23v-90h121v90h-21v-67zM247 77v48q0 30 -18 45.5t-43 14.5q-25 0 -42.5 -15.5t-17.5 -44.5v-48h121zM148 125q-1 34 38 38q16 0 28 -9.5t12 -28.5v-26h-78v26z" />
    <glyph glyph-name="nine.sups" unicode="&#x2079;" 
d="M71 0v700h232v-700h-232zM123 574q0 -26 18.5 -44t46.5 -18q26 0 44.5 16t18.5 46q0 29 -19 45t-45 17q-26 0 -45 -16t-19 -46zM188 534q-19 -1 -31.5 10t-11.5 30q0 20 13 30t30 10q41 -4 41 -40q0 -20 -12 -30t-29 -10zM247 477h-121v-26l53 -39l-53 -37v-26h121v22
h-87l53 39v4l-53 41h87v22zM226 243h-28v65h-21v-65h-28v67h-23v-90h121v90h-21v-67zM247 77v48q0 30 -18 45.5t-43 14.5q-25 0 -42.5 -15.5t-17.5 -44.5v-48h121zM148 125q-1 34 38 38q16 0 28 -9.5t12 -28.5v-26h-78v26z" />
    <glyph glyph-name="zero.sinf" unicode="&#x2080;" 
d="M71 0v700h232v-700h-232zM123 574q0 -26 18.5 -44t46.5 -18q26 0 44.5 16t18.5 46q0 29 -19 45t-45 17q-26 0 -45 -16t-19 -46zM188 534q-19 -1 -31.5 10t-11.5 30q0 20 13 30t30 10q41 -4 41 -40q0 -20 -12 -30t-29 -10zM247 477h-121v-26l53 -39l-53 -37v-26h121v22
h-87l53 39v4l-53 41h87v22zM226 243h-28v65h-21v-65h-28v67h-23v-90h121v90h-21v-67zM247 77v48q0 30 -18 45.5t-43 14.5q-25 0 -42.5 -15.5t-17.5 -44.5v-48h121zM148 125q-1 34 38 38q16 0 28 -9.5t12 -28.5v-26h-78v26z" />
    <glyph glyph-name="one.sinf" unicode="&#x2081;" 
d="M71 0v700h232v-700h-232zM123 574q0 -26 18.5 -44t46.5 -18q26 0 44.5 16t18.5 46q0 29 -19 45t-45 17q-26 0 -45 -16t-19 -46zM188 534q-19 -1 -31.5 10t-11.5 30q0 20 13 30t30 10q41 -4 41 -40q0 -20 -12 -30t-29 -10zM247 477h-121v-26l53 -39l-53 -37v-26h121v22
h-87l53 39v4l-53 41h87v22zM226 243h-28v65h-21v-65h-28v67h-23v-90h121v90h-21v-67zM247 77v48q0 30 -18 45.5t-43 14.5q-25 0 -42.5 -15.5t-17.5 -44.5v-48h121zM148 125q-1 34 38 38q16 0 28 -9.5t12 -28.5v-26h-78v26z" />
    <glyph glyph-name="two.sinf" unicode="&#x2082;" 
d="M71 0v700h232v-700h-232zM123 574q0 -26 18.5 -44t46.5 -18q26 0 44.5 16t18.5 46q0 29 -19 45t-45 17q-26 0 -45 -16t-19 -46zM188 534q-19 -1 -31.5 10t-11.5 30q0 20 13 30t30 10q41 -4 41 -40q0 -20 -12 -30t-29 -10zM247 477h-121v-26l53 -39l-53 -37v-26h121v22
h-87l53 39v4l-53 41h87v22zM226 243h-28v65h-21v-65h-28v67h-23v-90h121v90h-21v-67zM247 77v48q0 30 -18 45.5t-43 14.5q-25 0 -42.5 -15.5t-17.5 -44.5v-48h121zM148 125q-1 34 38 38q16 0 28 -9.5t12 -28.5v-26h-78v26z" />
    <glyph glyph-name="three.sinf" unicode="&#x2083;" 
d="M71 0v700h232v-700h-232zM123 574q0 -26 18.5 -44t46.5 -18q26 0 44.5 16t18.5 46q0 29 -19 45t-45 17q-26 0 -45 -16t-19 -46zM188 534q-19 -1 -31.5 10t-11.5 30q0 20 13 30t30 10q41 -4 41 -40q0 -20 -12 -30t-29 -10zM247 477h-121v-26l53 -39l-53 -37v-26h121v22
h-87l53 39v4l-53 41h87v22zM226 243h-28v65h-21v-65h-28v67h-23v-90h121v90h-21v-67zM247 77v48q0 30 -18 45.5t-43 14.5q-25 0 -42.5 -15.5t-17.5 -44.5v-48h121zM148 125q-1 34 38 38q16 0 28 -9.5t12 -28.5v-26h-78v26z" />
    <glyph glyph-name="four.sinf" unicode="&#x2084;" 
d="M71 0v700h232v-700h-232zM123 574q0 -26 18.5 -44t46.5 -18q26 0 44.5 16t18.5 46q0 29 -19 45t-45 17q-26 0 -45 -16t-19 -46zM188 534q-19 -1 -31.5 10t-11.5 30q0 20 13 30t30 10q41 -4 41 -40q0 -20 -12 -30t-29 -10zM247 477h-121v-26l53 -39l-53 -37v-26h121v22
h-87l53 39v4l-53 41h87v22zM226 243h-28v65h-21v-65h-28v67h-23v-90h121v90h-21v-67zM247 77v48q0 30 -18 45.5t-43 14.5q-25 0 -42.5 -15.5t-17.5 -44.5v-48h121zM148 125q-1 34 38 38q16 0 28 -9.5t12 -28.5v-26h-78v26z" />
    <glyph glyph-name="five.sinf" unicode="&#x2085;" 
d="M71 0v700h232v-700h-232zM123 574q0 -26 18.5 -44t46.5 -18q26 0 44.5 16t18.5 46q0 29 -19 45t-45 17q-26 0 -45 -16t-19 -46zM188 534q-19 -1 -31.5 10t-11.5 30q0 20 13 30t30 10q41 -4 41 -40q0 -20 -12 -30t-29 -10zM247 477h-121v-26l53 -39l-53 -37v-26h121v22
h-87l53 39v4l-53 41h87v22zM226 243h-28v65h-21v-65h-28v67h-23v-90h121v90h-21v-67zM247 77v48q0 30 -18 45.5t-43 14.5q-25 0 -42.5 -15.5t-17.5 -44.5v-48h121zM148 125q-1 34 38 38q16 0 28 -9.5t12 -28.5v-26h-78v26z" />
    <glyph glyph-name="six.sinf" unicode="&#x2086;" 
d="M71 0v700h232v-700h-232zM123 574q0 -26 18.5 -44t46.5 -18q26 0 44.5 16t18.5 46q0 29 -19 45t-45 17q-26 0 -45 -16t-19 -46zM188 534q-19 -1 -31.5 10t-11.5 30q0 20 13 30t30 10q41 -4 41 -40q0 -20 -12 -30t-29 -10zM247 477h-121v-26l53 -39l-53 -37v-26h121v22
h-87l53 39v4l-53 41h87v22zM226 243h-28v65h-21v-65h-28v67h-23v-90h121v90h-21v-67zM247 77v48q0 30 -18 45.5t-43 14.5q-25 0 -42.5 -15.5t-17.5 -44.5v-48h121zM148 125q-1 34 38 38q16 0 28 -9.5t12 -28.5v-26h-78v26z" />
    <glyph glyph-name="seven.sinf" unicode="&#x2087;" 
d="M71 0v700h232v-700h-232zM123 574q0 -26 18.5 -44t46.5 -18q26 0 44.5 16t18.5 46q0 29 -19 45t-45 17q-26 0 -45 -16t-19 -46zM188 534q-19 -1 -31.5 10t-11.5 30q0 20 13 30t30 10q41 -4 41 -40q0 -20 -12 -30t-29 -10zM247 477h-121v-26l53 -39l-53 -37v-26h121v22
h-87l53 39v4l-53 41h87v22zM226 243h-28v65h-21v-65h-28v67h-23v-90h121v90h-21v-67zM247 77v48q0 30 -18 45.5t-43 14.5q-25 0 -42.5 -15.5t-17.5 -44.5v-48h121zM148 125q-1 34 38 38q16 0 28 -9.5t12 -28.5v-26h-78v26z" />
    <glyph glyph-name="eight.sinf" unicode="&#x2088;" 
d="M71 0v700h232v-700h-232zM123 574q0 -26 18.5 -44t46.5 -18q26 0 44.5 16t18.5 46q0 29 -19 45t-45 17q-26 0 -45 -16t-19 -46zM188 534q-19 -1 -31.5 10t-11.5 30q0 20 13 30t30 10q41 -4 41 -40q0 -20 -12 -30t-29 -10zM247 477h-121v-26l53 -39l-53 -37v-26h121v22
h-87l53 39v4l-53 41h87v22zM226 243h-28v65h-21v-65h-28v67h-23v-90h121v90h-21v-67zM247 77v48q0 30 -18 45.5t-43 14.5q-25 0 -42.5 -15.5t-17.5 -44.5v-48h121zM148 125q-1 34 38 38q16 0 28 -9.5t12 -28.5v-26h-78v26z" />
    <glyph glyph-name="nine.sinf" unicode="&#x2089;" 
d="M71 0v700h232v-700h-232zM123 574q0 -26 18.5 -44t46.5 -18q26 0 44.5 16t18.5 46q0 29 -19 45t-45 17q-26 0 -45 -16t-19 -46zM188 534q-19 -1 -31.5 10t-11.5 30q0 20 13 30t30 10q41 -4 41 -40q0 -20 -12 -30t-29 -10zM247 477h-121v-26l53 -39l-53 -37v-26h121v22
h-87l53 39v4l-53 41h87v22zM226 243h-28v65h-21v-65h-28v67h-23v-90h121v90h-21v-67zM247 77v48q0 30 -18 45.5t-43 14.5q-25 0 -42.5 -15.5t-17.5 -44.5v-48h121zM148 125q-1 34 38 38q16 0 28 -9.5t12 -28.5v-26h-78v26z" />
    <glyph glyph-name="Euro" unicode="&#x20ac;" horiz-adv-x="373" 
d="M71 0v700h232v-700h-232zM123 574q0 -26 18.5 -44t46.5 -18q26 0 44.5 16t18.5 46q0 29 -19 45t-45 17q-26 0 -45 -16t-19 -46zM188 534q-19 -1 -31.5 10t-11.5 30q0 20 13 30t30 10q41 -4 41 -40q0 -20 -12 -30t-29 -10zM247 477h-121v-26l53 -39l-53 -37v-26h121v22
h-87l53 39v4l-53 41h87v22zM226 243h-28v65h-21v-65h-28v67h-23v-90h121v90h-21v-67zM247 77v48q0 30 -18 45.5t-43 14.5q-25 0 -42.5 -15.5t-17.5 -44.5v-48h121zM148 125q-1 34 38 38q16 0 28 -9.5t12 -28.5v-26h-78v26z" />
    <glyph glyph-name="trademark" unicode="&#x2122;" horiz-adv-x="373" 
d="M71 0v700h232v-700h-232zM123 574q0 -26 18.5 -44t46.5 -18q26 0 44.5 16t18.5 46q0 29 -19 45t-45 17q-26 0 -45 -16t-19 -46zM188 534q-19 -1 -31.5 10t-11.5 30q0 20 13 30t30 10q41 -4 41 -40q0 -20 -12 -30t-29 -10zM247 477h-121v-26l53 -39l-53 -37v-26h121v22
h-87l53 39v4l-53 41h87v22zM226 243h-28v65h-21v-65h-28v67h-23v-90h121v90h-21v-67zM247 77v48q0 30 -18 45.5t-43 14.5q-25 0 -42.5 -15.5t-17.5 -44.5v-48h121zM148 125q-1 34 38 38q16 0 28 -9.5t12 -28.5v-26h-78v26z" />
    <glyph glyph-name="oneeighth" unicode="&#x215b;" 
d="M71 0v700h232v-700h-232zM123 574q0 -26 18.5 -44t46.5 -18q26 0 44.5 16t18.5 46q0 29 -19 45t-45 17q-26 0 -45 -16t-19 -46zM188 534q-19 -1 -31.5 10t-11.5 30q0 20 13 30t30 10q41 -4 41 -40q0 -20 -12 -30t-29 -10zM247 477h-121v-26l53 -39l-53 -37v-26h121v22
h-87l53 39v4l-53 41h87v22zM226 243h-28v65h-21v-65h-28v67h-23v-90h121v90h-21v-67zM247 77v48q0 30 -18 45.5t-43 14.5q-25 0 -42.5 -15.5t-17.5 -44.5v-48h121zM148 125q-1 34 38 38q16 0 28 -9.5t12 -28.5v-26h-78v26z" />
    <glyph glyph-name="threeeighths" unicode="&#x215c;" 
d="M71 0v700h232v-700h-232zM123 574q0 -26 18.5 -44t46.5 -18q26 0 44.5 16t18.5 46q0 29 -19 45t-45 17q-26 0 -45 -16t-19 -46zM188 534q-19 -1 -31.5 10t-11.5 30q0 20 13 30t30 10q41 -4 41 -40q0 -20 -12 -30t-29 -10zM247 477h-121v-26l53 -39l-53 -37v-26h121v22
h-87l53 39v4l-53 41h87v22zM226 243h-28v65h-21v-65h-28v67h-23v-90h121v90h-21v-67zM247 77v48q0 30 -18 45.5t-43 14.5q-25 0 -42.5 -15.5t-17.5 -44.5v-48h121zM148 125q-1 34 38 38q16 0 28 -9.5t12 -28.5v-26h-78v26z" />
    <glyph glyph-name="fiveeighths" unicode="&#x215d;" 
d="M71 0v700h232v-700h-232zM123 574q0 -26 18.5 -44t46.5 -18q26 0 44.5 16t18.5 46q0 29 -19 45t-45 17q-26 0 -45 -16t-19 -46zM188 534q-19 -1 -31.5 10t-11.5 30q0 20 13 30t30 10q41 -4 41 -40q0 -20 -12 -30t-29 -10zM247 477h-121v-26l53 -39l-53 -37v-26h121v22
h-87l53 39v4l-53 41h87v22zM226 243h-28v65h-21v-65h-28v67h-23v-90h121v90h-21v-67zM247 77v48q0 30 -18 45.5t-43 14.5q-25 0 -42.5 -15.5t-17.5 -44.5v-48h121zM148 125q-1 34 38 38q16 0 28 -9.5t12 -28.5v-26h-78v26z" />
    <glyph glyph-name="seveneighths" unicode="&#x215e;" 
d="M71 0v700h232v-700h-232zM123 574q0 -26 18.5 -44t46.5 -18q26 0 44.5 16t18.5 46q0 29 -19 45t-45 17q-26 0 -45 -16t-19 -46zM188 534q-19 -1 -31.5 10t-11.5 30q0 20 13 30t30 10q41 -4 41 -40q0 -20 -12 -30t-29 -10zM247 477h-121v-26l53 -39l-53 -37v-26h121v22
h-87l53 39v4l-53 41h87v22zM226 243h-28v65h-21v-65h-28v67h-23v-90h121v90h-21v-67zM247 77v48q0 30 -18 45.5t-43 14.5q-25 0 -42.5 -15.5t-17.5 -44.5v-48h121zM148 125q-1 34 38 38q16 0 28 -9.5t12 -28.5v-26h-78v26z" />
    <glyph glyph-name="partialdiff" unicode="&#x2202;" 
d="M71 0v700h232v-700h-232zM123 574q0 -26 18.5 -44t46.5 -18q26 0 44.5 16t18.5 46q0 29 -19 45t-45 17q-26 0 -45 -16t-19 -46zM188 534q-19 -1 -31.5 10t-11.5 30q0 20 13 30t30 10q41 -4 41 -40q0 -20 -12 -30t-29 -10zM247 477h-121v-26l53 -39l-53 -37v-26h121v22
h-87l53 39v4l-53 41h87v22zM226 243h-28v65h-21v-65h-28v67h-23v-90h121v90h-21v-67zM247 77v48q0 30 -18 45.5t-43 14.5q-25 0 -42.5 -15.5t-17.5 -44.5v-48h121zM148 125q-1 34 38 38q16 0 28 -9.5t12 -28.5v-26h-78v26z" />
    <glyph glyph-name="emptyset" unicode="&#x2205;" 
d="M71 0v700h232v-700h-232zM123 574q0 -26 18.5 -44t46.5 -18q26 0 44.5 16t18.5 46q0 29 -19 45t-45 17q-26 0 -45 -16t-19 -46zM188 534q-19 -1 -31.5 10t-11.5 30q0 20 13 30t30 10q41 -4 41 -40q0 -20 -12 -30t-29 -10zM247 477h-121v-26l53 -39l-53 -37v-26h121v22
h-87l53 39v4l-53 41h87v22zM226 243h-28v65h-21v-65h-28v67h-23v-90h121v90h-21v-67zM247 77v48q0 30 -18 45.5t-43 14.5q-25 0 -42.5 -15.5t-17.5 -44.5v-48h121zM148 125q-1 34 38 38q16 0 28 -9.5t12 -28.5v-26h-78v26z" />
    <glyph glyph-name="product" unicode="&#x220f;" 
d="M71 0v700h232v-700h-232zM123 574q0 -26 18.5 -44t46.5 -18q26 0 44.5 16t18.5 46q0 29 -19 45t-45 17q-26 0 -45 -16t-19 -46zM188 534q-19 -1 -31.5 10t-11.5 30q0 20 13 30t30 10q41 -4 41 -40q0 -20 -12 -30t-29 -10zM247 477h-121v-26l53 -39l-53 -37v-26h121v22
h-87l53 39v4l-53 41h87v22zM226 243h-28v65h-21v-65h-28v67h-23v-90h121v90h-21v-67zM247 77v48q0 30 -18 45.5t-43 14.5q-25 0 -42.5 -15.5t-17.5 -44.5v-48h121zM148 125q-1 34 38 38q16 0 28 -9.5t12 -28.5v-26h-78v26z" />
    <glyph glyph-name="summation" unicode="&#x2211;" 
d="M71 0v700h232v-700h-232zM123 574q0 -26 18.5 -44t46.5 -18q26 0 44.5 16t18.5 46q0 29 -19 45t-45 17q-26 0 -45 -16t-19 -46zM188 534q-19 -1 -31.5 10t-11.5 30q0 20 13 30t30 10q41 -4 41 -40q0 -20 -12 -30t-29 -10zM247 477h-121v-26l53 -39l-53 -37v-26h121v22
h-87l53 39v4l-53 41h87v22zM226 243h-28v65h-21v-65h-28v67h-23v-90h121v90h-21v-67zM247 77v48q0 30 -18 45.5t-43 14.5q-25 0 -42.5 -15.5t-17.5 -44.5v-48h121zM148 125q-1 34 38 38q16 0 28 -9.5t12 -28.5v-26h-78v26z" />
    <glyph glyph-name="minus" unicode="&#x2212;" horiz-adv-x="373" 
d="M71 0v700h232v-700h-232zM123 574q0 -26 18.5 -44t46.5 -18q26 0 44.5 16t18.5 46q0 29 -19 45t-45 17q-26 0 -45 -16t-19 -46zM188 534q-19 -1 -31.5 10t-11.5 30q0 20 13 30t30 10q41 -4 41 -40q0 -20 -12 -30t-29 -10zM247 477h-121v-26l53 -39l-53 -37v-26h121v22
h-87l53 39v4l-53 41h87v22zM226 243h-28v65h-21v-65h-28v67h-23v-90h121v90h-21v-67zM247 77v48q0 30 -18 45.5t-43 14.5q-25 0 -42.5 -15.5t-17.5 -44.5v-48h121zM148 125q-1 34 38 38q16 0 28 -9.5t12 -28.5v-26h-78v26z" />
    <glyph glyph-name="radical" unicode="&#x221a;" 
d="M71 0v700h232v-700h-232zM123 574q0 -26 18.5 -44t46.5 -18q26 0 44.5 16t18.5 46q0 29 -19 45t-45 17q-26 0 -45 -16t-19 -46zM188 534q-19 -1 -31.5 10t-11.5 30q0 20 13 30t30 10q41 -4 41 -40q0 -20 -12 -30t-29 -10zM247 477h-121v-26l53 -39l-53 -37v-26h121v22
h-87l53 39v4l-53 41h87v22zM226 243h-28v65h-21v-65h-28v67h-23v-90h121v90h-21v-67zM247 77v48q0 30 -18 45.5t-43 14.5q-25 0 -42.5 -15.5t-17.5 -44.5v-48h121zM148 125q-1 34 38 38q16 0 28 -9.5t12 -28.5v-26h-78v26z" />
    <glyph glyph-name="infinity" unicode="&#x221e;" 
d="M71 0v700h232v-700h-232zM123 574q0 -26 18.5 -44t46.5 -18q26 0 44.5 16t18.5 46q0 29 -19 45t-45 17q-26 0 -45 -16t-19 -46zM188 534q-19 -1 -31.5 10t-11.5 30q0 20 13 30t30 10q41 -4 41 -40q0 -20 -12 -30t-29 -10zM247 477h-121v-26l53 -39l-53 -37v-26h121v22
h-87l53 39v4l-53 41h87v22zM226 243h-28v65h-21v-65h-28v67h-23v-90h121v90h-21v-67zM247 77v48q0 30 -18 45.5t-43 14.5q-25 0 -42.5 -15.5t-17.5 -44.5v-48h121zM148 125q-1 34 38 38q16 0 28 -9.5t12 -28.5v-26h-78v26z" />
    <glyph glyph-name="integral" unicode="&#x222b;" 
d="M71 0v700h232v-700h-232zM123 574q0 -26 18.5 -44t46.5 -18q26 0 44.5 16t18.5 46q0 29 -19 45t-45 17q-26 0 -45 -16t-19 -46zM188 534q-19 -1 -31.5 10t-11.5 30q0 20 13 30t30 10q41 -4 41 -40q0 -20 -12 -30t-29 -10zM247 477h-121v-26l53 -39l-53 -37v-26h121v22
h-87l53 39v4l-53 41h87v22zM226 243h-28v65h-21v-65h-28v67h-23v-90h121v90h-21v-67zM247 77v48q0 30 -18 45.5t-43 14.5q-25 0 -42.5 -15.5t-17.5 -44.5v-48h121zM148 125q-1 34 38 38q16 0 28 -9.5t12 -28.5v-26h-78v26z" />
    <glyph glyph-name="approxequal" unicode="&#x2248;" 
d="M71 0v700h232v-700h-232zM123 574q0 -26 18.5 -44t46.5 -18q26 0 44.5 16t18.5 46q0 29 -19 45t-45 17q-26 0 -45 -16t-19 -46zM188 534q-19 -1 -31.5 10t-11.5 30q0 20 13 30t30 10q41 -4 41 -40q0 -20 -12 -30t-29 -10zM247 477h-121v-26l53 -39l-53 -37v-26h121v22
h-87l53 39v4l-53 41h87v22zM226 243h-28v65h-21v-65h-28v67h-23v-90h121v90h-21v-67zM247 77v48q0 30 -18 45.5t-43 14.5q-25 0 -42.5 -15.5t-17.5 -44.5v-48h121zM148 125q-1 34 38 38q16 0 28 -9.5t12 -28.5v-26h-78v26z" />
    <glyph glyph-name="notequal" unicode="&#x2260;" 
d="M71 0v700h232v-700h-232zM123 574q0 -26 18.5 -44t46.5 -18q26 0 44.5 16t18.5 46q0 29 -19 45t-45 17q-26 0 -45 -16t-19 -46zM188 534q-19 -1 -31.5 10t-11.5 30q0 20 13 30t30 10q41 -4 41 -40q0 -20 -12 -30t-29 -10zM247 477h-121v-26l53 -39l-53 -37v-26h121v22
h-87l53 39v4l-53 41h87v22zM226 243h-28v65h-21v-65h-28v67h-23v-90h121v90h-21v-67zM247 77v48q0 30 -18 45.5t-43 14.5q-25 0 -42.5 -15.5t-17.5 -44.5v-48h121zM148 125q-1 34 38 38q16 0 28 -9.5t12 -28.5v-26h-78v26z" />
    <glyph glyph-name="lessequal" unicode="&#x2264;" 
d="M71 0v700h232v-700h-232zM123 574q0 -26 18.5 -44t46.5 -18q26 0 44.5 16t18.5 46q0 29 -19 45t-45 17q-26 0 -45 -16t-19 -46zM188 534q-19 -1 -31.5 10t-11.5 30q0 20 13 30t30 10q41 -4 41 -40q0 -20 -12 -30t-29 -10zM247 477h-121v-26l53 -39l-53 -37v-26h121v22
h-87l53 39v4l-53 41h87v22zM226 243h-28v65h-21v-65h-28v67h-23v-90h121v90h-21v-67zM247 77v48q0 30 -18 45.5t-43 14.5q-25 0 -42.5 -15.5t-17.5 -44.5v-48h121zM148 125q-1 34 38 38q16 0 28 -9.5t12 -28.5v-26h-78v26z" />
    <glyph glyph-name="greaterequal" unicode="&#x2265;" 
d="M71 0v700h232v-700h-232zM123 574q0 -26 18.5 -44t46.5 -18q26 0 44.5 16t18.5 46q0 29 -19 45t-45 17q-26 0 -45 -16t-19 -46zM188 534q-19 -1 -31.5 10t-11.5 30q0 20 13 30t30 10q41 -4 41 -40q0 -20 -12 -30t-29 -10zM247 477h-121v-26l53 -39l-53 -37v-26h121v22
h-87l53 39v4l-53 41h87v22zM226 243h-28v65h-21v-65h-28v67h-23v-90h121v90h-21v-67zM247 77v48q0 30 -18 45.5t-43 14.5q-25 0 -42.5 -15.5t-17.5 -44.5v-48h121zM148 125q-1 34 38 38q16 0 28 -9.5t12 -28.5v-26h-78v26z" />
    <glyph glyph-name="lozenge" unicode="&#x25ca;" 
d="M71 0v700h232v-700h-232zM123 574q0 -26 18.5 -44t46.5 -18q26 0 44.5 16t18.5 46q0 29 -19 45t-45 17q-26 0 -45 -16t-19 -46zM188 534q-19 -1 -31.5 10t-11.5 30q0 20 13 30t30 10q41 -4 41 -40q0 -20 -12 -30t-29 -10zM247 477h-121v-26l53 -39l-53 -37v-26h121v22
h-87l53 39v4l-53 41h87v22zM226 243h-28v65h-21v-65h-28v67h-23v-90h121v90h-21v-67zM247 77v48q0 30 -18 45.5t-43 14.5q-25 0 -42.5 -15.5t-17.5 -44.5v-48h121zM148 125q-1 34 38 38q16 0 28 -9.5t12 -28.5v-26h-78v26z" />
    <glyph glyph-name="i.loclTRK" horiz-adv-x="274" 
d="M-117 689h500v-165h-500v165zM294 655q-19 0 -32 -13.5t-13 -33.5t11.5 -33.5t33.5 -13.5q23 0 35 13.5t12 33.5q0 21 -13.5 34t-33.5 13zM-60 562h31q47 0 47 44q0 19 -12.5 31.5t-34.5 12.5h-31v-88zM59 577v21h46v16h-46v20h46v16h-62v-88h62v15h-46zM224 562v88h-21
l-26 -36l-26 36h-21v-88h17v66l30 -39l31 40v-67h16zM264 608q0 13 8 22.5t22 9.5q15 0 23 -9.5t8 -22.5q0 -32 -31 -32q-14 0 -22 10t-8 22zM-45 634h16q31 0 31 -28q0 -29 -31 -29h-16v57zM222 480v-480h-170v480h170z" />
    <glyph glyph-name="a.ss01" horiz-adv-x="623" 
d="M422 65q-20 -34 -61.5 -57t-101.5 -23q-58 0 -104 22t-73 59t-41 81.5t-14 92.5t14 92.5t41 81.5t73 59t104 22q60 0 101.5 -23t61.5 -57v65h150v-480h-150v65zM202 240q0 -47 26.5 -81t76.5 -34q33 0 59 17.5t38 42.5v110q-12 25 -38 42.5t-59 17.5q-50 0 -76.5 -34
t-26.5 -81z" />
    <glyph glyph-name="aacute.ss01" horiz-adv-x="623" 
d="M74 694h500v-165h-500v165zM485 660q-19 0 -32 -13.5t-13 -33.5t11.5 -33.5t33.5 -13.5q23 0 35 13.5t12 33.5q0 21 -13.5 34t-33.5 13zM131 567h31q47 0 47 44q0 19 -12.5 31.5t-34.5 12.5h-31v-88zM250 582v21h46v16h-46v20h46v16h-62v-88h62v15h-46zM415 567v88h-21
l-26 -36l-26 36h-21v-88h17v66l30 -39l31 40v-67h16zM455 613q0 13 8 22.5t22 9.5q15 0 23 -9.5t8 -22.5q0 -32 -31 -32q-14 0 -22 10t-8 22zM146 639h16q31 0 31 -28q0 -29 -31 -29h-16v57zM422 65q-20 -34 -61.5 -57t-101.5 -23q-58 0 -104 22t-73 59t-41 81.5t-14 92.5
t14 92.5t41 81.5t73 59t104 22q60 0 101.5 -23t61.5 -57v65h150v-480h-150v65zM202 240q0 -47 26.5 -81t76.5 -34q33 0 59 17.5t38 42.5v110q-12 25 -38 42.5t-59 17.5q-50 0 -76.5 -34t-26.5 -81z" />
    <glyph glyph-name="abreve.ss01" horiz-adv-x="623" 
d="M47 699h500v-165h-500v165zM458 665q-19 0 -32 -13.5t-13 -33.5t11.5 -33.5t33.5 -13.5q23 0 35 13.5t12 33.5q0 21 -13.5 34t-33.5 13zM104 572h31q47 0 47 44q0 19 -12.5 31.5t-34.5 12.5h-31v-88zM223 587v21h46v16h-46v20h46v16h-62v-88h62v15h-46zM388 572v88h-21
l-26 -36l-26 36h-21v-88h17v66l30 -39l31 40v-67h16zM428 618q0 13 8 22.5t22 9.5q15 0 23 -9.5t8 -22.5q0 -32 -31 -32q-14 0 -22 10t-8 22zM119 644h16q31 0 31 -28q0 -29 -31 -29h-16v57zM422 65q-20 -34 -61.5 -57t-101.5 -23q-58 0 -104 22t-73 59t-41 81.5t-14 92.5
t14 92.5t41 81.5t73 59t104 22q60 0 101.5 -23t61.5 -57v65h150v-480h-150v65zM202 240q0 -47 26.5 -81t76.5 -34q33 0 59 17.5t38 42.5v110q-12 25 -38 42.5t-59 17.5q-50 0 -76.5 -34t-26.5 -81z" />
    <glyph glyph-name="acircumflex.ss01" horiz-adv-x="623" 
d="M55 694h500v-165h-500v165zM466 660q-19 0 -32 -13.5t-13 -33.5t11.5 -33.5t33.5 -13.5q23 0 35 13.5t12 33.5q0 21 -13.5 34t-33.5 13zM112 567h31q47 0 47 44q0 19 -12.5 31.5t-34.5 12.5h-31v-88zM231 582v21h46v16h-46v20h46v16h-62v-88h62v15h-46zM396 567v88h-21
l-26 -36l-26 36h-21v-88h17v66l30 -39l31 40v-67h16zM436 613q0 13 8 22.5t22 9.5q15 0 23 -9.5t8 -22.5q0 -32 -31 -32q-14 0 -22 10t-8 22zM127 639h16q31 0 31 -28q0 -29 -31 -29h-16v57zM422 65q-20 -34 -61.5 -57t-101.5 -23q-58 0 -104 22t-73 59t-41 81.5t-14 92.5
t14 92.5t41 81.5t73 59t104 22q60 0 101.5 -23t61.5 -57v65h150v-480h-150v65zM202 240q0 -47 26.5 -81t76.5 -34q33 0 59 17.5t38 42.5v110q-12 25 -38 42.5t-59 17.5q-50 0 -76.5 -34t-26.5 -81z" />
    <glyph glyph-name="adieresis.ss01" horiz-adv-x="623" 
d="M562 694v-165h-500v165h500zM473 660q-19 0 -32 -13.5t-13 -33.5t11.5 -33.5t33.5 -13.5q23 0 35 13.5t12 33.5q0 21 -13.5 34t-33.5 13zM119 567h31q47 0 47 44q0 19 -12.5 31.5t-34.5 12.5h-31v-88zM238 582v21h46v16h-46v20h46v16h-62v-88h62v15h-46zM403 567v88h-21
l-26 -36l-26 36h-21v-88h17v66l30 -39l31 40v-67h16zM443 613q0 13 8 22.5t22 9.5q15 0 23 -9.5t8 -22.5q0 -32 -31 -32q-14 0 -22 10t-8 22zM150 639q31 0 31 -28q0 -29 -31 -29h-16v57h16zM422 65q-20 -34 -61.5 -57t-101.5 -23q-58 0 -104 22t-73 59t-41 81.5t-14 92.5
t14 92.5t41 81.5t73 59t104 22q60 0 101.5 -23t61.5 -57v65h150v-480h-150v65zM202 240q0 -47 26.5 -81t76.5 -34q33 0 59 17.5t38 42.5v110q-12 25 -38 42.5t-59 17.5q-50 0 -76.5 -34t-26.5 -81z" />
    <glyph glyph-name="agrave.ss01" horiz-adv-x="623" 
d="M22 694h500v-165h-500v165zM433 660q-19 0 -32 -13.5t-13 -33.5t11.5 -33.5t33.5 -13.5q23 0 35 13.5t12 33.5q0 21 -13.5 34t-33.5 13zM79 567h31q47 0 47 44q0 19 -12.5 31.5t-34.5 12.5h-31v-88zM198 582v21h46v16h-46v20h46v16h-62v-88h62v15h-46zM363 567v88h-21
l-26 -36l-26 36h-21v-88h17v66l30 -39l31 40v-67h16zM403 613q0 13 8 22.5t22 9.5q15 0 23 -9.5t8 -22.5q0 -32 -31 -32q-14 0 -22 10t-8 22zM94 639h16q31 0 31 -28q0 -29 -31 -29h-16v57zM422 65q-20 -34 -61.5 -57t-101.5 -23q-58 0 -104 22t-73 59t-41 81.5t-14 92.5
t14 92.5t41 81.5t73 59t104 22q60 0 101.5 -23t61.5 -57v65h150v-480h-150v65zM202 240q0 -47 26.5 -81t76.5 -34q33 0 59 17.5t38 42.5v110q-12 25 -38 42.5t-59 17.5q-50 0 -76.5 -34t-26.5 -81z" />
    <glyph glyph-name="amacron.ss01" horiz-adv-x="623" 
d="M67 694h500v-165h-500v165zM478 660q-19 0 -32 -13.5t-13 -33.5t11.5 -33.5t33.5 -13.5q23 0 35 13.5t12 33.5q0 21 -13.5 34t-33.5 13zM124 567h31q47 0 47 44q0 19 -12.5 31.5t-34.5 12.5h-31v-88zM243 582v21h46v16h-46v20h46v16h-62v-88h62v15h-46zM408 567v88h-21
l-26 -36l-26 36h-21v-88h17v66l30 -39l31 40v-67h16zM448 613q0 13 8 22.5t22 9.5q15 0 23 -9.5t8 -22.5q0 -32 -31 -32q-14 0 -22 10t-8 22zM139 639h16q31 0 31 -28q0 -29 -31 -29h-16v57zM422 65q-20 -34 -61.5 -57t-101.5 -23q-58 0 -104 22t-73 59t-41 81.5t-14 92.5
t14 92.5t41 81.5t73 59t104 22q60 0 101.5 -23t61.5 -57v65h150v-480h-150v65zM202 240q0 -47 26.5 -81t76.5 -34q33 0 59 17.5t38 42.5v110q-12 25 -38 42.5t-59 17.5q-50 0 -76.5 -34t-26.5 -81z" />
    <glyph glyph-name="aogonek.ss01" horiz-adv-x="622" 
d="M422 65q-20 -34 -61.5 -57t-101.5 -23q-58 0 -104 22t-73 59t-41 81.5t-14 92.5t14 92.5t41 81.5t73 59t104 22q60 0 101.5 -23t61.5 -57v65h150v-480h-150v65zM202 240q0 -47 26.5 -81t76.5 -34q33 0 59 17.5t38 42.5v110q-12 25 -38 42.5t-59 17.5q-50 0 -76.5 -34
t-26.5 -81z" />
    <glyph glyph-name="aring.ss01" horiz-adv-x="623" 
d="M72 694h500v-165h-500v165zM483 660q-19 0 -32 -13.5t-13 -33.5t11.5 -33.5t33.5 -13.5q23 0 35 13.5t12 33.5q0 21 -13.5 34t-33.5 13zM129 567h31q47 0 47 44q0 19 -12.5 31.5t-34.5 12.5h-31v-88zM248 582v21h46v16h-46v20h46v16h-62v-88h62v15h-46zM413 567v88h-21
l-26 -36l-26 36h-21v-88h17v66l30 -39l31 40v-67h16zM453 613q0 13 8 22.5t22 9.5q15 0 23 -9.5t8 -22.5q0 -32 -31 -32q-14 0 -22 10t-8 22zM144 639h16q31 0 31 -28q0 -29 -31 -29h-16v57zM422 65q-20 -34 -61.5 -57t-101.5 -23q-58 0 -104 22t-73 59t-41 81.5t-14 92.5
t14 92.5t41 81.5t73 59t104 22q60 0 101.5 -23t61.5 -57v65h150v-480h-150v65zM202 240q0 -47 26.5 -81t76.5 -34q33 0 59 17.5t38 42.5v110q-12 25 -38 42.5t-59 17.5q-50 0 -76.5 -34t-26.5 -81z" />
    <glyph glyph-name="atilde.ss01" horiz-adv-x="623" 
d="M52 694h500v-165h-500v165zM463 660q-19 0 -32 -13.5t-13 -33.5t11.5 -33.5t33.5 -13.5q23 0 35 13.5t12 33.5q0 21 -13.5 34t-33.5 13zM109 567h31q47 0 47 44q0 19 -12.5 31.5t-34.5 12.5h-31v-88zM228 582v21h46v16h-46v20h46v16h-62v-88h62v15h-46zM393 567v88h-21
l-26 -36l-26 36h-21v-88h17v66l30 -39l31 40v-67h16zM433 613q0 13 8 22.5t22 9.5q15 0 23 -9.5t8 -22.5q0 -32 -31 -32q-14 0 -22 10t-8 22zM124 639h16q31 0 31 -28q0 -29 -31 -29h-16v57zM422 65q-20 -34 -61.5 -57t-101.5 -23q-58 0 -104 22t-73 59t-41 81.5t-14 92.5
t14 92.5t41 81.5t73 59t104 22q60 0 101.5 -23t61.5 -57v65h150v-480h-150v65zM202 240q0 -47 26.5 -81t76.5 -34q33 0 59 17.5t38 42.5v110q-12 25 -38 42.5t-59 17.5q-50 0 -76.5 -34t-26.5 -81z" />
    <glyph glyph-name="ae.ss01" horiz-adv-x="934" 
d="M422 65q-20 -34 -61.5 -57t-101.5 -23q-58 0 -104 22t-73 59t-41 81.5t-14 92.5t14 92.5t41 81.5t73 59t104 22q60 0 101.5 -23t61.5 -57v65h140v-64q45 79 142 79q63 0 109 -28t66.5 -72.5t27 -100t-8.5 -110.5h-314q14 -34 56 -51.5t97 -17.5q73 0 123 23v-126
q-54 -27 -131 -27q-108 0 -167 80v-65h-140v65zM668 370q-36 0 -61 -22t-25 -59h161q5 24 -12.5 52.5t-62.5 28.5zM202 240q0 -47 26.5 -81t76.5 -34q33 0 59 17.5t38 42.5v110q-12 25 -38 42.5t-59 17.5q-50 0 -76.5 -34t-26.5 -81z" />
    <glyph glyph-name="y.ss01" horiz-adv-x="592" 
d="M541 0q0 -113 -76.5 -174t-202.5 -61q-112 0 -197 45v145q73 -50 174 -50q132 0 132 105v26q-57 -51 -133 -51q-94 0 -143 55.5t-49 141.5v298h170v-275q0 -37 20 -56t53 -19q49 0 82 42v308h170v-480z" />
    <glyph glyph-name="yacute.ss01" horiz-adv-x="592" 
d="M62 694h500v-165h-500v165zM473 660q-19 0 -32 -13.5t-13 -33.5t11.5 -33.5t33.5 -13.5q23 0 35 13.5t12 33.5q0 21 -13.5 34t-33.5 13zM119 567h31q47 0 47 44q0 19 -12.5 31.5t-34.5 12.5h-31v-88zM238 582v21h46v16h-46v20h46v16h-62v-88h62v15h-46zM403 567v88h-21
l-26 -36l-26 36h-21v-88h17v66l30 -39l31 40v-67h16zM443 613q0 13 8 22.5t22 9.5q15 0 23 -9.5t8 -22.5q0 -32 -31 -32q-14 0 -22 10t-8 22zM134 639h16q31 0 31 -28q0 -29 -31 -29h-16v57zM541 0q0 -113 -76.5 -174t-202.5 -61q-112 0 -197 45v145q73 -50 174 -50
q132 0 132 105v26q-57 -51 -133 -51q-94 0 -143 55.5t-49 141.5v298h170v-275q0 -37 20 -56t53 -19q49 0 82 42v308h170v-480z" />
    <glyph glyph-name="ycircumflex.ss01" horiz-adv-x="592" 
d="M43 694h500v-165h-500v165zM454 660q-19 0 -32 -13.5t-13 -33.5t11.5 -33.5t33.5 -13.5q23 0 35 13.5t12 33.5q0 21 -13.5 34t-33.5 13zM100 567h31q47 0 47 44q0 19 -12.5 31.5t-34.5 12.5h-31v-88zM219 582v21h46v16h-46v20h46v16h-62v-88h62v15h-46zM384 567v88h-21
l-26 -36l-26 36h-21v-88h17v66l30 -39l31 40v-67h16zM424 613q0 13 8 22.5t22 9.5q15 0 23 -9.5t8 -22.5q0 -32 -31 -32q-14 0 -22 10t-8 22zM115 639h16q31 0 31 -28q0 -29 -31 -29h-16v57zM541 0q0 -113 -76.5 -174t-202.5 -61q-112 0 -197 45v145q73 -50 174 -50
q132 0 132 105v26q-57 -51 -133 -51q-94 0 -143 55.5t-49 141.5v298h170v-275q0 -37 20 -56t53 -19q49 0 82 42v308h170v-480z" />
    <glyph glyph-name="ydieresis.ss01" horiz-adv-x="592" 
d="M550 694v-165h-500v165h500zM461 660q-19 0 -32 -13.5t-13 -33.5t11.5 -33.5t33.5 -13.5q23 0 35 13.5t12 33.5q0 21 -13.5 34t-33.5 13zM107 567h31q47 0 47 44q0 19 -12.5 31.5t-34.5 12.5h-31v-88zM226 582v21h46v16h-46v20h46v16h-62v-88h62v15h-46zM391 567v88h-21
l-26 -36l-26 36h-21v-88h17v66l30 -39l31 40v-67h16zM431 613q0 13 8 22.5t22 9.5q15 0 23 -9.5t8 -22.5q0 -32 -31 -32q-14 0 -22 10t-8 22zM138 639q31 0 31 -28q0 -29 -31 -29h-16v57h16zM541 0q0 -113 -76.5 -174t-202.5 -61q-112 0 -197 45v145q73 -50 174 -50
q132 0 132 105v26q-57 -51 -133 -51q-94 0 -143 55.5t-49 141.5v298h170v-275q0 -37 20 -56t53 -19q49 0 82 42v308h170v-480z" />
    <glyph glyph-name="ygrave.ss01" horiz-adv-x="592" 
d="M10 694h500v-165h-500v165zM421 660q-19 0 -32 -13.5t-13 -33.5t11.5 -33.5t33.5 -13.5q23 0 35 13.5t12 33.5q0 21 -13.5 34t-33.5 13zM67 567h31q47 0 47 44q0 19 -12.5 31.5t-34.5 12.5h-31v-88zM186 582v21h46v16h-46v20h46v16h-62v-88h62v15h-46zM351 567v88h-21
l-26 -36l-26 36h-21v-88h17v66l30 -39l31 40v-67h16zM391 613q0 13 8 22.5t22 9.5q15 0 23 -9.5t8 -22.5q0 -32 -31 -32q-14 0 -22 10t-8 22zM82 639h16q31 0 31 -28q0 -29 -31 -29h-16v57zM541 0q0 -113 -76.5 -174t-202.5 -61q-112 0 -197 45v145q73 -50 174 -50
q132 0 132 105v26q-57 -51 -133 -51q-94 0 -143 55.5t-49 141.5v298h170v-275q0 -37 20 -56t53 -19q49 0 82 42v308h170v-480z" />
    <glyph glyph-name="f_b" horiz-adv-x="1017" 
d="M614 441q52 54 143 54q58 0 104 -22t73 -59t41 -81.5t14 -92.5t-14 -92.5t-41 -81.5t-73 -59t-104 -22q-60 0 -101.5 23t-61.5 57v-65h-150v557q-44 18 -84 18q-39 0 -63 -18t-24 -56v-21h118v-140h-118v-340h-170v340h-79v140h79v25q0 103 58.5 156.5t147.5 53.5
q85 0 160 -31l145 22v-265zM614 185q12 -25 38 -42.5t59 -17.5q50 0 76.5 34t26.5 81t-26.5 81t-76.5 34q-33 0 -59 -17.5t-38 -42.5v-110z" />
    <glyph glyph-name="f_f_b" horiz-adv-x="1351" 
d="M949 441q52 54 143 54q58 0 104 -22t73 -59t41 -81.5t14 -92.5t-14 -92.5t-41 -81.5t-73 -59t-104 -22q-60 0 -101.5 23t-61.5 57v-65h-150v567q-44 18 -84 18q-39 0 -63 -18t-24 -56v-31h118v-140h-118v-340h-170v340h-165v-340h-170v340h-79v140h79v16
q0 106 62.5 157.5t157.5 51.5q87 0 173 -34q55 54 148 54q85 0 160 -31l145 22v-275zM438 515q0 14 2 38q-39 17 -82 17q-40 0 -62.5 -19.5t-22.5 -55.5v-15h165v35zM949 185q12 -25 38 -42.5t59 -17.5q50 0 76.5 34t26.5 81t-26.5 81t-76.5 34q-33 0 -59 -17.5t-38 -42.5
v-110z" />
    <glyph glyph-name="f_f_h" horiz-adv-x="1320" 
d="M949 444q57 51 133 51q94 0 143 -55.5t49 -141.5v-298h-170v275q0 37 -20 56t-53 19q-49 0 -82 -42v-308h-170v567q-44 18 -84 18q-39 0 -63 -18t-24 -56v-31h118v-140h-118v-340h-170v340h-165v-340h-170v340h-79v140h79v16q0 106 62.5 157.5t157.5 51.5q87 0 173 -34
q55 54 148 54q85 0 160 -31l145 22v-272zM438 515q0 14 2 38q-39 17 -82 17q-40 0 -62.5 -19.5t-22.5 -55.5v-15h165v35z" />
    <glyph glyph-name="f_f_j" horiz-adv-x="991" 
d="M939 -67q0 -89 -52 -128.5t-123 -39.5q-50 0 -82 15v130q14 -4 32 -4q55 0 55 59v375h-161v-340h-170v340h-165v-340h-170v340h-79v140h79v16q0 106 62.5 157.5t157.5 51.5q85 0 173 -33q64 63 188 63q83 0 178 -29v-139q-70 28 -141 28q-51 0 -82 -20t-31 -61v-34h331
v-547zM273 480h165v35q0 14 2 38q-39 17 -82 17q-40 0 -62.5 -19.5t-22.5 -55.5v-15z" />
    </font>
</defs>
</svg>
